<?xml version="1.0" encoding="utf-8"?>
<!-- Generator: Adobe Illustrator 21.0.0, SVG Export Plug-In . SVG Version: 6.00 Build 0)  -->
<svg version="1.1" id="Calque_1" xmlns="http://www.w3.org/2000/svg" xmlns:xlink="http://www.w3.org/1999/xlink" x="0px" y="0px"
	 viewBox="0 0 400 400" style="enable-background:new 0 0 400 400;" xml:space="preserve">
<style type="text/css">
	.st0{fill:#91BDF7;}
	.st1{fill:#FEC8BE;}
	.st2{fill:#172C5C;}
	.st3{fill:#122A5B;}
	.st4{fill:#F84C01;}
	.st5{fill:#4C5FA9;}
	.st6{fill:#F34D05;}
	.st7{fill:#13295A;}
	.st8{fill:#222340;}
	.st9{fill:#444444;}
	.st10{fill:#181415;}
	.st11{fill:#CBE4FB;}
	.st12{fill:#FEFEFE;}
	.st13{fill:#010101;}
	.st14{fill:#CB4202;}
	.st15{fill:#5A74BC;}
</style>
<g id="jGi3k4_1_">
	<g>
		<path class="st0" d="M144,128.7c0.9-1.4,2.4-2.1,3.7-2.9c9.9-6.7,20.5-11.9,31.9-15.3c7.7-2.3,15.5-3.8,23.5-4.4
			c0.1,0,0.2,0.1,0.3,0.1c0,3.6,0,7.2,0.1,10.8c0,0.6-0.2,1.3,0.4,1.8l0,0c0,0.4,0.1,0.8,0.5,1l0,0c0.2,0.7,0.8,1.1,1.5,1.1l0,0
			c0.5,0.6,1.3,0.4,1.9,0.4c10.6,0,21.1,0,31.7,0c1.3,0,2.6-0.2,3.2-1.6l0,0c0.8-0.6,0.7-1.5,0.8-2.4c0.1-2.4-0.2-4.8,0.1-7.2
			c3.1,0.4,6,1.6,9,2.7c9.2,3.4,17.9,7.8,26,13.5c4.1,2.9,8,6,11.8,9.3c-0.4,0-0.9,0-1.3,0c-7.6,0-15.2,0-22.7,0
			c-1.9,0-2.1,0.3-2.2,2.2c0,0.8,0,1.6,0,2.5c0,2.8,0,5.7,0,8.5c0,7.1,0,14.2,0.1,21.3c0.2,1.4,1.2,1.2,2.2,1.2c15.7,0,31.3,0,47,0
			c1.2,0,2.4,0,3.6-0.1c0.1,0,0.2,0.1,0.3,0.1c-0.1,1.1,0.6,1.9,1,2.8c4.6,10.1,7.5,20.8,9,31.7c0.9,6.5,1.2,13.1,0.9,19.6
			c-0.4,10.7-2.2,21.2-5.6,31.3c-2.2,6.8-5,13.5-8.6,19.7c-0.5-0.7-0.5-1.6-0.5-2.3c-0.2-4.5-1.4-8.8-2.6-13.1
			c-1.5-5.5-3.1-10.9-5-16.2c0.4-0.3,0.6-0.7,0.3-1.2c-0.4-0.7-0.6-1.4-0.9-2.1c-3.6-8.6-7.5-17.2-12.7-25
			c-6.7-9.9-15.8-16.5-27.7-19c-4.6-0.9-9.2-0.8-13.8-1.4c-0.7-4.7-1.4-9.3-2.1-14c-0.1-0.5,0-1,0.2-1.5c0.1-0.1,0.3-0.1,0.3-0.2
			c4.6-7.3,6.8-15.2,5.8-23.8c-0.6-4.9-2.7-9.1-7-12c-5.4-3.7-11.6-5.3-18-6c-1.6-0.2-3.3-0.1-4.9,0c-1.9,0-3.6,0.5-5.3,1.1
			c-2.5,0.8-4.2,2.5-5.1,5c-0.9,2.4-1.7,4.8-2.5,7.2c-1.6,4.8-0.3,9,3,12.6c0.3,0.9,0.8,1.8,0.8,2.7c0.2,2.5,0.4,5,0.3,7.5
			c-0.2,5.2,0.8,10,3.6,14.4c2,3.2,4.3,5.6,8.4,5.4c0.5,0,1-0.1,1.2,0.5c0.2,0.6-0.5,0.6-0.7,1c-0.5,0-1.1,0.1-1.6,0.1
			c-0.2-0.2-0.3-0.2-0.4,0c-1.9,0.2-3.8,0.4-5.7,0.7c-4.7,0.6-9.1,2.2-12.9,5.1c-3,2.4-5.6,5.2-7.9,8.2c-2.3,3-4.1,6.4-6,9.7
			c-1.3-6.3-2.8-12.6-3.9-18.9c-0.8-4.2-3.7-5.7-8.2-4.8c-2.4-0.4-4.9-0.2-7.4-0.2c-24.4,0-48.8,0-73.2,0c-2,0-2,0-1.5-2
			c1.1-4.3,2.2-8.5,3.8-12.6c0.2-0.5,0.5-1.1,0.4-1.7c3.7,0,7.3,0,11,0c15.8,0,31.7,0,47.5,0c1.3,0,2.4-0.2,2.6-1.8
			c0-0.2,0.1-0.5,0.1-0.7c0-13.9,0-27.7,0-41.6c0.4-1.5,0.2-3,0.1-4.4c-0.2-1.7-0.9-2.2-2.6-2.2c-4.9,0-9.8,0-14.7,0
			C147.3,128.8,145.6,129,144,128.7z M202.9,171.1c-0.1-0.3-0.2-0.6-0.5-0.9c-0.7-0.7-1.3-1.4-2-2.1c-0.7-0.6-1.3-0.8-2,0.1
			c-0.5,0.6-1,0.6-1.7,0.2c-0.5-0.3-1-0.4-1.5-0.6c-0.6-0.1-0.8-0.5-0.8-1c0.1-1.5-0.7-2-2-1.9c-0.6,0.1-1.3,0-1.9,0
			c-1.1,0-1.7,0.4-1.6,1.5c0.1,0.7-0.2,1.1-0.9,1.2c-0.6,0.2-1.1,0.4-1.6,0.7c-0.5,0.3-1,0.3-1.4-0.2c-0.9-1-1.7-0.8-2.6,0.1
			c-0.4,0.5-0.9,0.9-1.3,1.3c-0.8,0.7-0.8,1.3-0.2,2.1c1.1,1.5-0.1,4-2,4.2c-0.9,0.1-1.2,0.6-1.1,1.4c0.3,1.3-0.9,2.9,0.8,3.9
			c0.1,0,0.2,0,0.3,0c1.4-0.3,1.5,0.9,1.9,1.7c0.4,0.9,0.9,1.8-0.2,2.6c-1,0.8-0.3,1.6,0.3,2c1.1,0.7,1.6,2.5,3.4,1.9
			c0.2-0.1,0.3-0.3,0.5-0.5c0.3-0.4,0.7-0.4,1.1-0.2c0.7,0.4,1.3,0.8,2.1,0.9c0.3,0.1,0.5,0.3,0.5,0.6c-0.2,2.1,1.1,2.1,2.6,2
			c0.5,0,1.1,0,1.6,0c0.9,0.1,1.3-0.4,1.4-1.3c0.2-1.7,2.7-2.6,4.1-1.5c0.5,0.4,1,0.6,1.5,0.1c0.9-0.8,1.7-1.7,2.6-2.6
			c0.3-0.4,0.3-0.8,0-1.2c-0.4-0.6-1.3-1-0.6-1.9c0.4-0.6,0.6-1.4,0.9-2.1c0.1-0.3,0.5-0.3,0.8-0.3c1.4,0.1,1.9-0.7,1.8-2
			c0-0.6-0.1-1.3,0-1.9c0.1-1-0.4-1.6-1.4-1.6c-0.9,0-1.2-0.4-1.5-1.2c-0.4-1.2-1.1-2.3,0.3-3.3
			C202.8,171.6,202.8,171.3,202.9,171.1z M285.2,178.4c-0.6-0.1-0.9,0.2-1.1,0.5c-0.5,0.5-0.9,1-1.4,1.4c-1.1,0.8-1.3,1.6-0.3,2.8
			c0.7,0.9-0.5,3.7-1.5,3.7c-1.7,0-2,0.8-1.9,2.2c0,0.6,0,1.2,0,1.7c0,1.1,0.4,1.7,1.5,1.6c1.8-0.1,1.3,1.7,2,2.4
			c0.5,0.6,0.1,1.1-0.3,1.5c-0.6,0.6-0.9,1.3-0.3,1.9c0.8,0.9,1.7,1.7,2.7,2.4c0.4,0.3,0.8,0,1.1-0.3c1.4-1.1,3.8-0.2,4.1,1.6
			c0.1,0.7,0.3,1.5,1.2,1.4c1.4-0.1,3,0.7,4.2-0.7c0.1-0.1,0.1-0.4,0.1-0.6c-0.2-2,1.7-1.4,2.5-2.1c0.7-0.6,1.1,0,1.6,0.4
			c0.7,0.6,1.5,0.6,2-0.1c0.8-1.1,3.1-1.7,2-3.5c-0.7-1.2-0.7-1.8,0-2.7c0.3-0.5,0.1-1.4,1.1-1.4c1.5,0,2-0.7,1.8-2.1
			c-0.1-0.7,0-1.4,0-2.2c0-0.8-0.3-1.3-1.2-1.2c-0.6,0-1.3,0-1.4-0.8c-0.1-1.1-1.6-2.1-0.3-3.3c0.8-0.7,0.7-1.4,0-2.1
			c-0.6-0.6-1.2-1.3-1.9-1.8c-0.7-0.5-1.3-0.6-1.9,0.1c-0.5,0.6-1,0.6-1.6,0.3c-0.5-0.3-1.1-0.6-1.7-0.7c-0.5-0.1-0.7-0.4-0.6-0.8
			c0.3-1.8-0.8-2-2.2-1.9c-0.6,0-1.2,0.1-1.7,0c-1.1-0.1-1.4,0.5-1.6,1.4c-0.1,0.4,0.2,1.1-0.4,1.1c-1.3,0.1-2.7,1.9-4,0
			C285.5,178.5,285.3,178.4,285.2,178.4z M187,139.8C187,139.8,187,139.8,187,139.8c2.8,0,5.5,0,8.3,0c0.6,0,1-0.1,1-0.9
			c0-0.8-0.5-0.8-1.1-0.8c-5.5,0-11,0-16.5,0c-0.6,0-1.2,0-1.2,0.8c0,0.8,0.7,0.8,1.3,0.8C181.5,139.8,184.2,139.8,187,139.8z
			 M195.2,148.8c3.7,0,7.3,0,11,0c0.5,0,1.3,0.3,1.3-0.6c0-0.8-0.8-0.6-1.2-0.6c-7.3,0-14.7,0-22,0c-0.5,0-1.4-0.3-1.3,0.6
			c0,0.9,0.9,0.6,1.4,0.6C188,148.8,191.6,148.8,195.2,148.8z M313.4,220.7c-1.3,0-2.5,1.2-2.5,2.4c0,1.3,1.4,2.5,2.7,2.5
			c1.4-0.1,2.3-1.1,2.2-2.7C315.7,221.5,314.8,220.7,313.4,220.7z M188.6,119.2c-1.6,0-2.5,0.8-2.5,2.3c0,1.4,1.1,2.6,2.4,2.6
			c1.4,0,2.5-1.1,2.6-2.4C191.1,120.2,190.1,119.2,188.6,119.2z M142.7,190.8c1.4,0,2.5-0.9,2.5-2.2c0.1-1.4-1.2-2.7-2.5-2.7
			c-1.2,0-2.4,1.2-2.5,2.4C140.3,189.8,141.2,190.8,142.7,190.8z M199.6,142.9C199.6,142.9,199.6,142.9,199.6,142.9
			c-2.4,0-4.8,0-7.2,0c-0.5,0-1-0.1-1,0.7c0,0.6,0.6,0.5,1,0.5c4.7,0,9.5,0,14.2,0c0.4,0,0.9,0.1,1-0.5c0.1-0.8-0.5-0.7-1-0.7
			C204.2,142.9,201.9,142.9,199.6,142.9z M183.5,142.9c-1.7,0-3.4,0-5.1,0c-0.4,0-0.9-0.1-1,0.6c0,0.6,0.4,0.6,0.9,0.6
			c3.4,0,6.7,0,10.1,0c0.4,0,0.8,0,0.8-0.6c0-0.6-0.4-0.7-0.9-0.7C186.8,142.9,185.1,143,183.5,142.9z M202.9,139.5
			c1.3,0,2.6,0,3.9,0c0.4,0,0.8-0.1,0.8-0.6c0-0.5-0.4-0.6-0.8-0.6c-2.5,0-5.1,0-7.6,0c-0.4,0-0.8,0.1-0.8,0.6
			c0,0.5,0.4,0.6,0.8,0.6C200.4,139.5,201.6,139.5,202.9,139.5z M179.2,148.8C179.2,148.8,179.2,148.8,179.2,148.8
			c0.2,0,0.5,0,0.7,0c0.5,0,1,0,1-0.7c0-0.7-0.5-0.7-1-0.7c-0.6,0-1.3,0-1.9,0c-0.4,0-0.6,0.2-0.6,0.6c0,0.4,0.1,0.8,0.6,0.8
			C178.4,148.8,178.8,148.8,179.2,148.8z"/>
		<path class="st1" d="M305.9,244.8c1.9,5.3,3.5,10.8,5,16.2c1.2,4.3,2.4,8.6,2.6,13.1c0,0.8,0,1.6,0.5,2.3
			c-0.6,1.1-0.3,2.3-0.5,3.4c-0.5,2.7-2.1,4.3-4.3,5.6c-0.5,0.3-0.9,0.6-1.3,0.8c-0.1-0.1-0.2-0.1-0.3,0c0,0,0,0,0,0
			c-0.1,0-0.3,0-0.4,0.1c-6,2.3-12.2,3.5-18.6,4.4c-1.8,0.3-3.7,0.3-5.5,1c-0.2,0-0.3,0.1-0.5,0.1c-0.3,0-0.6,0-0.9,0
			c-0.3,0-0.7-0.1-1-0.1c-25.2,0-50.3,0-75.5,0c-0.7,0-1.3,0-2-0.1c0.4-1.5,1.8-2.4,2.4-3.8c0.5-0.5,1-0.9,1.5-1.4
			c2.4-2.4,5.2-3.7,8.7-3.6c4.3,0.1,8.4,1,12.5,2.1c1.9,0.5,3.7,0.5,5.6-0.1c7.8-2.5,15.8-4.5,23.7-6.6c4.7-1.2,9.5-2.2,14.1-3.6
			c5.2-1.1,10.4-2.6,15.6-4c1.7-0.5,1.8-0.7,1-2.3c-2.2-4.3-4.5-8.5-7-12.6c0.1-0.6,0.7-0.6,1.1-0.8c2.2-1,4.3-1.9,6.5-2.8
			C294.5,249.7,300.2,247.2,305.9,244.8z"/>
		<path class="st2" d="M281.8,291.9c0.3,0,0.6,0,0.9,0c0.3,0.9,1.1,0.4,1.6,0.4c12.5,0,25,0,37.5,0c1.1,0,1.6,0.2,1.5,1.4
			c-0.1,1.1,0,2.3,0,3.5c-10,0-19.9,0.1-29.9,0.1c-70.8,0-141.6,0-212.5,0c-3.5,0-7.1,0-10.6,0c0-1.3,0-2.6,0-3.9c0-0.8,0.3-1,1-1
			c1.3,0,2.6,0,3.9,0c-0.9,0.6-1.9,0.2-2.8,0.3c-0.8,0.1-1.9-0.2-1.8,1.2c0,1.1-0.4,2.5,1.6,2.3c0.7-0.1,1.5,0.6,2.1,0.1
			c1.1-1,1.8-2.7,3.7-2.8c0.4,0,0.2-0.7,0.3-1c2.9,0,5.8,0,8.7,0c0.2,0,1,0.5,0.9-0.4c-0.2-2.4-1.1-4.6-1.7-7
			c-0.8-3.3-1.7-6.5-2.6-9.7c0.4-0.6,1-0.5,1.7-0.6c2.3-0.1,4.6,0.3,6.9-0.2c0.9-0.1,1.9,0.6,2.8-0.2l0-0.1c0,0,0.1,0,0.1,0
			c0.3,0,0.4,0.1,0.6,0.3c0.4,0.4,0.9,0.2,1.4,0.2c2.5,0,5,0,7.5,0c0.1,0,0.2,0,0.3,0c0,0.1-0.1,0.2-0.1,0.3
			c-0.3,0.1-0.4,0.3-0.5,0.6c-0.5,1.7-1,3.5-1.5,5.2c-0.9-0.1-1.1,0.7-1.3,1.3c-1.2,3.5-3.5,6.3-6.1,8.8c-0.2,0.2-0.6,0.3-0.5,0.6
			c0.1,0.4,0.5,0.3,0.9,0.3c1.5,0,3,0,4.5,0c0,0,0,0.1,0,0.1c0.2,0.7,0.8,0.5,1.2,0.5c6.8,0,13.7,0,20.5,0c24.4,0,48.9,0,73.3,0
			c0.4,0,1,0.2,1.2-0.5c0,0,0-0.1,0-0.1c0.2,0.1,0.4,0.1,0.6,0.2c0.2,0.7,0.8,0.4,1.2,0.4c2.2,0,4.4,0,6.7,0c25.1,0,50.2,0,75.4,0
			C280.7,292.3,281.4,292.7,281.8,291.9z"/>
		<path class="st3" d="M316.9,171.1c-1.2,0-2.4,0.1-3.6,0.1c-15.7,0-31.3,0-47,0c-0.9,0-2,0.2-2.2-1.2c0.4-0.3,0.3-0.8,0.3-1.2
			c0-9.5,0-19.1,0-28.6c20.3,0,40.6,0,60.9,0c0,9.7,0,19.4,0,29.2c0,0.9-0.2,1.6-1.2,1.9C321.7,170.7,319.3,170.7,316.9,171.1z
			 M275.7,167.9c0.4,0.1,1.1,0.4,0.6,0.7c-1,0.7-0.1,1.2,0.1,1.8c-0.7,0.3-1.6-0.5-2.1,0.4c1.6,0,3.2,0,4.8,0c0.5,0,0.8-0.2,0.7-0.7
			c-0.3-0.9,0-1.1,0.8-1.1c0.3,0,0.5-0.2,0.5-0.4c0-0.4-0.4-0.4-0.6-0.4c-0.6,0-1.2-0.1-1.2-0.9c4.2,0,8.5,0,12.7,0
			c0.4,0,0.8,0,1.2-0.1c0.4-0.1,0.6-0.3,0.5-0.7c0-0.3-0.2-0.5-0.5-0.6c-0.3-0.1-0.6-0.1-0.9-0.1c-4.9,0-9.8,0-14.8,0
			c-0.4,0-0.9-0.1-1.2,0.3C275.5,166.6,275.8,167.3,275.7,167.9c-0.5-0.2-1-0.5-1.3,0.2c-0.1,0.2,0.1,0.5,0.3,0.6
			C275.4,168.9,275.6,168.5,275.7,167.9z M308.1,147.4C308.1,147.4,308.1,147.4,308.1,147.4c2,0,4.1,0,6.1,0c2,0,4,0,5.9,0
			c0.3,0,0.7,0,0.8-0.5c0-0.5-0.3-0.7-0.7-0.7c-0.2,0-0.4,0-0.6,0c-7.7,0-15.4,0-23,0c-0.4,0-1.2-0.3-1.2,0.5c0,0.9,0.8,0.6,1.2,0.6
			C300.3,147.4,304.2,147.4,308.1,147.4z M284,154c3.8,0,7.5,0,11.3,0c0.4,0,0.9,0.1,1-0.5c0-0.7-0.5-0.6-0.9-0.6
			c-0.1,0-0.3,0-0.4,0c-7.2,0-14.5,0-21.7,0c-0.5,0-1.2-0.3-1.3,0.5c0,1,0.8,0.6,1.3,0.6C276.9,154,280.5,154,284,154z M303.8,157.2
			c3.6,0,7.2,0,10.9,0c0.4,0,0.9,0.1,0.9-0.4c0-0.6-0.5-0.4-0.9-0.4c-3.1-0.8-6.3,0.2-9.5-0.2c-4-0.4-8-0.1-12-0.1
			c-0.5,0-1.2-0.3-1.2,0.6c0,0.8,0.8,0.6,1.2,0.6C296.8,157.2,300.3,157.2,303.8,157.2z M282.4,163.9c3.1,0,6.2,0,9.3,0
			c0.5,0,1.3,0.2,1.3-0.5c0.1-0.8-0.7-0.6-1.2-0.6c-6.2,0-12.5,0-18.7,0c-0.4,0-1.1-0.2-1.1,0.6c0,0.7,0.7,0.5,1.1,0.5
			C276.2,163.9,279.3,163.9,282.4,163.9z M306.7,152.9C306.7,152.9,306.7,152.9,306.7,152.9c-2.7,0-5.3,0-8,0c-0.4,0-1.1-0.2-1,0.6
			c0,0.6,0.6,0.5,1,0.5c5.3,0,10.6,0,15.9,0c0.4,0,1.1,0.1,1-0.6c0-0.7-0.6-0.5-1-0.5C312,152.9,309.4,152.9,306.7,152.9z
			 M284.7,147.4c2.5,0,5,0,7.5,0c0.4,0,1.1,0.2,1.1-0.5c0.1-0.8-0.6-0.6-1-0.6c-5,0-10,0-15,0c-0.4,0-1-0.1-1,0.5
			c0,0.8,0.6,0.6,1,0.6C279.8,147.4,282.3,147.4,284.7,147.4z M312.4,150.8c2.4,0,4.8,0,7.2,0c0.6,0,1.3,0.1,1.2-0.8
			c-0.1-0.7-0.7-0.5-1.3-0.5c-4.8,0.1-9.5,0.1-14.3,0c-0.6,0-1.1-0.2-1.2,0.6c0,0.8,0.7,0.7,1.1,0.7
			C307.7,150.8,310,150.8,312.4,150.8z M301.5,160.6c2.4,0,4.7,0,7.1,0c0.5,0,1.1,0.1,1-0.6c-0.1-0.7-0.6-0.5-1-0.5
			c-4.7,0-9.5,0-14.2,0c-0.4,0-1-0.2-1,0.5c-0.1,0.8,0.6,0.6,1,0.6C296.8,160.6,299.2,160.6,301.5,160.6z M278.2,157.5
			C278.2,157.5,278.2,157.5,278.2,157.5c1.7,0,3.5,0,5.2,0c0.4,0,1.1,0.3,1.1-0.5c0-0.7-0.4-1-1.1-1c-3.5,0-7.1,0-10.6,0
			c-0.5,0-1.1,0-1.1,0.7c0,0.8,0.6,0.8,1.1,0.8C274.6,157.5,276.4,157.5,278.2,157.5z M281.4,144.1c1.3,0,2.7,0,4,0
			c0.5,0,1.2,0.3,1.2-0.6c0-0.8-0.7-0.6-1.2-0.6c-3.8,0-7.7,0-11.5,0c-0.3,0-0.7,0-1,0.1c-0.3,0.1-0.9,0.1-0.9,0.6
			c0,0.7,0.6,0.4,1,0.4C275.8,144.2,278.6,144.1,281.4,144.1z M295.7,150.8c2,0,4.1,0,6.1,0c0.5,0,1.1,0.1,1-0.7
			c0-0.7-0.6-0.5-1-0.5c-4-0.1-8,0.2-12-0.2c-0.5,0-1,0-1,0.7c0,0.7,0.5,0.6,1,0.6C291.7,150.8,293.7,150.8,295.7,150.8z
			 M311.4,167.1c2.7,0,5.4,0,8.1,0c0.4,0,1.1,0.2,1.1-0.5c0-0.7-0.7-0.5-1.1-0.5c-5.4,0-10.8,0-16.2,0c-0.4,0-1.1-0.2-1.1,0.6
			c0.1,0.6,0.7,0.4,1.1,0.4C306,167.1,308.7,167.1,311.4,167.1z M300.5,163.9c1.5,0,3.1,0,4.6,0c0.4,0,0.8-0.1,0.9-0.5
			c0.1-0.5-0.3-0.7-0.8-0.7c-3.1,0-6.2,0-9.3,0c-0.4,0-0.8,0.2-0.8,0.6c0,0.7,0.6,0.5,1,0.5C297.6,163.9,299.1,163.9,300.5,163.9z
			 M300.6,143c-1.5,0-3,0-4.5,0c-0.4,0-0.9-0.1-0.9,0.5c0,0.6,0.4,0.7,0.9,0.7c2.9,0,5.9,0,8.8,0c0.4,0,0.8,0.1,0.9-0.5
			c0.1-0.7-0.4-0.6-0.9-0.6C303.5,143,302.1,143,300.6,143z M276.6,150.8c1.2,0,2.4,0,3.6,0c0.4,0,0.9,0.1,1-0.5
			c0-0.7-0.5-0.6-0.9-0.6c-2.5,0-4.9,0-7.4,0c-0.4,0-1-0.1-0.9,0.6c0,0.7,0.6,0.5,1,0.5C274.2,150.8,275.4,150.8,276.6,150.8z
			 M316.3,159.5c-1.2,0-2.4,0-3.6,0c-0.4,0-0.9-0.1-0.9,0.5c0,0.6,0.4,0.7,0.9,0.7c2.5,0,4.9,0,7.4,0c0.5,0,0.9-0.1,0.9-0.7
			c0-0.7-0.6-0.5-1-0.5C318.7,159.5,317.5,159.5,316.3,159.5z M310.5,143c-0.9,0-1.7,0-2.6,0c-0.3,0-0.7,0-0.8,0.4
			c0,0.5,0.3,0.7,0.7,0.7c1.7,0,3.4,0,5,0c0.4,0,0.7-0.1,0.7-0.6c0-0.6-0.4-0.5-0.8-0.6C312,143,311.3,143,310.5,143z M288,160.6
			C288,160.6,288,160.6,288,160.6c0.8,0,1.5,0,2.3,0c0.4,0,0.7,0,0.7-0.5c0-0.4-0.2-0.6-0.6-0.6c-1.7,0-3.4,0-5.1,0
			c-0.4,0-0.7,0.1-0.7,0.6c0,0.5,0.3,0.5,0.7,0.5C286.3,160.6,287.1,160.6,288,160.6z M275.1,160.6
			C275.1,160.6,275.1,160.6,275.1,160.6c0.9,0,1.7,0,2.6,0c0.4,0,0.6-0.2,0.6-0.6c0-0.4-0.3-0.5-0.6-0.5c-1.7,0-3.4,0-5.2,0
			c-0.3,0-0.6,0.1-0.6,0.5c0,0.4,0.2,0.6,0.6,0.6C273.4,160.6,274.3,160.6,275.1,160.6z M284.6,150.8c0.5,0,1.1,0,1.6,0
			c0.4,0,0.8-0.2,0.7-0.7c0-0.5-0.4-0.5-0.7-0.5c-1.1,0-2.1,0-3.2,0c-0.3,0-0.7,0-0.7,0.5c0,0.5,0.3,0.7,0.7,0.7
			C283.5,150.8,284,150.8,284.6,150.8z M290.7,144.1c0.4,0,0.9,0,1.3,0c0.4,0,1.1,0.2,1-0.6c0-0.7-0.6-0.5-1-0.5c-0.9,0-1.7,0-2.6,0
			c-0.4,0-1-0.1-1,0.5c0,0.8,0.6,0.6,1,0.6C290,144.1,290.3,144.1,290.7,144.1z M319.1,156.1c-0.2,0-0.4,0-0.6,0
			c-0.4,0-1.1-0.2-1,0.6c0,0.7,0.6,0.7,1,0.7c0.5,0,1,0,1.4,0c0.4,0,0.8-0.1,0.8-0.6c0-0.6-0.4-0.7-0.8-0.7
			C319.7,156.1,319.4,156.1,319.1,156.1z M273.2,167.3c0.6-0.1,1.2,0.1,1.6-0.2c0.3-0.2,0.3-0.6,0.1-0.9c-0.3-0.4-2.6-0.4-2.8,0
			c-0.2,0.3-0.3,0.7,0.1,0.9C272.5,167.3,273,167.3,273.2,167.3z M308.9,162.6c-0.5,0.5-1.7-0.4-1.6,0.7c0,0.9,1.1,0.5,1.7,0.5
			c0.6,0,1.7,0.5,1.8-0.5C310.7,162.2,309.5,163,308.9,162.6z M287.8,156.1c-0.2,0-0.4,0-0.6,0c-0.4,0-1.1-0.2-1,0.6
			c0,0.7,0.6,0.5,1,0.5c0.5,0,1.1,0,1.6,0c0.4,0,0.8,0,0.8-0.6c0-0.4-0.3-0.5-0.7-0.5C288.5,156.1,288.1,156.1,287.8,156.1z
			 M281.7,159.5c-0.3,0-0.5,0-0.7,0c-0.5,0-1.1-0.1-1,0.6c0,0.6,0.6,0.5,1,0.5c0.2,0,0.4,0,0.6,0c0.6-0.2,1.6,0.4,1.6-0.6
			C283.2,159,282.1,159.8,281.7,159.5z M273.4,146.2c-0.4,0.2-1.4-0.4-1.4,0.5c0,1.1,1,0.5,1.5,0.6c0.3,0.1,0.7,0,1,0
			c0.3,0,0.5-0.2,0.5-0.6c0-0.3-0.2-0.5-0.5-0.6C274.2,146.2,273.9,146.2,273.4,146.2z M298.1,167.1c0.5-0.2,1.4,0.3,1.4-0.5
			c0-0.9-0.9-0.4-1.4-0.5c-0.3-0.1-0.7,0-1,0c-0.3,0-0.4,0.2-0.5,0.4c0,0.3,0.1,0.5,0.4,0.5C297.3,167.1,297.7,167.1,298.1,167.1z
			 M269.2,156.1c-0.4,0-0.7,0.1-0.7,0.5c0,0.5,0.2,0.7,0.7,0.7c0.5,0,0.7-0.3,0.7-0.7C269.8,156.2,269.6,156.1,269.2,156.1z
			 M269.1,167.3c0.4,0,0.7-0.2,0.7-0.7c0-0.4-0.3-0.6-0.7-0.6c-0.5,0-0.7,0.2-0.7,0.7C268.5,167.2,268.8,167.3,269.1,167.3z
			 M269.8,160c0-0.4-0.3-0.5-0.7-0.6c-0.5,0-0.7,0.2-0.7,0.7c0,0.5,0.4,0.5,0.7,0.5C269.6,160.6,269.9,160.5,269.8,160z M269.2,143
			c-0.3,0-0.7,0-0.7,0.5c0,0.4,0.1,0.6,0.6,0.6c0.4,0,0.8,0,0.8-0.5C269.9,143.1,269.6,143,269.2,143z M269.2,147.4
			c0.4,0,0.7-0.1,0.7-0.5c0-0.5-0.3-0.6-0.7-0.6c-0.4,0-0.6,0.2-0.6,0.6C268.5,147.3,268.8,147.4,269.2,147.4z M269.9,163.3
			c0-0.4-0.2-0.6-0.6-0.6c-0.4,0-0.8,0.1-0.7,0.6c0,0.5,0.3,0.5,0.7,0.5C269.6,163.9,269.9,163.8,269.9,163.3z M269.8,153.2
			c0-0.3-0.3-0.3-0.7-0.3c-0.4,0-0.7,0.1-0.7,0.5c0,0.5,0.4,0.6,0.8,0.6C269.7,154,269.9,153.8,269.8,153.2z M268.5,150.2
			c0,0.5,0.3,0.5,0.7,0.5c0.4,0,0.7-0.1,0.7-0.5c0-0.5-0.3-0.6-0.7-0.6C268.7,149.6,268.5,149.8,268.5,150.2z"/>
		<path class="st4" d="M241.3,93.9c0.1,0,0.1,0,0.2,0.1c0.1,0.1,0.2,0.2,0.3,0.2c0,0,0,0,0,0c0.1,0.1,0.2,0.2,0.3,0.3c0,0,0,0,0,0
			c0.1,0.1,0.2,0.2,0.3,0.3c0,0,0,0,0,0c0.1,0.1,0.2,0.2,0.3,0.3c0,0,0,0,0,0c0.2,0.9,0.3,1.8,0.3,2.7c0,6,0,12,0,18.1
			c0,1.2,0.1,2.4-0.3,3.6c0,0,0,0,0,0c-1.5,1.4-3.4,1.2-5.3,1.2c-10.5,0-21,0-31.5,0c0,0,0,0,0,0c-0.5-0.4-0.9-0.9-1.5-1.1
			c0,0,0,0,0,0c-0.1-0.4-0.2-0.7-0.5-1c0,0,0,0,0,0c0-6.3,0-12.6,0-18.8c0-1.7,0.2-3.3,0.6-5c0,0,0,0,0,0c2.5-1.1,5.1-0.8,7.7-0.8
			C221.8,94,231.6,93.9,241.3,93.9z M231,102.9c0.1-2.5-0.9-3.6-2.8-3.5c-0.4,0-0.9-0.1-0.8,0.5c0,0.5-0.3,1.3,0.3,1.4
			c1.5,0.3,1,1.2,1,2.1c-0.1,1.3-0.5,2.6,0.7,3.7c0.1,0.1,0.1,0.3,0.1,0.4c-1.5,1.3-0.7,3-0.6,4.5c0,0.6,0,1.1-0.8,1.3
			c-0.9,0.1-0.5,0.9-0.5,1.4c-0.1,0.7,0.5,0.6,0.9,0.6c1.7,0.1,2.8-0.9,2.8-2.6c0-0.9-0.1-1.8-0.2-2.7c0-0.6,0-1.1,0.6-1.5
			c1-0.6,1-1.6,0-2.2c-0.6-0.3-0.6-0.8-0.6-1.4C230.9,104,231,103.3,231,102.9z M215.7,112c0,2.1,1.1,3.2,2.8,3.1
			c0.4,0,0.9,0,0.9-0.5c0-0.5,0.3-1.3-0.3-1.4c-1.3-0.2-1-1.1-1-1.9c0-1.3,0.6-2.8-0.7-3.9c-0.1-0.1-0.2-0.2,0-0.4
			c1.4-1.2,0.6-2.8,0.7-4.2c0-0.5-0.3-1.3,0.6-1.4c1.1-0.2,0.7-1,0.7-1.6c-0.1-0.8-0.8-0.5-1.3-0.5c-1.6,0.1-2.5,1.1-2.4,2.7
			c0,0.8,0.2,1.6,0.3,2.4c0.1,0.7,0.1,1.4-0.8,1.8c-0.7,0.3-0.7,1.7,0,2c1,0.4,0.9,1.1,0.8,1.9C215.9,110.9,215.8,111.6,215.7,112z"
			/>
		<path class="st5" d="M165.8,135.5c-9.7,0-19.3,0-29,0c-19.1,0-38.1,0-57.2,0c-0.1,0-0.2,0-0.3,0c0-1.3-0.1-2.5-0.1-3.8
			c0-2.2,0.6-2.8,2.8-2.8c19,0,38.1,0,57.1,0c1.6,0,3.2,0.2,4.8-0.2c1.6,0.3,3.3,0.1,4.9,0.1c4.9,0,9.8,0,14.7,0
			c1.7,0,2.4,0.6,2.6,2.2c0.1,1.5,0.3,3-0.1,4.4C166,135.4,165.9,135.4,165.8,135.5z M91.4,131.3c-0.6,0.1-0.9,0.4-0.9,0.9
			c0,0.6,0.4,1,1,1c0.5,0,0.9-0.3,0.9-0.9C92.4,131.6,92,131.3,91.4,131.3z M87.3,131.3c-0.5,0-0.9,0.3-0.9,0.8c0,0.6,0.3,0.9,0.8,1
			c0.6,0.1,1-0.3,1-0.9C88.2,131.7,87.9,131.4,87.3,131.3z M84.1,132.3c0-0.6-0.3-0.9-0.9-1c-0.6,0-0.9,0.3-1,0.8
			c0,0.6,0.3,0.9,0.8,1C83.7,133.2,84,132.8,84.1,132.3z"/>
		<path class="st0" d="M196.8,291.9c-0.2-0.1-0.4-0.1-0.6-0.2c0-1.1,0-2.2,0-3.3c0.1-1-0.4-1.3-1.3-1.3c-0.9,0-1.8,0-2.8,0
			c-11.9,0-23.7,0-35.6,0c-1.3,0-1.7-0.3-1.6-1.6c0.4-4.7,0.6-9.4,0.9-14.1c1.2,0,2.5,0,3.7,0c0.2,0,0.5,0,0.7,0
			c0.2,0,0.3,0,0.5,0.1c0.3,1.1,1.4,1.4,2.1,2.1c3.8,3.9,8,7.2,12.6,10c3.7,2.2,7.3,2.3,11-0.1c3.4-2.3,6.1-5.3,8.6-8.5
			c0.9-1.1,2-2.1,2.3-3.6c0.9,0,1.7-0.1,2.6-0.1c1.6-0.2,2.7-1,3.6-2.3c0.1-0.2,0.1-0.7,0.5-0.4c0.2,0.1,0.1,0.4,0.1,0.7
			c0.1,1.9,0.2,3.8,0.4,5.6c0.5,4.3,0.3,8.7,1,13c-0.6,1.4-2,2.2-2.4,3.8C201.1,291.8,199,291.9,196.8,291.9z"/>
		<path class="st6" d="M92.9,262.8c-2.1-0.3-3.6-1.6-4.7-3.3c-1.2-1.8-1.9-3.8-2.5-5.8c-1.5-4.5-3.3-9-5.5-13.2
			c-0.6-1.1-0.8-2-0.2-3.1c0.4-0.8,0.4-1.4-0.8-1.3c-0.8,0.1-1.3-0.3-1.6-1.1c-0.9-2.3-1.9-4.6-3-7.2c2.5,0.8,4.5,1.9,6.5,2.9
			c3.9,2,7.6,4.4,10.8,7.4c0.3,0.3,1,0.6,0.5,1.3c-0.8,1,0,1.1,0.7,1.2c1.1,0,1.5,0.6,1.7,1.7c0.6,3.3,1.3,6.5,2,9.8
			c0.8,3.7-0.2,7.2-2.9,10.1c-0.3-2-0.7-4-1-5.9c-1.3-7.1-3.9-13.6-8.5-19.2c-0.7-0.9-1.5-1.8-2.5-2.5c-0.2,0.7,0.2,0.9,0.4,1.2
			c0.8,0.9,1.6,1.7,2.3,2.6c4.8,6.3,7.1,13.5,8.2,21.2C93.1,260.5,93.4,261.6,92.9,262.8z"/>
		<path class="st1" d="M197.4,271.6c-0.3,1.5-1.4,2.5-2.3,3.6c-2.5,3.2-5.2,6.2-8.6,8.5c-3.7,2.4-7.3,2.3-11,0.1
			c-4.6-2.8-8.9-6.2-12.6-10c-0.7-0.7-1.8-1.1-2.1-2.1c10.9,0,21.8,0,32.6,0c0.8,0,1.6,0,2.4,0.1
			C196.4,271.5,196.9,271.6,197.4,271.6z"/>
		<path class="st7" d="M204.2,269.4c0.1-0.2,0.1-0.5-0.1-0.7c-0.4-0.3-0.4,0.2-0.5,0.4c-0.9,1.3-2,2.2-3.6,2.3
			c-0.7-0.6-1.8,0.2-2.4-0.7c0,0,0,0,0,0c0.2,0,0.3-0.1,0.3-0.3c0,0,0,0,0,0c0.1-0.1,0.2-0.2,0.3-0.3c0,0,0,0,0,0
			c0.1-0.1,0.3-0.2,0.4-0.4c1.5-1.8,1.8-3.8,1.3-6.1c-4.4-20.9-8.7-41.9-13-62.8c-0.5-2.5-1.7-4.3-4.2-5c4.5-0.9,7.4,0.6,8.2,4.8
			c1.2,6.3,2.6,12.6,3.9,18.9c0.7,3.3,1.3,6.6,2,9.9c1.2,5.6,2.3,11.1,3.5,16.7c0.7,4.1,1.6,8.1,2.5,12.2c0.2,1.4,0.3,2.8,0.9,4.1
			C204.2,264.7,204.4,267,204.2,269.4z"/>
		<path class="st5" d="M325.3,140.1c-20.3,0-40.6,0-60.9,0c-0.1,0-0.2,0-0.3,0c0-0.8,0-1.6,0-2.5c0-1.9,0.3-2.2,2.2-2.2
			c7.6,0,15.2,0,22.7,0c0.4,0,0.9,0,1.3,0c10.8,0,21.6,0,32.5,0c2.4,0,2.7,0.2,2.6,2.6C325.3,138.7,325.3,139.4,325.3,140.1z
			 M267.4,137.7c-0.1-0.4-0.3-0.7-0.8-0.6c-0.4,0-0.6,0.3-0.6,0.6c0,0.4,0.3,0.7,0.7,0.7C267.1,138.5,267.4,138.2,267.4,137.7z
			 M270.3,137.8c-0.1-0.4-0.3-0.7-0.8-0.7c-0.4,0-0.6,0.3-0.6,0.6c0,0.4,0.3,0.7,0.7,0.7C270,138.5,270.3,138.2,270.3,137.8z
			 M273.2,137.8c0-0.3-0.2-0.6-0.6-0.6c-0.4,0-0.6,0.2-0.7,0.6c0,0.4,0.2,0.7,0.6,0.7C272.9,138.5,273.1,138.2,273.2,137.8z"/>
		<path class="st0" d="M119.2,271.5c2.8,0,5.6,0.1,8.4,0c1.2,0,1.5,0.4,1.4,1.5c-0.3,4.3-0.5,8.6-0.7,12.8c0,1-0.5,1.4-1.5,1.4
			c-2.5-0.1-4.9,0-7.4,0c-0.8,0-1.3-0.2-1.8-0.9c-2.9-4.3-5.5-8.8-7.9-13.4c-0.7-1.4-0.1-1.4,0.9-1.4
			C113.5,271.5,116.3,271.5,119.2,271.5z"/>
		<path class="st0" d="M134.8,231.4c0-5.4,2.1-8.3,5.7-9.1c2-0.4,3.6,0.4,5.1,1.6c4,3,4.6,10.1,1.3,13.6c-2.4,2.5-5.9,2.7-8.6,0.4
			C135.9,235.9,134.8,233.4,134.8,231.4z"/>
		<path class="st6" d="M86.8,267.6c-2.3,0.9-4.5,0.1-6.6-0.6c-0.4-0.1-0.7-0.3-1.1-0.5c-1.1-0.5-2.1-1-0.9-2.3
			c0.1-0.1,0.1-0.3,0.1-0.5c-0.2,0-0.3-0.1-0.3,0c-1.3,1.5-2.4,0.9-3.7-0.2c-2.2-1.8-4.3-3.7-6.2-5.8c0.1-0.1,0.2-0.2,0.2-0.2
			c4.4-0.2,8.9-0.3,13.3,0.6c1.7,0.3,3.2,0.8,4.7,2.4c2.1,2.2,1.8,4.2,1.3,6.6c0,0-0.1,0.1-0.1,0.1c-2.4-3.3-10.3-8.8-12.2-7.4
			c0.1,0.1,0.2,0.2,0.3,0.2c4.3,1.2,7.6,3.7,10.6,6.8C86.6,266.9,86.8,267.2,86.8,267.6z"/>
		<path class="st0" d="M283.2,291.8c1.7-0.7,3.6-0.8,5.5-1c6.3-0.9,12.6-2.1,18.6-4.4c0.1,0,0.3-0.1,0.4-0.1
			c-0.4,1.7-1.8,2.8-2.7,4.2c-0.3,0.4-0.7,0.8-0.8,1.3C297.2,291.9,290.2,291.9,283.2,291.8z"/>
		<path class="st8" d="M196.3,291.9c-0.2,0.7-0.8,0.5-1.2,0.5c-24.4,0-48.9,0-73.3,0c0-0.1,0-0.3,0-0.4c0.4,0,0.8-0.1,1.1-0.1
			c24.2,0,48.4,0,72.6,0C195.7,291.8,196,291.8,196.3,291.9z"/>
		<path class="st2" d="M160.4,271.5c-0.2,0-0.5,0-0.7,0c-1.2-0.6-2.5-0.1-3.7-0.3c0-0.3,0.1-0.6,0.1-0.9c0.8-1.2,0.5-2.5,0.2-3.7
			c0.1-1.5,0.2-2.9,0.3-4.4c0.7-1.2,0.5-2.5,0.6-4.2c0.9,4.3,1.7,8.2,2.5,12.2c0.1,0.4,0.2,0.6,0.6,0.7
			C160.3,271.1,160.3,271.3,160.4,271.5z"/>
		<path class="st9" d="M92.9,262.8c0.5-1.1,0.2-2.3,0-3.4c-1.1-7.7-3.4-14.9-8.2-21.2c-0.7-0.9-1.5-1.8-2.3-2.6
			c-0.3-0.3-0.7-0.5-0.4-1.2c1.1,0.6,1.8,1.6,2.5,2.5c4.6,5.6,7.2,12.1,8.5,19.2c0.4,2,0.7,4,1,5.9c-0.1,0.3-0.1,0.5-0.2,0.8
			c-0.2,0.1-0.3,0.2-0.5,0.3C93.2,262.9,93.1,262.9,92.9,262.8z"/>
		<path class="st8" d="M283.2,291.8c7,0.1,14,0.1,20.9,0c6,0,12.1,0.1,18.1,0c1.2,0,1.5,0.3,1.4,1.4c-0.2,1.3,0.4,2.7-0.3,4
			c0-1.2-0.1-2.3,0-3.5c0.1-1.2-0.4-1.4-1.5-1.4c-12.5,0-25,0-37.5,0c-0.5,0-1.3,0.4-1.6-0.4C282.9,291.8,283,291.8,283.2,291.8z"/>
		<path class="st3" d="M99.9,291.8c-1.5,0-3,0-4.5,0c-0.3,0-0.8,0.1-0.9-0.3c-0.1-0.3,0.3-0.4,0.5-0.6c2.6-2.6,4.9-5.3,6.1-8.8
			c0.2-0.6,0.4-1.4,1.3-1.3c0,0.6-0.4,1-0.6,1.5c-0.3,0.2-0.3,0.6-0.3,0.9c0,0.1,0,0.2,0,0.3c-0.3,0.2-0.3,0.5-0.3,0.9l0,0
			c-0.4,0.3-0.4,0.6,0,0.9c-0.2,0.9-0.7,1.6-1.1,2.4c0.1,0.9,0.1,1.7,0,2.6c-0.3,0.4-0.9,0.8-0.3,1.4
			C99.9,291.6,99.9,291.7,99.9,291.8z"/>
		<path class="st6" d="M241.3,93.9c-9.7,0-19.5,0-29.2,0c-2.6,0-5.3-0.3-7.7,0.8c0.7-1,1.7-1.3,2.9-1.3c10.8,0,21.6,0,32.5,0
			C240.3,93.5,240.9,93.5,241.3,93.9z"/>
		<path class="st0" d="M146,106.4c1.4,0,2.6,1.2,2.6,2.5c0,1.3-1.2,2.4-2.6,2.4c-1.3,0-2.5-1.2-2.5-2.5
			C143.6,107.4,144.6,106.4,146,106.4z"/>
		<path class="st0" d="M289.3,122.5c0,1.5-1,2.5-2.4,2.5c-1.5,0-2.5-0.9-2.5-2.4c-0.1-1.3,1-2.5,2.4-2.6
			C288.1,120,289.3,121.2,289.3,122.5z"/>
		<path class="st0" d="M74.1,193.7c0-1.5,0.9-2.6,2.3-2.6c1.4,0,2.6,1.2,2.6,2.5c0,1.2-1.2,2.4-2.4,2.4
			C75.2,196.1,74.2,195.1,74.1,193.7z"/>
		<path class="st8" d="M93.4,263c0.2-0.1,0.3-0.2,0.5-0.3c0.3,3.5,0.2,7,0.1,10.5c0,0.7,0,1.2,0.9,0.9c-0.9,0.9-1.9,0.1-2.8,0.2
			c-0.1,0-0.1,0-0.2-0.1c0.2-0.1,0.3-0.3,0.2-0.6c-1.4-2.2-2.8-4.3-4.7-6.1c0.1-0.2,0.2-0.5,0.3-0.7c0,0,0.1-0.1,0.1-0.1
			c1.9,2.4,3.7,4.7,5.5,7.3C93.7,270.5,93.6,266.7,93.4,263z"/>
		<path class="st6" d="M204.4,94.8c-0.3,1.6-0.6,3.3-0.6,5c0,6.3,0,12.6,0,18.8c-0.5-0.5-0.4-1.2-0.4-1.8c0-3.6-0.1-7.2-0.1-10.8
			c0-2.8,0.1-5.7,0.1-8.5C203.5,96.6,203.4,95.5,204.4,94.8z"/>
		<path class="st6" d="M242.6,119.4c0.4-1.2,0.3-2.4,0.3-3.6c0-6,0-12,0-18.1c0-0.9,0-1.8-0.3-2.7c0.8,0.7,0.7,1.6,0.7,2.5
			c0,3.6,0,7.1,0,10.7c0,0.5,0.1,1,0.1,1.6c-0.3,2.4-0.1,4.8-0.1,7.2C243.4,117.9,243.4,118.8,242.6,119.4z"/>
		<path class="st10" d="M121.7,291.9c0,0.1,0,0.3,0,0.4c-6.8,0-13.7,0-20.5,0c-0.4,0-1,0.2-1.2-0.5
			C107.2,291.9,114.4,291.9,121.7,291.9z"/>
		<path class="st10" d="M79.4,135.5c0.1,0,0.2,0,0.3,0c0,13.6,0,27.1,0,40.7c0,0.6,0.2,1.2-0.2,1.7c0-0.1-0.1-0.3-0.1-0.4
			C79.4,163.4,79.4,149.4,79.4,135.5z"/>
		<path class="st9" d="M87.5,266.9c-0.1,0.2-0.2,0.5-0.3,0.7c-0.2,0-0.3,0-0.5,0c0-0.4-0.2-0.7-0.4-1c-3-3.1-6.4-5.7-10.6-6.8
			c-0.1,0-0.2-0.2-0.3-0.2C77.2,258.2,85.1,263.6,87.5,266.9z"/>
		<path class="st10" d="M87.8,291.9c0.1,0.9-0.6,0.4-0.9,0.4c-2.9,0.1-5.8,0-8.7,0c-0.4,0-0.8,0-1.2,0c-0.2,0-0.4,0-0.6,0
			c-0.4,0-0.8,0-1.2,0c-1.3,0-2.6,0-3.9,0c-0.7,0-1,0.2-1,1c0,1.3,0,2.6,0,3.9c-0.7-0.6-0.2-1.5-0.3-2.2c-0.1-1,0-2,0.1-3
			c0.1,0,0.3-0.1,0.4-0.1C76.3,291.9,82,291.9,87.8,291.9z"/>
		<path class="st8" d="M160.3,270.9c-0.4-0.1-0.5-0.3-0.6-0.7c-0.8-3.9-1.6-7.9-2.5-12.2c-0.2,1.7,0.1,3-0.6,4.2
			c0.1-2.1,0.2-4.2,0.3-6.2c0.1,0,0.2,0,0.3,0C158.2,260.9,159.2,265.9,160.3,270.9z"/>
		<path class="st8" d="M95.4,274.4c-0.1-0.2-0.3-0.3-0.6-0.3c0.6-1.4,1.1-2.8,1.5-4.3c0.6-2.2,1.7-4.1,2.9-6.1
			c0.5,0.7-0.1,1.1-0.3,1.5c-1.2,2.3-2.4,4.6-3.3,7c-0.2,0.7-0.7,1.4,0,2.1C95.6,274.4,95.5,274.4,95.4,274.4z"/>
		<path class="st8" d="M101.7,283.4c0-0.1,0-0.2,0-0.3c0.3-0.2,0.3-0.6,0.3-0.9c0.2-0.5,0.6-0.9,0.6-1.5c0.5-1.7,1-3.5,1.5-5.2
			c0.1-0.3,0.1-0.5,0.5-0.6c-1,3.8-2.1,7.7-3.1,11.6c-0.2,0.7-0.7,0.7-1.1,1c0.4-0.8,0.9-1.5,1.1-2.4c0-0.3,0-0.6,0-0.9c0,0,0,0,0,0
			C101.8,284,101.7,283.7,101.7,283.4z"/>
		<path class="st10" d="M91.8,274.3c0.1,0,0.1,0.1,0.2,0.1c-2.3,0.5-4.6,0.1-6.9,0.2c-0.6,0-1.3-0.1-1.7,0.6c0,0,0,0,0,0
			c0-0.3,0-0.6,0-0.9C86.2,274.2,89,274.2,91.8,274.3z"/>
		<path class="st10" d="M95.4,274.4c0.1,0,0.2,0,0.3-0.1c2.9,0,5.7,0,8.6,0c0,0.1,0,0.2,0,0.3c-2.5,0-5,0-7.5,0
			C96.3,274.6,95.8,274.8,95.4,274.4z"/>
		<path class="st10" d="M316.9,171.1c2.4-0.4,4.8-0.4,7.2,0c-2.3,0-4.6,0.1-6.9,0.1C317.1,171.1,317,171.1,316.9,171.1z"/>
		<path class="st8" d="M197.6,270.8c0.6,0.8,1.7,0,2.4,0.7c-0.9,0-1.7,0.1-2.6,0.1c-0.5,0-1,0-1.5,0
			C196.5,271.3,197,271,197.6,270.8z"/>
		<path class="st10" d="M156.3,266.6c0.3,1.3,0.7,2.5-0.2,3.7C156.1,269,156.2,267.8,156.3,266.6z"/>
		<path class="st10" d="M156,271.2c1.2,0.2,2.5-0.3,3.7,0.3c-1.2,0-2.5,0-3.7,0C155.9,271.4,155.9,271.3,156,271.2z"/>
		<path class="st8" d="M99.9,291.5c-0.5-0.6,0-1,0.3-1.4C100.4,290.6,100,291,99.9,291.5z"/>
		<path class="st8" d="M104.3,274.7c0-0.1,0-0.2,0-0.3c0.4-0.1,0.4,0,0.3,0.3C104.5,274.7,104.4,274.7,104.3,274.7z"/>
		<path class="st8" d="M83.4,274.3c0,0.3,0,0.6,0,0.9C83.4,274.9,82.9,274.6,83.4,274.3z"/>
		<path class="st6" d="M242.7,95.1c-0.1-0.1-0.2-0.2-0.3-0.3C242.6,94.8,242.7,94.9,242.7,95.1z"/>
		<path class="st6" d="M242.4,94.8c-0.1-0.1-0.2-0.2-0.3-0.3C242.2,94.6,242.3,94.7,242.4,94.8z"/>
		<path class="st6" d="M242.1,94.5c-0.1-0.1-0.2-0.2-0.3-0.3C241.9,94.3,242,94.4,242.1,94.5z"/>
		<path class="st2" d="M70.6,291.9c-0.1,0-0.3,0.1-0.4,0.1C70.2,291.7,70.4,291.8,70.6,291.9z"/>
		<path class="st0" d="M307.6,286.3c0.1-0.1,0.2-0.1,0.3,0c0,0-0.1,0-0.1,0L307.6,286.3z"/>
		<path class="st6" d="M241.8,94.2c-0.1-0.1-0.2-0.2-0.3-0.2C241.6,94.1,241.7,94.2,241.8,94.2z"/>
		<path class="st8" d="M198.6,269.9c-0.1,0.1-0.3,0.2-0.4,0.4C198.3,270.1,198.5,270,198.6,269.9z"/>
		<path class="st8" d="M198.2,270.2c-0.1,0.1-0.2,0.2-0.3,0.3C198,270.4,198.1,270.3,198.2,270.2z"/>
		<path class="st8" d="M197.9,270.5c0,0.2-0.1,0.3-0.3,0.3C197.7,270.7,197.8,270.6,197.9,270.5z"/>
		<path class="st4" d="M204.2,269.4c0.2-2.3,0-4.6-0.5-6.9c0-1.3,0-2.6-0.3-3.8c-0.1-2.8-0.3-5.6-0.4-8.3c-0.3-3.9-0.4-7.8-0.6-11.7
			c-0.2-4.8-0.3-9.7-0.3-14.5c0-2,0.4-4,0.2-6.3c-0.2,0.5-0.4,0.8-0.4,1c-0.5,3.4-1.1,6.8-1.2,10.3c-0.1,4.1,0,8.1,0,12.2
			c0,1.4,0.4,2.9,0.3,4.3c0,0.4,0.1,0.9-0.6,0.6c-1.2-5.5-2.3-11.1-3.5-16.7c-0.7-3.3-1.3-6.6-2-9.9c1.9-3.3,3.7-6.6,6-9.7
			c2.3-3,4.9-5.8,7.9-8.2c3.8-3,8.1-4.5,12.9-5.1c1.9-0.3,3.8-0.5,5.7-0.7c0.1,0,0.3,0,0.4,0c0.5,0,1.1-0.1,1.6-0.1
			c0.8,0.1,0.8,0.8,1,1.4c1.1,3.3,3.1,4.8,6.6,4.6c5.4-0.3,9.8-2.9,14.1-5.8c4.6,0.6,9.3,0.5,13.8,1.4c11.9,2.4,21,9,27.7,19
			c5.2,7.8,9.1,16.3,12.7,25c0.3,0.7,0.5,1.5,0.9,2.1c0.3,0.5,0.1,0.9-0.3,1.2c-5.7,2.4-11.4,4.9-17.1,7.3c-2.2,0.9-4.3,1.9-6.5,2.8
			c-0.4,0.2-1,0.2-1.1,0.8c-1.1,0.2-1.8-0.3-2.3-1.3c-1.8-3.5-3.8-6.9-5.4-10.5c-1-2.2-2.3-4.3-3.5-6.6c-0.2,0.7-0.1,1.2,0.1,1.8
			c0.7,1.7,1.4,3.4,2,5.2c1.5,4.2,3,8.5,4.4,12.8c0.9,2.7,2,5.3,2.7,8.1c0.6,2.1-0.6,5.4-2.4,6.5c-1.7,1.1-3.7,1.8-5.3,3.1
			c-4.7,1.4-9.4,2.4-14.1,3.6c-7.9,2-15.9,4.1-23.7,6.6c-1.8,0.6-3.7,0.6-5.6,0.1c-4.1-1.1-8.2-2-12.5-2.1c-3.5-0.1-6.3,1.2-8.7,3.6
			c-0.5,0.5-1,0.9-1.5,1.4c-0.7-4.3-0.5-8.7-1-13C204.4,273.1,204.4,271.2,204.2,269.4z"/>
		<path class="st1" d="M251.1,196c-4.3,2.9-8.7,5.5-14.1,5.8c-3.5,0.2-5.5-1.4-6.6-4.6c-0.2-0.6-0.2-1.3-1-1.4
			c0.2-0.3,0.9-0.4,0.7-1c-0.2-0.6-0.7-0.5-1.2-0.5c-4.1,0.3-6.4-2.1-8.4-5.4c-2.8-4.5-3.8-9.3-3.6-14.4c0.1-2.5-0.1-5-0.3-7.5
			c-0.1-1-0.5-1.8-0.8-2.7c0.2-1.3-0.6-2.5-0.2-3.7l0,0c2.5,1.7,5.3,1.8,8.5,1.9c-0.7-0.6-1-0.9-1.3-1.2c-0.3-0.3-0.5-0.7-1.1-1.3
			c2.8,1.4,5.4,1.8,8.5,1.6c-1.7-1-2.7-2.1-3.2-3.9c2.9,1.6,5.8,2.3,8.7,3c3.8,1,5.8,3.3,6.5,7c0.4,2.2,1.1,4.4,1.6,6.6
			c0.1,0.4,0.2,0.9,0.6,0.9c0.5,0,0.6-0.5,0.8-0.9c0.6-1.7,0.7-3.5,0.5-5.3c-0.2-1.5,0.6-2.2,1.7-2.9c2.2-1.4,3.6-0.6,3.8,2
			c0.1,1.9-0.5,3.6-1.5,5.2c-1.5,2.4-0.8,4.8-0.2,7.2c-0.2,0.5-0.3,1-0.2,1.5C249.8,186.7,250.4,191.4,251.1,196z M229.8,183.6
			c0.4-0.1,0.9-0.2,1-0.9c-2.8,0-5.6,0-8.3,0c-0.9,0-0.5,0.3-0.1,0.6C224,186.1,227.3,185.6,229.8,183.6z M235.3,171.2
			c-0.1-1-0.3-2.1-1.5-2.1c-1.2-0.1-1.5,1-1.6,2c0,1,0.3,2.1,1.4,2.2C235,173.4,235.2,172.3,235.3,171.2z M218.8,170.5
			c0.1,0.9,0.2,1.9,1.4,2c1.2,0,1.3-1.1,1.3-2c0-1-0.1-2.2-1.4-2.1C218.9,168.4,218.8,169.5,218.8,170.5z M225.4,178.9
			c0.3,0,0.7,0.1,0.7-0.3c0.1-0.5-0.4-0.4-0.7-0.5c-1.9-0.4-2-0.9-1-2.5c0.7-1.1,1.4-2.3,2.1-3.4c0.2-0.3,0.5-0.6,0-0.8
			c-0.3-0.2-0.5,0.2-0.6,0.4c-0.8,1.3-1.6,2.5-2.3,3.8C222.4,177.5,223.2,178.8,225.4,178.9z M231.2,164.4c-0.3,0-0.8-0.3-0.8,0.2
			c-0.1,0.6,0.5,0.4,0.8,0.5c1.3,0.2,2.6,0.3,3.9,0.4c0.3,0,0.8,0.2,0.8-0.2c0.1-0.6-0.5-0.4-0.8-0.5
			C233.8,164.7,232.5,164.6,231.2,164.4z M222,164.5c-1.4-0.5-2.9-0.3-4.3-0.4c-0.1,0-0.2,0.2-0.2,0.3c0,0.2,0.1,0.3,0.3,0.3
			C219.2,164.8,220.6,165,222,164.5z"/>
		<path class="st8" d="M215.4,160.6c-0.4,1.3,0.5,2.5,0.2,3.7c-3.3-3.7-4.6-7.8-3-12.6c0.8-2.4,1.6-4.8,2.5-7.2
			c0.9-2.5,2.6-4.1,5.1-5c1.7-0.6,3.5-1.1,5.3-1.1c1.6,0.4,3.3,0.4,4.9,0c6.4,0.7,12.6,2.3,18,6c4.2,2.9,6.4,7.1,7,12
			c1.1,8.6-1.2,16.5-5.8,23.8c-0.1,0.1-0.2,0.2-0.3,0.2c-0.5-2.4-1.3-4.8,0.2-7.2c1-1.6,1.6-3.3,1.5-5.2c-0.1-2.6-1.6-3.3-3.8-2
			c-1,0.7-1.8,1.3-1.7,2.9c0.2,1.8,0,3.6-0.5,5.3c-0.1,0.4-0.2,0.9-0.8,0.9c-0.5,0-0.5-0.5-0.6-0.9c-0.6-2.2-1.2-4.4-1.6-6.6
			c-0.8-3.7-2.8-6.1-6.5-7c-2.9-0.7-5.9-1.4-8.7-3c0.5,1.8,1.5,2.9,3.2,3.9c-3.1,0.2-5.6-0.2-8.5-1.6c0.5,0.7,0.8,1,1.1,1.3
			c0.3,0.3,0.7,0.6,1.3,1.2C220.7,162.4,217.9,162.3,215.4,160.6c-0.1,0-0.1,0-0.1,0c0,0,0,0,0,0
			C215.3,160.6,215.4,160.6,215.4,160.6z"/>
		<path class="st11" d="M202.9,171.1c-0.1,0.2-0.1,0.5-0.3,0.6c-1.3,1-0.7,2.1-0.3,3.3c0.3,0.7,0.6,1.2,1.5,1.2
			c0.9,0,1.5,0.6,1.4,1.6c-0.1,0.6,0,1.3,0,1.9c0.1,1.3-0.3,2.1-1.8,2c-0.3,0-0.6,0-0.8,0.3c-0.3,0.7-0.5,1.5-0.9,2.1
			c-0.6,1,0.2,1.4,0.6,1.9c0.3,0.4,0.3,0.9,0,1.2c-0.8,0.9-1.7,1.7-2.6,2.6c-0.5,0.5-1,0.3-1.5-0.1c-1.4-1.1-3.9-0.2-4.1,1.5
			c-0.1,0.9-0.5,1.3-1.4,1.3c-0.5,0-1.1,0-1.6,0c-1.5,0.1-2.8,0.1-2.6-2c0-0.3-0.1-0.6-0.5-0.6c-0.8-0.1-1.4-0.6-2.1-0.9
			c-0.5-0.2-0.8-0.2-1.1,0.2c-0.1,0.2-0.3,0.5-0.5,0.5c-1.8,0.6-2.3-1.2-3.4-1.9c-0.6-0.4-1.3-1.2-0.3-2c1.1-0.8,0.5-1.7,0.2-2.6
			c-0.4-0.8-0.5-2-1.9-1.7c-0.1,0-0.2,0-0.3,0c-1.7-1-0.5-2.6-0.8-3.9c-0.2-0.7,0.1-1.3,1.1-1.4c1.9-0.2,3.1-2.7,2-4.2
			c-0.6-0.8-0.6-1.5,0.2-2.1c0.5-0.4,0.9-0.9,1.3-1.3c0.8-0.9,1.7-1.2,2.6-0.1c0.4,0.5,0.9,0.5,1.4,0.2c0.5-0.3,1-0.5,1.6-0.7
			c0.7-0.2,0.9-0.5,0.9-1.2c-0.1-1.1,0.5-1.6,1.6-1.5c0.6,0,1.3,0,1.9,0c1.4-0.1,2.2,0.3,2,1.9c0,0.5,0.2,0.9,0.8,1
			c0.5,0.1,1,0.3,1.5,0.6c0.6,0.4,1.2,0.4,1.7-0.2c0.6-0.8,1.3-0.7,2-0.1c0.7,0.7,1.4,1.3,2,2.1
			C202.6,170.5,202.7,170.8,202.9,171.1z M191.6,172.6c-3.6,0-6.3,2.6-6.3,6.1c0,3.5,2.9,6.4,6.5,6.4c3.4,0,6.3-3,6.3-6.4
			C198,175.2,195.1,172.5,191.6,172.6z"/>
		<path class="st11" d="M285.2,178.4c0.1,0,0.3,0.1,0.4,0.2c1.3,1.8,2.7,0.1,4,0c0.5-0.1,0.3-0.7,0.4-1.1c0.1-0.9,0.5-1.5,1.6-1.4
			c0.6,0.1,1.2,0.1,1.7,0c1.4-0.1,2.5,0,2.2,1.9c-0.1,0.4,0.2,0.7,0.6,0.8c0.6,0.2,1.2,0.4,1.7,0.7c0.7,0.4,1.1,0.3,1.6-0.3
			c0.6-0.7,1.2-0.6,1.9-0.1c0.7,0.5,1.3,1.1,1.9,1.8c0.6,0.7,0.8,1.4,0,2.1c-1.3,1.2,0.2,2.2,0.3,3.3c0.1,0.9,0.8,0.9,1.4,0.8
			c0.9,0,1.2,0.4,1.2,1.2c0,0.7-0.1,1.5,0,2.2c0.1,1.4-0.4,2.2-1.8,2.1c-1,0-0.8,0.9-1.1,1.4c-0.6,0.9-0.7,1.6,0,2.7
			c1.1,1.8-1.2,2.4-2,3.5c-0.5,0.7-1.3,0.8-2,0.1c-0.5-0.4-0.9-1-1.6-0.4c-0.8,0.7-2.8,0.2-2.5,2.1c0,0.2,0,0.4-0.1,0.6
			c-1.2,1.4-2.8,0.5-4.2,0.7c-0.8,0.1-1-0.7-1.2-1.4c-0.3-1.8-2.6-2.8-4.1-1.6c-0.4,0.3-0.7,0.6-1.1,0.3c-0.9-0.8-1.9-1.5-2.7-2.4
			c-0.6-0.6-0.3-1.4,0.3-1.9c0.5-0.4,0.8-0.9,0.3-1.5c-0.7-0.8-0.2-2.5-2-2.4c-1.1,0-1.6-0.5-1.5-1.6c0-0.6,0-1.2,0-1.7
			c-0.1-1.4,0.2-2.2,1.9-2.2c1.1,0,2.2-2.8,1.5-3.7c-0.9-1.1-0.7-1.9,0.3-2.8c0.5-0.4,1-0.9,1.4-1.4
			C284.3,178.6,284.6,178.3,285.2,178.4z M286.4,189.6c-0.1,3.6,2.3,6.2,5.9,6.3c3.8,0.1,6.6-2.7,6.6-6.5c0-3.4-2.8-6-6.4-6.1
			C289.8,183.2,286.1,185.9,286.4,189.6z"/>
		<path class="st1" d="M187,139.8c-2.8,0-5.5,0-8.3,0c-0.6,0-1.2,0-1.3-0.8c0-0.8,0.6-0.8,1.2-0.8c5.5,0,11,0,16.5,0
			c0.6,0,1.1,0.1,1.1,0.8c0,0.7-0.4,0.9-1,0.9C192.5,139.8,189.7,139.8,187,139.8C187,139.8,187,139.8,187,139.8z"/>
		<path class="st11" d="M195.2,148.8c-3.6,0-7.2,0-10.9,0c-0.5,0-1.3,0.3-1.4-0.6c0-0.9,0.8-0.6,1.3-0.6c7.3,0,14.7,0,22,0
			c0.5,0,1.2-0.3,1.2,0.6c0,0.9-0.8,0.6-1.3,0.6C202.5,148.8,198.9,148.8,195.2,148.8z"/>
		<path class="st6" d="M205.8,120.7c10.5,0,21,0,31.5,0c1.9,0,3.8,0.2,5.3-1.2c-0.6,1.5-1.9,1.6-3.2,1.6c-10.6,0-21.1,0-31.7,0
			C207,121.1,206.3,121.2,205.8,120.7z"/>
		<path class="st11" d="M313.4,220.7c1.5,0,2.4,0.8,2.4,2.3c0,1.6-0.8,2.6-2.2,2.7c-1.3,0-2.7-1.2-2.7-2.5
			C310.8,221.9,312.1,220.7,313.4,220.7z"/>
		<path class="st11" d="M188.6,119.2c1.5,0,2.4,1,2.4,2.4c0,1.3-1.2,2.4-2.6,2.4c-1.2,0-2.4-1.2-2.4-2.6
			C186.1,120,187,119.2,188.6,119.2z"/>
		<path class="st11" d="M142.7,190.8c-1.5,0-2.4-1-2.4-2.5c0-1.2,1.3-2.4,2.5-2.4c1.3,0,2.5,1.3,2.5,2.7
			C145.1,190,144.1,190.9,142.7,190.8z"/>
		<path class="st12" d="M199.6,142.9c2.3,0,4.6,0,6.9,0c0.5,0,1-0.1,1,0.7c0,0.6-0.6,0.5-1,0.5c-4.7,0-9.5,0-14.2,0
			c-0.4,0-0.9,0.1-1-0.5c-0.1-0.7,0.5-0.7,1-0.7C194.8,142.9,197.2,142.9,199.6,142.9C199.6,142.9,199.6,142.9,199.6,142.9z"/>
		<path class="st12" d="M183.5,142.9c1.6,0,3.3,0,4.9,0c0.4,0,0.9,0,0.9,0.7c0,0.5-0.4,0.6-0.8,0.6c-3.4,0-6.7,0-10.1,0
			c-0.4,0-0.9,0-0.9-0.6c0-0.6,0.5-0.6,1-0.6C180.1,142.9,181.8,142.9,183.5,142.9z"/>
		<path class="st10" d="M165.8,135.5c0.1,0,0.2,0,0.3,0c0,13.9,0,27.7,0,41.6c0,0.2,0,0.5-0.1,0.7c-0.4-0.3-0.2-0.8-0.2-1.2
			C165.8,162.8,165.8,149.1,165.8,135.5z"/>
		<path class="st11" d="M202.9,139.5c-1.2,0-2.5,0-3.7,0c-0.4,0-0.8-0.1-0.8-0.6c0-0.5,0.4-0.6,0.8-0.6c2.5,0,5.1,0,7.6,0
			c0.4,0,0.8,0.1,0.8,0.6c0,0.5-0.4,0.6-0.8,0.6C205.5,139.5,204.2,139.5,202.9,139.5z"/>
		<path class="st10" d="M264.1,140.1c0.1,0,0.2,0,0.3,0c0,9.5,0,19.1,0,28.6c0,0.4,0.1,0.9-0.3,1.2c0-7.1,0-14.2-0.1-21.3
			C264.1,145.8,264.1,142.9,264.1,140.1z"/>
		<path class="st11" d="M179.2,148.8c-0.4,0-0.8,0-1.2,0c-0.5,0-0.6-0.4-0.6-0.8c0-0.4,0.2-0.6,0.6-0.6c0.6,0,1.3,0,1.9,0
			c0.5,0,1,0,1,0.7c0,0.7-0.5,0.7-1,0.7C179.7,148.8,179.4,148.8,179.2,148.8C179.2,148.8,179.2,148.8,179.2,148.8z"/>
		<path class="st13" d="M230.4,138.4c-1.6,0.3-3.3,0.4-4.9,0C227.2,138.2,228.8,138.2,230.4,138.4z"/>
		<path class="st6" d="M204.3,119.6c0.6,0.2,1.1,0.7,1.5,1.1C205,120.7,204.5,120.3,204.3,119.6z"/>
		<path class="st6" d="M203.8,118.6c0.4,0.2,0.5,0.6,0.5,1C203.9,119.4,203.8,119.1,203.8,118.6z"/>
		<path class="st1" d="M227.8,196c-0.1,0-0.3,0-0.4,0C227.5,195.8,227.6,195.8,227.8,196z"/>
		<path class="st6" d="M93.8,160.5c-0.4-4.6,1.6-8.2,5.2-10.8c4.9-3.5,9.7-2.7,14.6,0.2c3,1.8,5.8,4,8.6,6c1.4,1.4,2.8,2.9,4.6,4
			c1.3,1.4,2.8,2.5,4.5,3.4c1.2,1,2.5,1.8,4,2.3c0.8,0.5,1.7,0.9,2.7,0.9c3.5,0.1,5.9-2,6.7-6.1c1.9-2.1,3.8-1.9,5.7,0
			c0,0,0.1,0,0.1,0.1c-0.3,6.7-5.8,12.1-12.5,12c-3,0-5.5-1.7-8-3.1c-2.8-1.6-5.3-3.7-8-5.5c-1.5-1.4-3-2.8-4.8-3.8
			c-2.9-2.7-6.1-4.8-9.7-6.4c-1.7-0.7-3.4-0.3-5,0.6c-2.2,1.3-3,3.4-3.3,5.8c-1.9-1.8-3.7-1.4-5.4,0.3
			C93.9,160.5,93.8,160.5,93.8,160.5z"/>
		<path class="st12" d="M93.8,160.5c0,0,0.1,0,0.1-0.1c1.7-1.8,3.5-2.1,5.4-0.3c0.1,0.3,0.2,0.5,0.2,0.8c0.4,4,5,7.1,9.2,4.9
			c3.1-1.6,5.9-3.6,8.6-5.8c1.8,1.1,3.3,2.4,4.8,3.8c-2.9,2.3-5.8,4.6-9.1,6.4c-1.6,0.9-3.3,1.5-5,2.1c-1.4,0.2-2.8,0.2-4.3,0
			c-5.4-1.5-8.9-4.8-10-10.4C93.7,161.5,93.6,161,93.8,160.5z"/>
		<path class="st12" d="M150.6,160.5c0,0-0.1,0-0.1-0.1c-1.9-1.9-3.8-2-5.7,0c0.2-5-4.7-9.1-10.2-5.9c-2.7,1.6-5.3,3.3-7.7,5.3
			c-1.7-1.1-3.1-2.5-4.6-4c3.8-3.1,7.8-5.9,12.3-7.9c0.3,0,0.6,0,0.8-0.3c0,0,0,0.1,0,0.1c0.4-0.1,0.8,0,1.1-0.4c0,0,0,0.1,0,0.1
			c1.7-0.2,3.3,0,4.9,0.3c1.4,0.5,2.7,1.1,4,1.9c1.4,1.1,2.5,2.4,3.5,3.9C150,155.8,150.8,158,150.6,160.5z"/>
		<path class="st6" d="M92.7,141.2c-2.6,0-5.1,0-7.7,0c-0.4,0-1.1,0.2-1.2-0.5c0-0.7,0.7-0.6,1.1-0.6c5.2,0,10.3,0,15.5,0
			c0.4,0,1.2-0.2,1.1,0.5c0,0.6-0.7,0.5-1.2,0.5C97.8,141.1,95.3,141.1,92.7,141.2C92.7,141.1,92.7,141.1,92.7,141.2z"/>
		<path class="st5" d="M92.7,143.3c2.6,0,5.2,0,7.8,0c0.4,0,1-0.2,1,0.4c0,0.6-0.6,0.4-1,0.4c-5.2,0-10.4,0-15.6,0
			c-0.4,0-1,0.2-1-0.4c0-0.6,0.6-0.4,1-0.4C87.5,143.2,90.1,143.3,92.7,143.3z"/>
		<path class="st10" d="M141.4,147.8c-1.6-0.4-3.3-0.5-4.9-0.3C138.1,146.8,139.8,146.7,141.4,147.8z"/>
		<path class="st10" d="M103.8,172.4c1.4,0.2,2.8,0.3,4.3,0C107.1,173.1,104.7,173,103.8,172.4z"/>
		<path class="st10" d="M136.4,147.4c-0.3,0.4-0.7,0.3-1.1,0.4C135.5,147.3,136,147.4,136.4,147.4z"/>
		<path class="st10" d="M135.3,147.7c-0.2,0.3-0.5,0.3-0.8,0.3C134.7,147.6,135,147.7,135.3,147.7z"/>
		<path class="st14" d="M271.7,274.7c1.6-1.3,3.6-2,5.3-3.1c1.8-1.1,3-4.4,2.4-6.5c-0.8-2.7-1.8-5.4-2.7-8.1
			c-1.5-4.2-2.9-8.5-4.4-12.8c-0.6-1.7-1.3-3.5-2-5.2c-0.2-0.6-0.3-1-0.1-1.8c1.2,2.3,2.5,4.4,3.5,6.6c1.6,3.6,3.6,7,5.4,10.5
			c0.5,1,1.1,1.5,2.3,1.3c2.5,4.1,4.8,8.4,7,12.6c0.8,1.6,0.7,1.9-1,2.3C282.1,272.2,276.9,273.6,271.7,274.7z"/>
		<path class="st8" d="M196.8,291.9c2.1,0,4.3-0.1,6.4-0.1c0.7,0,1.3,0.1,2,0.1c25.2,0,50.3,0,75.5,0c0.3,0,0.7,0,1,0.1
			c-0.4,0.8-1.1,0.4-1.7,0.4c-25.1,0-50.2,0-75.4,0c-2.2,0-4.4,0-6.7,0C197.6,292.3,197.1,292.6,196.8,291.9z"/>
		<path class="st3" d="M77,292.3c0.4,0,0.8,0,1.2,0c0,0.4,0.1,1-0.3,1c-1.9,0.1-2.5,1.7-3.7,2.8c-0.6,0.5-1.3-0.2-2.1-0.1
			c-2,0.3-1.5-1.2-1.6-2.3c0-1.4,1-1.1,1.8-1.2c0.9-0.1,1.9,0.3,2.8-0.3c0.4,0,0.8,0,1.2,0C76.7,292.6,76.9,292.6,77,292.3z"/>
		<path class="st15" d="M308.1,147.4c-3.9,0-7.7,0-11.6,0c-0.5,0-1.2,0.3-1.2-0.6c0-0.9,0.8-0.5,1.2-0.5c7.7,0,15.4,0,23,0
			c0.2,0,0.4,0,0.6,0c0.4,0,0.8,0.2,0.7,0.7c0,0.5-0.4,0.5-0.8,0.5c-2,0-4,0-5.9,0C312.1,147.4,310.1,147.4,308.1,147.4
			C308.1,147.4,308.1,147.4,308.1,147.4z"/>
		<path class="st15" d="M284,154c-3.6,0-7.1,0-10.7,0c-0.5,0-1.3,0.4-1.3-0.6c0-0.8,0.8-0.5,1.3-0.5c7.2,0,14.5,0,21.7,0
			c0.1,0,0.3,0,0.4,0c0.4,0,1-0.1,0.9,0.6c0,0.7-0.6,0.5-1,0.5C291.6,154,287.8,154,284,154z"/>
		<path class="st2" d="M303.8,157.2c-3.5,0-7.1,0-10.6,0c-0.5,0-1.2,0.3-1.2-0.6c0-0.8,0.8-0.6,1.2-0.6c4,0,8.1-0.3,12,0.1
			c3.2,0.3,6.3-0.6,9.5,0.2c0.3,0.1,0.9-0.1,0.9,0.4c0,0.5-0.6,0.4-0.9,0.4C311.1,157.2,307.5,157.2,303.8,157.2z"/>
		<path class="st9" d="M276.3,166.2c0.3-0.4,0.8-0.3,1.2-0.3c4.9,0,9.8,0,14.8,0c0.3,0,0.6,0,0.9,0.1c0.3,0.1,0.5,0.3,0.5,0.6
			c0,0.4-0.2,0.7-0.5,0.7c-0.4,0.1-0.8,0.1-1.2,0.1c-4.2,0-8.5,0-12.7,0c-0.6,0-1.2-0.1-1.8,0C276.5,167.4,276.2,167,276.3,166.2z"
			/>
		<path class="st2" d="M282.4,163.9c-3.1,0-6.2,0-9.3,0c-0.4,0-1.1,0.2-1.1-0.5c0-0.8,0.6-0.6,1.1-0.6c6.2,0,12.5,0,18.7,0
			c0.5,0,1.3-0.2,1.2,0.6c-0.1,0.7-0.8,0.5-1.3,0.5C288.6,163.9,285.5,163.9,282.4,163.9z"/>
		<path class="st15" d="M306.7,152.9c2.7,0,5.3,0,8,0c0.4,0,1-0.2,1,0.5c0.1,0.8-0.6,0.6-1,0.6c-5.3,0-10.6,0-15.9,0
			c-0.4,0-1,0.1-1-0.5c-0.1-0.8,0.6-0.6,1-0.6C301.4,152.9,304.1,152.9,306.7,152.9C306.7,152.9,306.7,152.9,306.7,152.9z"/>
		<path class="st9" d="M284.7,147.4c-2.5,0-4.9,0-7.4,0c-0.5,0-1.1,0.1-1-0.6c0-0.6,0.6-0.5,1-0.5c5,0,10,0,15,0
			c0.5,0,1.1-0.1,1,0.6c-0.1,0.7-0.7,0.5-1.1,0.5C289.7,147.4,287.2,147.4,284.7,147.4z"/>
		<path class="st9" d="M312.4,150.8c-2.4,0-4.7,0-7.1,0c-0.5,0-1.2,0.2-1.1-0.7c0-0.8,0.6-0.6,1.2-0.6c4.8,0,9.5,0,14.3,0
			c0.6,0,1.2-0.1,1.3,0.5c0.1,0.8-0.7,0.8-1.2,0.8C317.2,150.8,314.8,150.8,312.4,150.8z"/>
		<path class="st15" d="M301.5,160.6c-2.4,0-4.7,0-7.1,0c-0.5,0-1.1,0.1-1-0.6c0-0.7,0.6-0.5,1-0.5c4.7,0,9.5,0,14.2,0
			c0.4,0,1-0.2,1,0.5c0.1,0.8-0.6,0.6-1,0.6C306.3,160.6,303.9,160.6,301.5,160.6z"/>
		<path class="st9" d="M278.2,157.5c-1.8,0-3.6,0-5.4,0c-0.5,0-1.2,0-1.1-0.8c0-0.6,0.6-0.6,1.1-0.7c3.5,0,7.1,0,10.6,0
			c0.7,0,1.1,0.3,1.1,1c0,0.8-0.7,0.5-1.1,0.5C281.7,157.5,280,157.5,278.2,157.5C278.2,157.5,278.2,157.5,278.2,157.5z"/>
		<path class="st2" d="M281.4,144.1c-2.8,0-5.5,0-8.3,0c-0.4,0-1,0.2-1-0.4c0-0.5,0.5-0.5,0.9-0.6c0.3-0.1,0.7-0.1,1-0.1
			c3.8,0,7.7,0,11.5,0c0.5,0,1.2-0.3,1.2,0.6c0,0.8-0.8,0.5-1.2,0.6C284.1,144.2,282.7,144.1,281.4,144.1z"/>
		<path class="st15" d="M295.7,150.8c-2,0-4,0-5.9,0c-0.4,0-0.9,0.1-1-0.6c0-0.7,0.5-0.8,1-0.7c4,0.3,8,0.1,12,0.2
			c0.4,0,1-0.2,1,0.5c0,0.7-0.6,0.6-1,0.7C299.8,150.8,297.7,150.8,295.7,150.8z"/>
		<path class="st15" d="M311.4,167.1c-2.7,0-5.4,0-8.1,0c-0.4,0-1,0.2-1.1-0.4c-0.1-0.8,0.6-0.6,1.1-0.6c5.4,0,10.8,0,16.2,0
			c0.4,0,1.1-0.2,1.1,0.5c0,0.7-0.7,0.5-1.1,0.5C316.8,167.1,314.1,167.1,311.4,167.1z"/>
		<path class="st2" d="M276.3,166.2c-0.1,0.8,0.2,1.2,1.1,1.2c0.6-0.1,1.2,0,1.8,0c0.1,0.8,0.6,0.9,1.2,0.9c0.3,0,0.6,0,0.6,0.4
			c0,0.2-0.3,0.4-0.5,0.4c-0.8,0-1.1,0.2-0.8,1.1c0.1,0.5-0.2,0.7-0.7,0.7c-1.6,0-3.1,0-4.8,0c0.6-0.9,1.4-0.1,2.1-0.4
			c-0.2-0.6-1.1-1.1-0.1-1.8c0.5-0.4-0.2-0.7-0.6-0.7l0,0C275.8,167.3,275.5,166.6,276.3,166.2z"/>
		<path class="st9" d="M300.5,163.9c-1.4,0-2.9,0-4.3,0c-0.4,0-1,0.1-1-0.5c0-0.5,0.4-0.6,0.8-0.6c3.1,0,6.2,0,9.3,0
			c0.4,0,0.8,0.1,0.8,0.7c-0.1,0.5-0.5,0.5-0.9,0.5C303.6,163.9,302.1,163.9,300.5,163.9z"/>
		<path class="st15" d="M300.6,143c1.4,0,2.9,0,4.3,0c0.4,0,0.9,0,0.9,0.6c0,0.6-0.5,0.5-0.9,0.5c-2.9,0-5.9,0-8.8,0
			c-0.5,0-0.9-0.1-0.9-0.7c0-0.6,0.5-0.5,0.9-0.5C297.6,143,299.1,143,300.6,143z"/>
		<path class="st15" d="M276.6,150.8c-1.2,0-2.4,0-3.6,0c-0.4,0-0.9,0.1-1-0.5c0-0.7,0.5-0.6,0.9-0.6c2.5,0,4.9,0,7.4,0
			c0.4,0,1-0.1,0.9,0.6c0,0.7-0.6,0.5-1,0.5C279,150.8,277.8,150.8,276.6,150.8z"/>
		<path class="st9" d="M316.3,159.5c1.2,0,2.4,0,3.6,0c0.4,0,1-0.2,1,0.5c0,0.6-0.4,0.7-0.9,0.7c-2.5,0-4.9,0-7.4,0
			c-0.5,0-0.9-0.2-0.9-0.7c0-0.5,0.5-0.5,0.9-0.5C313.9,159.5,315.1,159.5,316.3,159.5z"/>
		<path class="st15" d="M310.5,143c0.8,0,1.5,0,2.3,0c0.4,0,0.8,0,0.8,0.6c0,0.4-0.3,0.6-0.7,0.6c-1.7,0-3.4,0-5,0
			c-0.5,0-0.8-0.2-0.7-0.7c0-0.5,0.4-0.4,0.8-0.4C308.8,143,309.6,143,310.5,143z"/>
		<path class="st15" d="M288,160.6c-0.9,0-1.7,0-2.6,0c-0.4,0-0.7-0.1-0.7-0.5c0-0.5,0.3-0.6,0.7-0.6c1.7,0,3.4,0,5.1,0
			c0.4,0,0.6,0.2,0.6,0.6c0,0.5-0.4,0.5-0.7,0.5C289.5,160.6,288.8,160.6,288,160.6C288,160.6,288,160.6,288,160.6z"/>
		<path class="st15" d="M275.1,160.6c-0.9,0-1.7,0-2.6,0c-0.4,0-0.6-0.2-0.6-0.6c0-0.4,0.3-0.5,0.6-0.5c1.7,0,3.4,0,5.2,0
			c0.3,0,0.6,0.1,0.6,0.5c0,0.4-0.2,0.6-0.6,0.6C276.9,160.6,276,160.6,275.1,160.6C275.1,160.6,275.1,160.6,275.1,160.6z"/>
		<path class="st15" d="M284.6,150.8c-0.5,0-1.1,0-1.6,0c-0.4,0-0.8-0.2-0.7-0.7c0-0.5,0.4-0.5,0.7-0.5c1.1,0,2.1,0,3.2,0
			c0.3,0,0.7,0,0.7,0.5c0,0.5-0.3,0.7-0.7,0.7C285.6,150.8,285.1,150.8,284.6,150.8z"/>
		<path class="st5" d="M290.7,144.1c-0.4,0-0.8,0-1.1,0c-0.4,0-1.1,0.2-1-0.6c0-0.7,0.6-0.5,1-0.5c0.9,0,1.7,0,2.6,0
			c0.4,0,1-0.1,1,0.5c0,0.8-0.6,0.6-1,0.6C291.6,144.1,291.2,144.1,290.7,144.1z"/>
		<path class="st15" d="M319.1,156.1c0.3,0,0.6,0,0.9,0c0.5,0,0.9,0.1,0.8,0.7c0,0.5-0.4,0.6-0.8,0.6c-0.5,0-1,0-1.4,0
			c-0.5,0-1,0-1-0.7c0-0.8,0.6-0.6,1-0.6C318.8,156.1,319,156.1,319.1,156.1z"/>
		<path class="st15" d="M273.2,167.3c-0.2,0-0.7,0-1.1-0.2c-0.3-0.2-0.3-0.6-0.1-0.9c0.3-0.4,2.6-0.4,2.8,0c0.2,0.3,0.2,0.7-0.1,0.9
			C274.4,167.4,273.9,167.2,273.2,167.3z"/>
		<path class="st15" d="M308.9,162.6c0.6,0.4,1.8-0.4,1.8,0.7c0,1-1.1,0.5-1.8,0.5c-0.6,0-1.6,0.4-1.7-0.5
			C307.2,162.2,308.4,163.1,308.9,162.6z"/>
		<path class="st15" d="M287.8,156.1c0.3,0,0.7,0,1,0c0.4,0,0.7,0.1,0.7,0.5c0,0.6-0.4,0.6-0.8,0.6c-0.5,0-1.1,0-1.6,0
			c-0.4,0-1,0.2-1-0.5c0-0.8,0.6-0.6,1-0.6C287.4,156.1,287.6,156.1,287.8,156.1z"/>
		<path class="st15" d="M281.7,159.5c0.4,0.3,1.5-0.5,1.5,0.6c0,1-1,0.4-1.6,0.6c-0.2,0-0.4,0-0.6,0c-0.4,0-1,0.1-1-0.5
			c-0.1-0.7,0.6-0.6,1-0.6C281.2,159.5,281.4,159.5,281.7,159.5z"/>
		<path class="st15" d="M273.4,146.2c0.4,0,0.8,0,1.1,0c0.3,0,0.5,0.2,0.5,0.6c0,0.3-0.2,0.5-0.5,0.6c-0.3,0-0.7,0.1-1,0
			c-0.6-0.1-1.6,0.5-1.5-0.6C272.1,145.8,273,146.4,273.4,146.2z"/>
		<path class="st15" d="M298.1,167.1c-0.4,0-0.7,0-1-0.1c-0.3,0-0.4-0.2-0.4-0.5c0-0.3,0.2-0.4,0.5-0.4c0.3,0,0.7-0.1,1,0
			c0.5,0.1,1.4-0.4,1.4,0.5C299.4,167.5,298.5,167,298.1,167.1z"/>
		<path class="st15" d="M269.2,156.1c0.4,0,0.7,0.1,0.7,0.5c0,0.5-0.2,0.7-0.7,0.7c-0.5,0-0.7-0.2-0.7-0.7
			C268.5,156.2,268.8,156.1,269.2,156.1z"/>
		<path class="st15" d="M269.1,167.3c-0.4,0-0.6-0.1-0.7-0.5c0-0.5,0.2-0.7,0.7-0.7c0.4,0,0.6,0.2,0.7,0.6
			C269.9,167.1,269.6,167.2,269.1,167.3z"/>
		<path class="st15" d="M269.9,160c0,0.4-0.2,0.6-0.6,0.6c-0.3,0-0.7,0-0.7-0.5c0-0.5,0.2-0.7,0.7-0.7
			C269.6,159.5,269.8,159.6,269.9,160z"/>
		<path class="st15" d="M269.2,143c0.4,0,0.6,0.1,0.6,0.6c0,0.5-0.4,0.6-0.8,0.5c-0.4,0-0.6-0.2-0.6-0.6
			C268.5,143,268.9,143,269.2,143z"/>
		<path class="st15" d="M269.2,147.4c-0.4,0-0.7-0.1-0.7-0.5c0-0.4,0.2-0.6,0.6-0.6c0.4,0,0.8,0.1,0.7,0.6
			C269.8,147.3,269.5,147.4,269.2,147.4z"/>
		<path class="st15" d="M269.9,163.3c0,0.4-0.3,0.6-0.7,0.5c-0.4,0-0.7-0.1-0.7-0.5c0-0.5,0.3-0.6,0.7-0.6
			C269.6,162.8,269.9,162.9,269.9,163.3z"/>
		<path class="st15" d="M269.8,153.2c0,0.6-0.2,0.8-0.6,0.8c-0.4,0-0.8,0-0.8-0.6c0-0.4,0.3-0.5,0.7-0.5
			C269.5,152.9,269.8,152.9,269.8,153.2z"/>
		<path class="st15" d="M268.5,150.2c0-0.4,0.2-0.6,0.6-0.6c0.4,0,0.8,0.1,0.7,0.6c0,0.4-0.3,0.5-0.7,0.5
			C268.8,150.7,268.5,150.7,268.5,150.2z"/>
		<path class="st2" d="M275.7,167.9c-0.1,0.6-0.4,1-1,0.7c-0.2-0.1-0.4-0.3-0.3-0.6C274.7,167.4,275.2,167.7,275.7,167.9
			C275.7,167.9,275.7,167.9,275.7,167.9z"/>
		<path class="st12" d="M231,102.9c0,0.4-0.1,1.1-0.2,1.9c-0.1,0.5,0,1,0.6,1.4c1,0.6,1.1,1.6,0,2.2c-0.6,0.4-0.7,0.9-0.6,1.5
			c0.1,0.9,0.2,1.8,0.2,2.7c0,1.7-1.1,2.7-2.8,2.6c-0.4,0-1,0.1-0.9-0.6c0-0.5-0.4-1.3,0.5-1.4c0.8-0.1,0.8-0.6,0.8-1.3
			c0-1.5-0.9-3.2,0.6-4.5c0.1,0,0-0.3-0.1-0.4c-1.2-1-0.7-2.4-0.7-3.7c0.1-0.9,0.5-1.8-1-2.1c-0.6-0.1-0.3-0.9-0.3-1.4
			c0-0.6,0.5-0.5,0.8-0.5C230.1,99.3,231.1,100.4,231,102.9z"/>
		<path class="st12" d="M215.7,112c0.1-0.5,0.2-1.2,0.2-1.9c0.1-0.8,0.2-1.5-0.8-1.9c-0.7-0.3-0.7-1.7,0-2c0.9-0.4,0.9-1,0.8-1.8
			c-0.1-0.8-0.2-1.6-0.3-2.4c0-1.6,0.8-2.5,2.4-2.7c0.5,0,1.2-0.4,1.3,0.5c0.1,0.6,0.4,1.4-0.7,1.6c-0.8,0.1-0.5,0.9-0.6,1.4
			c-0.1,1.4,0.8,3-0.7,4.2c-0.2,0.1-0.1,0.3,0,0.4c1.3,1.1,0.7,2.6,0.7,3.9c0,0.8-0.3,1.6,1,1.9c0.6,0.1,0.3,0.9,0.3,1.4
			c0,0.5-0.5,0.5-0.9,0.5C216.8,115.2,215.7,114.1,215.7,112z"/>
		<path class="st11" d="M91.4,131.3c0.6,0,1,0.3,1,1c0,0.6-0.4,0.9-0.9,0.9c-0.6,0-1-0.3-1-1C90.5,131.7,90.8,131.3,91.4,131.3z"/>
		<path class="st12" d="M87.3,131.3c0.6,0.1,1,0.4,0.9,0.9c0,0.6-0.4,1-1,0.9c-0.5-0.1-0.9-0.4-0.8-1
			C86.4,131.6,86.8,131.3,87.3,131.3z"/>
		<path class="st12" d="M84.1,132.3c-0.1,0.5-0.4,0.9-1,0.8c-0.6,0-0.9-0.4-0.8-1c0-0.6,0.4-0.9,1-0.8
			C83.8,131.4,84.1,131.7,84.1,132.3z"/>
		<path class="st14" d="M200.3,246.2c0.7,0.3,0.5-0.3,0.6-0.6c0.1-1.5-0.3-2.9-0.3-4.3c0-4.1-0.1-8.1,0-12.2
			c0.1-3.5,0.8-6.9,1.2-10.3c0-0.3,0.2-0.5,0.4-1c0.2,2.3-0.1,4.3-0.2,6.3c0,4.8,0,9.7,0.3,14.5c0.2,3.9,0.3,7.8,0.6,11.7
			c0.2,2.8,0.4,5.5,0.4,8.3c-0.2-0.1-0.4-0.2-0.5-0.3C201.9,254.4,201,250.3,200.3,246.2z"/>
		<path class="st1" d="M202.9,258.4c0.2,0.1,0.4,0.2,0.5,0.3c0.4,1.3,0.3,2.5,0.3,3.8C203.2,261.2,203,259.8,202.9,258.4z"/>
		<path class="st11" d="M267.4,137.7c0,0.5-0.3,0.8-0.7,0.8c-0.4,0-0.7-0.3-0.7-0.7c0-0.4,0.3-0.6,0.6-0.6
			C267.1,137.1,267.3,137.3,267.4,137.7z"/>
		<path class="st11" d="M270.3,137.8c-0.1,0.4-0.3,0.7-0.7,0.7c-0.4,0-0.7-0.3-0.7-0.7c0-0.4,0.3-0.6,0.6-0.6
			C270,137.1,270.2,137.3,270.3,137.8z"/>
		<path class="st12" d="M273.2,137.8c-0.1,0.4-0.3,0.7-0.7,0.6c-0.4,0-0.6-0.3-0.6-0.7c0-0.4,0.3-0.6,0.7-0.6
			C273,137.2,273.2,137.5,273.2,137.8z"/>
		<path class="st2" d="M101.4,284.2c0,0.3,0,0.6,0,0.9C101,284.8,101,284.5,101.4,284.2z"/>
		<path class="st2" d="M102,282.2c0,0.3,0.1,0.7-0.3,0.9C101.7,282.8,101.6,282.4,102,282.2z"/>
		<path class="st2" d="M101.7,283.4c0,0.3,0.1,0.6-0.3,0.9C101.4,283.9,101.4,283.6,101.7,283.4z"/>
		<path class="st2" d="M77,292.3c-0.2,0.3-0.4,0.3-0.6,0C76.7,292.3,76.9,292.3,77,292.3z"/>
		<path class="st7" d="M235.3,171.2c-0.1,1.1-0.3,2.2-1.6,2.1c-1.2-0.1-1.5-1.1-1.4-2.2c0-1,0.3-2.1,1.6-2
			C235,169.2,235.2,170.3,235.3,171.2z"/>
		<path class="st7" d="M218.8,170.5c0.1-1,0.1-2.2,1.3-2.2c1.3,0,1.4,1.2,1.4,2.1c0,0.9-0.2,2-1.3,2
			C219,172.5,218.8,171.4,218.8,170.5z"/>
		<path class="st8" d="M225.4,178.9c-2.2-0.1-2.9-1.4-1.8-3.3c0.8-1.3,1.6-2.5,2.3-3.8c0.1-0.2,0.3-0.6,0.6-0.4
			c0.5,0.2,0.1,0.6,0,0.8c-0.7,1.2-1.4,2.3-2.1,3.4c-1.1,1.6-0.9,2.1,1,2.5c0.3,0.1,0.8-0.1,0.7,0.5
			C226,179,225.6,178.9,225.4,178.9z"/>
		<path class="st12" d="M222.4,183.3c-0.4-0.3-0.8-0.6,0.1-0.6c2.8,0,5.5,0,8.3,0c-0.1,0.7-0.6,0.8-1,0.9
			C227.3,184,224.8,184,222.4,183.3z"/>
		<path class="st7" d="M222.4,183.3c2.4,0.7,4.9,0.7,7.4,0.3C227.3,185.6,224,186.1,222.4,183.3z"/>
		<path class="st8" d="M231.2,164.4c1.3,0.2,2.6,0.3,3.9,0.5c0.3,0,0.9-0.1,0.8,0.5c-0.1,0.4-0.5,0.3-0.8,0.2
			c-1.3-0.1-2.6-0.3-3.9-0.4c-0.3,0-0.9,0.1-0.8-0.5C230.5,164.2,230.9,164.5,231.2,164.4z"/>
		<path class="st8" d="M222,164.5c-1.4,0.5-2.8,0.3-4.2,0.3c-0.2,0-0.4-0.1-0.3-0.3c0-0.1,0.2-0.3,0.2-0.3
			C219.1,164.2,220.6,164,222,164.5z"/>
		<path class="st1" d="M215.4,160.6c-0.1,0-0.1,0-0.2,0.1c0,0,0,0,0,0C215.4,160.6,215.4,160.6,215.4,160.6
			C215.4,160.6,215.4,160.6,215.4,160.6z"/>
		<path class="st0" d="M191.6,172.6c3.6,0,6.4,2.7,6.4,6.1c0,3.5-2.9,6.4-6.3,6.4c-3.6,0-6.5-2.9-6.5-6.4
			C185.2,175.2,188,172.6,191.6,172.6z"/>
		<path class="st0" d="M286.4,189.6c-0.3-3.7,3.4-6.4,6.1-6.3c3.6,0.1,6.4,2.7,6.4,6.1c0,3.9-2.7,6.7-6.6,6.5
			C288.7,195.8,286.3,193.2,286.4,189.6z"/>
		<path class="st7" d="M117.4,160.1c-2.7,2.2-5.5,4.1-8.6,5.8c-4.2,2.2-8.8-0.9-9.2-4.9c0-0.3-0.1-0.6-0.2-0.8
			c0.3-2.4,1.1-4.5,3.3-5.8c1.6-0.9,3.3-1.3,5-0.6C111.3,155.3,114.5,157.4,117.4,160.1z"/>
		<g>
			<path class="st2" d="M165.8,176.5c0-13.7,0-27.4,0-41.1c-9.7,0-19.3,0-29,0c-19.1,0-38.1,0-57.2,0c0,13.6,0,27.1,0,40.7
				c0,0.6,0.2,1.2-0.2,1.7c0.2,1.5,1.2,1.8,2.5,1.8c7.7,0,15.3,0,23,0c3.7,0,7.3,0,11,0c15.8,0,31.7,0,47.5,0c1.3,0,2.4-0.2,2.6-1.8
				C165.7,177.4,165.8,176.9,165.8,176.5z M85,140.1c5.2,0,10.3,0,15.5,0c0.4,0,1.2-0.2,1.1,0.5c0,0.6-0.7,0.5-1.2,0.5
				c-2.6,0-5.1,0-7.7,0c0,0,0,0,0,0c-2.6,0-5.1,0-7.7,0c-0.4,0-1.1,0.2-1.2-0.5C83.8,139.9,84.5,140.1,85,140.1z M83.9,143.7
				c0-0.6,0.6-0.4,1-0.4c2.6,0,5.2,0,7.8,0c2.6,0,5.2,0,7.8,0c0.4,0,1-0.2,1,0.4c0,0.6-0.6,0.4-1,0.4c-5.2,0-10.4,0-15.6,0
				C84.5,144.1,83.9,144.3,83.9,143.7z M150.6,160.5c-0.3,6.7-5.8,12.1-12.5,12c-3,0-5.5-1.7-8-3.1c-2.8-1.6-5.3-3.7-8-5.5
				c-2.9,2.3-5.8,4.6-9.1,6.4c-1.6,0.9-3.3,1.5-5,2.1c-1,0.6-3.4,0.6-4.3,0c-5.4-1.5-8.9-4.8-10-10.4c-0.1-0.5-0.2-0.9,0-1.4
				c-0.4-4.6,1.6-8.2,5.2-10.8c4.9-3.5,9.7-2.7,14.6,0.2c3,1.8,5.8,4,8.6,6c3.8-3.1,7.8-5.9,12.3-7.9c0.1-0.4,0.4-0.3,0.8-0.3l0,0.1
				c0.2-0.5,0.7-0.4,1.1-0.4l0,0.1c1.7-0.7,3.4-0.8,4.9,0.3c1.4,0.5,2.7,1.1,4,1.9c1.4,1.1,2.5,2.4,3.5,3.9
				C150,155.8,150.8,158,150.6,160.5z"/>
			<path class="st2" d="M134.5,154.6c-2.7,1.6-5.3,3.3-7.7,5.3c1.3,1.4,2.8,2.5,4.5,3.4c1.2,1,2.5,1.8,4,2.3
				c0.8,0.5,1.7,0.9,2.7,0.9c3.5,0.1,5.9-2,6.7-6.1C144.9,155.5,140,151.4,134.5,154.6z"/>
		</g>
	</g>
</g>
</svg>
