<?xml version="1.0" encoding="utf-8"?>
<!-- Generator: Adobe Illustrator 21.0.0, SVG Export Plug-In . SVG Version: 6.00 Build 0)  -->
<svg version="1.1" id="Calque_1" xmlns="http://www.w3.org/2000/svg" xmlns:xlink="http://www.w3.org/1999/xlink" x="0px" y="0px"
	 viewBox="0 0 1920 1080" style="enable-background:new 0 0 1920 1080;" xml:space="preserve">
<style type="text/css">
	.st0{fill:#91BDF7;}
	.st1{fill:#13295A;}
	.st2{fill:#FEC8BE;}
	.st3{fill:#172C5C;}
	.st4{fill:#122A5B;}
	.st5{fill:#F84C01;}
	.st6{fill:#4C5FA9;}
	.st7{fill:#F34D05;}
	.st8{fill:#222340;}
	.st9{fill:#444444;}
	.st10{fill:#181415;}
	.st11{fill:#CBE4FB;}
	.st12{fill:#FEFEFE;}
	.st13{fill:#010101;}
	.st14{fill:#CB4202;}
	.st15{fill:#5A74BC;}
</style>
<g id="jGi3k4_1_">
	<g>
		<path class="st0" d="M774.8,310.7c3.1-4.7,8.2-7.1,12.6-10.2c34-23.2,70.6-41,110.1-52.7c26.4-7.9,53.4-13.2,81-15.3
			c0.3,0,0.6,0.2,0.9,0.3c0.1,12.4,0.2,24.8,0.3,37.2c0,2.1-0.6,4.4,1.2,6.1l0-0.1c0,1.5,0.4,2.7,1.9,3.3l-0.1-0.1
			c0.8,2.6,2.6,3.8,5.3,3.9l-0.1,0c1.9,1.9,4.3,1.4,6.6,1.4c36.4,0,72.8,0,109.2,0c4.6,0,9-0.5,11.2-5.6l0.1-0.1
			c2.7-2.1,2.5-5.2,2.6-8.1c0.3-8.3-0.6-16.5,0.5-24.8c10.8,1.4,20.8,5.6,30.9,9.3c31.8,11.7,61.7,27.1,89.6,46.5
			c14.2,9.9,27.6,20.8,40.6,32.1c-1.5,0-3,0.1-4.5,0.1c-26.1,0-52.3,0-78.4,0c-6.6,0-7.4,0.9-7.4,7.6c0,2.8,0.1,5.7,0.1,8.5
			c0,9.8-0.1,19.6-0.1,29.5c0,24.5,0.1,49,0.2,73.4c0.6,4.9,4.3,4.2,7.6,4.2c54,0,108,0,162.1,0c4.1,0,8.3-0.1,12.4-0.2
			c0.4,0.1,0.7,0.2,1.1,0.3c-0.4,3.8,2,6.6,3.4,9.7c15.8,34.9,25.8,71.6,31,109.4c3.1,22.4,4.1,45.1,3.2,67.7
			c-1.5,36.9-7.7,73-19.2,108c-7.7,23.6-17.2,46.5-29.7,68c-1.7-2.5-1.7-5.4-1.8-8.1c-0.6-15.5-4.9-30.3-9-45.1
			c-5.1-18.8-10.7-37.6-17.1-56c1.5-1.1,2-2.4,1-4.3c-1.2-2.4-2-4.9-3-7.4c-12.5-29.8-25.8-59.2-43.8-86.1
			c-23.1-34.3-54.5-56.9-95.4-65.4c-15.7-3.2-31.8-2.8-47.6-5c-2.4-16.1-4.7-32.2-7.1-48.3c-0.3-1.9,0.1-3.6,0.8-5.3
			c0.4-0.3,0.9-0.5,1.2-0.8c15.7-25.2,23.6-52.4,19.9-82.1c-2.1-17-9.4-31.5-24-41.4c-18.7-12.7-39.9-18.2-62-20.8
			c-5.6-0.6-11.2-0.5-16.8-0.1c-6.4,0-12.4,1.9-18.4,3.9c-8.6,2.9-14.4,8.6-17.5,17.1c-2.9,8.3-5.9,16.6-8.6,24.9
			c-5.5,16.7-1,31,10.5,43.6c1.2,3.1,2.6,6.1,2.9,9.4c0.7,8.6,1.4,17.2,1.1,25.9c-0.6,17.8,2.8,34.4,12.4,49.8
			c6.9,11.2,14.8,19.5,29.1,18.5c1.6-0.1,3.5-0.4,4.2,1.7c0.7,2.1-1.6,2.2-2.3,3.4c-1.9,0.2-3.7,0.3-5.6,0.5c-0.5-0.7-1-0.6-1.4,0.2
			c-6.6,0.8-13.2,1.5-19.8,2.4c-16.3,2.2-31.3,7.4-44.3,17.7c-10.4,8.2-19.3,17.8-27.3,28.3c-8,10.5-14.2,22-20.9,33.3
			c-4.6-21.8-9.6-43.4-13.6-65.3c-2.6-14.3-12.7-19.6-28.3-16.5c-8.4-1.4-16.9-0.7-25.4-0.7c-84.1-0.1-168.2,0-252.4,0
			c-6.8,0-6.8,0-5.1-6.8c3.7-14.7,7.7-29.2,13.1-43.4c0.7-1.8,1.7-3.7,1.5-5.7c12.7,0,25.3-0.1,38-0.1c54.6,0,109.2,0,163.8,0
			c4.5,0,8.4-0.7,9.1-6.2c0.1-0.8,0.2-1.7,0.2-2.5c0-47.8,0-95.6,0-143.3c1.4-5.1,0.9-10.2,0.4-15.3c-0.5-5.7-3.1-7.6-9-7.7
			c-16.9,0-33.9,0.1-50.8,0C786.1,311.1,780.4,311.7,774.8,310.7z M977.9,456.9c-0.5-1-0.8-2.2-1.6-3c-2.3-2.4-4.6-4.8-7-7.1
			c-2.3-2.1-4.6-2.6-6.8,0.2c-1.6,2.1-3.5,2-5.7,0.8c-1.6-0.9-3.3-1.5-5.1-1.9c-2-0.5-2.8-1.7-2.6-3.6c0.5-5.2-2.3-6.8-7-6.4
			c-2.1,0.2-4.3,0.1-6.5,0c-3.7-0.1-5.8,1.5-5.5,5.3c0.2,2.4-0.8,3.6-3.1,4.3c-1.9,0.5-3.8,1.3-5.5,2.3c-1.9,1-3.3,1-4.8-0.7
			c-3.1-3.5-6-2.7-8.8,0.5c-1.4,1.6-3,3.2-4.6,4.6c-2.6,2.3-2.8,4.4-0.7,7.3c3.7,5.2-0.4,13.8-6.9,14.4c-3.2,0.3-4.2,2.1-3.6,4.7
			c1.1,4.4-3.2,10,2.8,13.4c0.3,0.1,0.7,0.1,1,0.1c4.8-1,5.3,3,6.5,5.8c1.3,3,3,6.1-0.6,9c-3.5,2.8-0.9,5.7,1,7
			c3.7,2.5,5.4,8.7,11.6,6.6c0.7-0.2,1.1-1.2,1.6-1.9c1.1-1.4,2.4-1.4,3.9-0.6c2.4,1.2,4.6,2.7,7.3,3.1c1.2,0.2,1.8,1,1.7,2.1
			c-0.9,7.2,3.7,7.3,8.8,6.9c1.8-0.1,3.7-0.1,5.5,0c3.2,0.2,4.4-1.3,4.8-4.3c0.7-5.8,9.4-9,14-5.2c1.8,1.5,3.6,2.1,5.3,0.5
			c3-2.8,5.9-5.8,8.8-8.8c1.1-1.2,1.1-2.8,0.2-4.2c-1.4-2-4.4-3.3-2.2-6.7c1.4-2.2,2-4.9,3.1-7.3c0.5-1.1,1.6-1.1,2.6-1
			c5,0.4,6.5-2.3,6.1-6.7c-0.2-2.2-0.2-4.3,0-6.5c0.3-3.6-1.5-5.6-4.8-5.6c-3.2,0-4.2-1.5-5.2-4.1c-1.5-4-3.7-7.8,0.9-11.3
			C977.4,458.5,977.5,457.7,977.9,456.9z M1261.7,482.1c-2-0.2-3,0.7-3.9,1.6c-1.7,1.6-3.2,3.5-5,4.9c-3.7,2.9-4.4,5.6-1.2,9.5
			c2.5,3-1.6,12.8-5.2,12.7c-5.8-0.2-6.7,2.9-6.4,7.6c0.1,2,0.1,4,0,6c-0.1,3.7,1.4,5.7,5.3,5.5c6.1-0.3,4.4,5.8,6.8,8.4
			c1.8,2,0.5,3.7-1.2,5.1c-2.2,1.9-3,4.4-1,6.6c2.8,3,6,5.7,9.2,8.3c1.4,1.2,2.7,0,3.9-1c4.9-3.9,13-0.7,14,5.6
			c0.4,2.4,1.1,5.1,4,4.8c4.9-0.5,10.4,2.5,14.5-2.3c0.4-0.4,0.5-1.3,0.4-1.9c-0.8-6.8,5.9-4.8,8.8-7.4c2.2-2,3.8-0.1,5.4,1.4
			c2.4,2.2,5.1,2.2,6.9-0.4c2.7-3.8,10.6-5.9,6.8-12c-2.5-4-2.3-6.2-0.1-9.4c1.2-1.8,0.5-4.9,3.9-4.8c5.1,0.1,6.8-2.5,6.3-7.3
			c-0.3-2.5-0.1-5,0-7.5c0.1-2.9-1.2-4.3-4.2-4.2c-2.2,0.1-4.7,0.1-4.9-2.9c-0.3-3.8-5.6-7.2-1.1-11.3c2.9-2.6,2.2-4.9,0-7.3
			c-2.1-2.2-4.1-4.3-6.6-6.1c-2.5-1.7-4.5-2.1-6.5,0.3c-1.7,2.1-3.3,2.2-5.6,0.9c-1.8-1.1-3.9-2-5.9-2.5c-1.6-0.5-2.4-1.2-2.2-2.8
			c1-6.3-2.8-6.8-7.6-6.4c-2,0.2-4,0.2-6,0c-3.8-0.5-5,1.7-5.4,4.8c-0.2,1.4,0.6,3.7-1.3,3.9c-4.5,0.5-9.1,6.5-13.8,0.2
			C1262.7,482.3,1261.9,482.2,1261.7,482.1z M923,348.9C923,348.9,923,348.9,923,348.9c9.5,0,19,0,28.5,0c2.1,0,3.6-0.4,3.5-3
			c0-2.6-1.6-2.8-3.7-2.8c-19,0-38,0-56.9,0c-2.1,0-4.3,0.1-4.2,2.9c0,2.9,2.3,2.8,4.3,2.8C904,348.9,913.5,348.9,923,348.9z
			 M951.3,380.1c12.6,0,25.3,0,37.9,0c1.7,0,4.6,1.1,4.5-2.2c-0.1-2.8-2.7-1.9-4.3-1.9c-25.3-0.1-50.6-0.1-75.9,0
			c-1.7,0-4.7-1.1-4.5,2.2c0.2,3.1,3,1.9,4.8,1.9C926.4,380.1,938.9,380.1,951.3,380.1z M1358.8,628c-4.4,0-8.7,4.2-8.8,8.4
			c-0.1,4.4,4.7,8.7,9.3,8.6c4.8-0.2,7.8-3.7,7.7-9.1C1367,630.9,1363.8,627.9,1358.8,628z M928.7,277.9c-5.5,0-8.7,2.8-8.7,7.8
			c0.1,4.8,4,9,8.2,8.9c4.7-0.1,8.7-3.9,8.8-8.4C937.1,281.3,933.8,278,928.7,277.9z M770.3,525c5,0.1,8.5-3,8.7-7.6
			c0.2-4.7-4-9.3-8.5-9.3c-4.1,0-8.4,4.2-8.5,8.3C761.9,521.5,765.2,524.9,770.3,525z M966.5,359.9
			C966.5,359.9,966.5,359.9,966.5,359.9c-8.3,0-16.6,0-25,0c-1.7,0-3.6-0.2-3.4,2.4c0.2,2.2,2,1.8,3.4,1.8c16.3,0,32.6,0,48.9,0
			c1.4,0,3.2,0.4,3.4-1.9c0.2-2.6-1.8-2.3-3.4-2.3C982.5,359.9,974.5,359.9,966.5,359.9z M911,359.9c-5.8,0-11.6,0-17.4,0
			c-1.5,0-3.2-0.2-3.3,2c-0.1,2.2,1.5,2.2,3,2.2c11.6,0,23.2,0,34.8,0c1.4,0,2.7-0.1,2.8-2c0.1-2.2-1.5-2.2-3-2.3
			C922.3,359.9,916.6,359.9,911,359.9z M977.8,348.1c4.5,0,8.9,0,13.4,0c1.4,0,2.7-0.2,2.7-2.1c0-1.9-1.3-2.1-2.7-2.1
			c-8.8,0-17.5,0-26.3,0c-1.4,0-2.7,0.2-2.7,2.1c0,1.8,1.3,2.1,2.7,2.1C969.2,348.1,973.5,348.1,977.8,348.1z M896.2,380
			C896.2,380,896.2,380,896.2,380c0.8,0,1.7,0,2.5,0c1.8,0,3.4-0.1,3.4-2.5c0-2.4-1.6-2.5-3.4-2.5c-2.2,0-4.3,0-6.5,0.1
			c-1.4,0-2.1,0.8-2.1,2.2c0,1.5,0.4,2.7,2.1,2.7C893.5,380,894.8,380,896.2,380z"/>
		<path class="st1" d="M850.9,479.9c-0.7,5.5-4.5,6.2-9.1,6.2c-54.6,0-109.2,0-163.8,0c-12.7,0-25.3,0.1-38,0.1
			c-26.4,0-52.8-0.1-79.2-0.1c-4.5,0-7.9-1.1-8.7-6.1c1.5-1.7,0.8-3.8,0.8-5.8c0-46.7,0-93.5,0-140.2c65.8,0,131.5-0.1,197.3,0
			c33.3,0,66.6,0.1,99.9,0.1c0,47.2,0,94.4,0,141.6C850.1,477.1,849.6,478.7,850.9,479.9z M791.8,396.4c1.8-2.7,8.4-2.7,4.9-8.5
			c-0.1-0.1,0.4-0.5,0.6-0.7c2.4-2,0.5-7.9,6.2-7c0.1,0,0.2-1,0.5-1.3c2.8-2.1,2.4-7.5,7.5-7.4c0.3,0,0.9-1,0.8-1.5
			c-0.1-1.1-1.2-0.9-2-1c-2.1-0.1-4.5,0.5-4.5-3c0-1.2,0.9-3.5-1.4-3.4c-1.8,0.1-1.4,2.3-1.5,3.7c-0.1,0.6-0.2,1.2-0.3,1.9
			c-1.9-0.6-3.1-1.6-4.1-3c-0.9-1.2-2-3.2-3.9-1.2c-1.5,1.6,0.1,2.5,1.2,3.5c1.4,1.2,3.4,2.7-0.4,3.5c-0.5,0.1-1.4,1-1.3,1.2
			c1.4,4.1-1.9,3.4-4,4.1c-1,0.4-2.4,1-2.8,1.9c-1.7,3.4-4.4,4.6-7.9,4.8c-4.4-2.7-9-4.9-13.8-6.6c-5.5-3.7-11.2-3.3-17.1-1
			l-0.1-0.3c-1.4-0.1-3-0.4-3.8,1.3l-0.1-0.3c-1.1,0-2.1-0.1-2.6,1.1c-15.6,6.8-29.3,16.5-42.4,27.2c-9.8-7.1-19.3-14.6-29.8-20.8
			c-16.8-9.9-33.6-12.7-50.4-0.5c-12.5,9.1-19.1,21.4-17.9,37.2c-0.6,1.6-0.3,3.3,0.1,4.9c3.8,19.3,15.7,30.9,34.4,36
			c3.1,2.3,11.3,2.4,14.7,0.1c6-1.9,11.8-4.2,17.4-7.3c11.2-6.2,21.4-13.9,31.3-22c9.2,6.2,17.8,13.4,27.5,18.9
			c8.6,4.9,17,10.7,27.4,10.8c23.1,0.3,42.2-18.2,43-41.4C798.4,411.8,795.4,404.1,791.8,396.4z M598,353.7
			C598,353.7,598,353.6,598,353.7c8.8-0.1,17.7-0.1,26.5-0.1c1.5,0,3.9,0.6,4.1-1.6c0.2-2.5-2.3-1.8-3.8-1.8
			c-17.8-0.1-35.6-0.1-53.5-0.1c-1.5,0-3.9-0.6-3.8,1.9c0.1,2.4,2.5,1.7,4,1.7C580.3,353.7,589.2,353.7,598,353.7z M598,361
			c-9,0-18,0-27,0c-1.3,0-3.6-0.7-3.5,1.5c0,2.2,2.3,1.4,3.6,1.5c18,0.1,36,0.1,53.9,0c1.3,0,3.6,0.7,3.5-1.5c0-2.2-2.3-1.5-3.6-1.5
			C616,360.9,607,361,598,361z"/>
		<path class="st2" d="M1333.1,711c6.5,18.4,12,37.2,17.1,56c4,14.8,8.4,29.6,9,45.1c0.1,2.7,0.1,5.6,1.8,8.1
			c-2.1,3.7-0.9,7.8-1.6,11.7c-1.7,9.2-7.2,15-14.8,19.4c-1.6,0.9-3.1,1.9-4.6,2.9c-0.3-0.5-0.6-0.5-0.9,0c0,0,0,0,0,0
			c-0.5,0.1-1,0.1-1.5,0.3c-20.7,7.8-42.2,12-64,15.1c-6.2,0.9-12.8,1-18.8,3.5c-0.6,0.1-1.1,0.3-1.7,0.4c-1.1,0-2.2,0-3.2,0.1
			c-1.2-0.1-2.3-0.2-3.5-0.2c-86.8,0-173.6,0-260.4,0c-2.3,0-4.6-0.1-7-0.2c1.3-5.3,6.3-8.2,8.3-13c1.7-1.6,3.5-3.1,5.1-4.7
			c8.2-8.4,17.9-12.7,29.9-12.5c14.8,0.3,29,3.5,43.2,7.2c6.5,1.7,12.8,1.6,19.1-0.5c26.9-8.6,54.3-15.7,81.7-22.7
			c16.3-4.2,32.7-7.6,48.7-12.6c18.1-3.8,35.8-8.8,53.6-13.7c5.8-1.6,6.3-2.6,3.4-8c-7.7-14.8-15.7-29.3-24.3-43.6
			c0.4-2.1,2.4-2.2,3.8-2.8c7.4-3.3,14.9-6.6,22.4-9.8C1293.7,727.8,1313.4,719.4,1333.1,711z"/>
		<path class="st3" d="M1249.9,873.4c1.1,0,2.2,0,3.2-0.1c1.2,3,3.7,1.5,5.6,1.5c43.1,0.1,86.1,0.1,129.2,0c3.8,0,5.5,0.9,5.1,5
			c-0.3,4-0.1,8-0.1,12c-34.3,0.1-68.6,0.2-102.9,0.2c-244.2,0-488.4,0-732.6,0c-12.2,0-24.3-0.1-36.5-0.2c0-4.5,0.1-9,0-13.5
			c-0.1-2.6,1-3.5,3.5-3.5c4.5,0.1,9,0.1,13.5,0.1c-3.1,2-6.5,0.6-9.7,0.9c-2.9,0.3-6.4-0.8-6.3,4c0.1,3.8-1.5,8.8,5.4,7.9
			c2.5-0.3,5.2,2.1,7.1,0.3c3.9-3.6,6-9.3,12.6-9.6c1.3-0.1,0.8-2.3,0.9-3.6c10,0,20,0,30-0.1c0.8,0,3.3,1.8,3-1.4
			c-0.8-8.3-3.8-16-5.9-24c-2.9-11.2-6-22.4-9.1-33.6c1.4-2.2,3.6-1.9,5.7-2c7.9-0.4,15.8,1,23.6-0.8c3.2-0.5,6.7,2.2,9.6-0.8l0-0.3
			c0,0,0.3,0,0.3,0c0.9-0.1,1.5,0.3,2,1.1c1.4,1.4,3.2,0.7,4.7,0.7c8.6,0.1,17.3,0.1,25.9,0.1c0.3,0,0.6,0,0.9,0
			c-0.1,0.3-0.2,0.7-0.3,1c-1.1,0.2-1.4,1.1-1.7,2.1c-1.6,6-3.3,11.9-5,17.9c-3.2-0.3-3.8,2.4-4.5,4.4
			c-4.3,12.1-12.2,21.6-21.2,30.4c-0.7,0.7-2,1-1.7,2.1c0.4,1.5,1.9,1,3,1c5.1,0.1,10.3,0,15.4,0c0,0,0.1,0.3,0.1,0.3
			c0.7,2.3,2.6,1.6,4.1,1.6c23.6,0,47.2,0,70.7,0c84.3,0,168.6,0.1,252.9,0.1c1.5,0,3.5,0.7,4.1-1.6c0,0,0-0.4,0-0.4
			c0.7,0.2,1.4,0.4,2.1,0.6c0.8,2.3,2.8,1.4,4.3,1.4c7.7,0.1,15.3,0,23,0c86.6,0,173.3,0,259.9-0.1
			C1246.1,874.9,1248.6,876.3,1249.9,873.4z"/>
		<path class="st4" d="M1371.1,456.9c-4.1,0.1-8.3,0.2-12.4,0.2c-54,0-108,0-162.1,0c-3.3,0-7,0.6-7.6-4.2c1.4-1.2,0.9-2.8,0.9-4.2
			c0-32.9,0-65.8,0-98.7c70,0,140-0.1,210-0.1c0,33.5,0.1,67,0.1,100.5c0,3-0.6,5.7-4.1,6.4C1387.6,455.5,1379.4,455.5,1371.1,456.9
			z M1229,446c1.5,0.3,3.8,1.3,2.1,2.5c-3.4,2.5-0.4,4.1,0.3,6.1c-2.5,0.9-5.4-1.8-7.3,1.2c5.6,0,11,0,16.4,0c1.6,0,2.9-0.7,2.4-2.3
			c-1-3,0.1-3.9,2.9-3.8c0.9,0,1.7-0.6,1.7-1.5c0-1.4-1.2-1.3-2.2-1.3c-2.1,0-4.1-0.2-4.3-2.9c14.6,0,29.3,0,43.9-0.1
			c1.3,0,2.7,0,4-0.2c1.3-0.2,2-1.2,1.9-2.5c-0.1-1.1-0.8-1.9-1.9-2.1c-1-0.2-2-0.2-3-0.2c-17,0-33.9,0-50.9,0c-1.5,0-3-0.3-4.2,1
			C1228.3,441.4,1229.2,443.9,1229,446c-1.7-0.8-3.4-1.8-4.6,0.6c-0.4,0.8,0.2,1.7,1,2C1227.8,449.5,1228.7,448.1,1229,446z
			 M1340.5,375.1C1340.5,375.1,1340.5,375.1,1340.5,375.1c7,0,14,0,21,0c6.8,0,13.7,0,20.5,0c1.2,0,2.5,0,2.6-1.6
			c0.1-1.7-1-2.3-2.6-2.3c-0.7,0-1.3,0-2,0c-26.5,0-53,0-79.4,0c-1.6,0-4.2-1.1-4.2,1.9c0,3,2.6,2,4.2,2
			C1313.9,375.1,1327.2,375.1,1340.5,375.1z M1257.7,398c13,0,26,0,38.9,0c1.4,0,3.3,0.5,3.4-1.8c0.1-2.3-1.7-2-3.1-2.1
			c-0.5,0-1,0-1.5,0c-25,0-49.9,0-74.9,0.1c-1.6,0-4.3-1.1-4.3,1.8c-0.1,3.3,2.9,2,4.6,2C1233.1,398,1245.4,398,1257.7,398z
			 M1326,409c12.5,0,25,0,37.5,0c1.2,0,3.1,0.4,3.2-1.5c0-1.9-1.9-1.2-3.1-1.5c-10.8-2.6-21.7,0.5-32.7-0.6
			c-13.7-1.4-27.6-0.4-41.5-0.3c-1.6,0-4.2-0.9-4.2,2c0,2.9,2.7,1.9,4.3,1.9C1301.7,409,1313.8,409,1326,409z M1252,432
			c10.7,0,21.3,0,32,0c1.7,0,4.3,0.6,4.5-1.8c0.2-2.7-2.4-2.1-4.2-2.1c-21.5,0-42.9,0-64.4,0c-1.5,0-3.8-0.6-3.7,2.1
			c0.1,2.6,2.3,1.9,3.8,1.9C1230.7,432,1241.3,432,1252,432z M1336,394.1C1336,394.1,1336,394.1,1336,394.1c-9.1,0-18.3,0-27.4,0
			c-1.5,0-3.7-0.5-3.5,2.2c0.2,2.2,2.1,1.7,3.5,1.7c18.3,0,36.6,0,54.9,0c1.5,0,3.7,0.5,3.5-2.2c-0.2-2.3-2.1-1.7-3.5-1.7
			C1354.3,394,1345.1,394.1,1336,394.1z M1260.1,375.1c8.6,0,17.3,0,25.9,0c1.5,0,3.7,0.6,3.9-1.9c0.2-2.6-2-2.2-3.6-2.2
			c-17.3,0-34.6,0-51.8,0c-1.4,0-3.3-0.3-3.4,1.9c-0.1,2.6,2,2.2,3.6,2.2C1243.1,375.1,1251.6,375.1,1260.1,375.1z M1355.5,387
			c8.3,0,16.6,0,24.9,0c2,0,4.6,0.3,4.3-2.6c-0.2-2.3-2.4-1.8-4.3-1.8c-16.4,0.2-32.9,0.2-49.3,0.1c-1.9,0-3.9-0.7-4,2
			c-0.1,2.9,2.3,2.3,4,2.3C1339.2,387,1347.3,387,1355.5,387z M1318,420.9c8.2,0,16.3,0,24.5,0c1.6,0,3.7,0.4,3.5-2.2
			c-0.2-2.3-2.2-1.7-3.5-1.7c-16.3,0-32.6,0-49,0c-1.4,0-3.3-0.5-3.5,1.7c-0.2,2.7,1.9,2.2,3.5,2.2
			C1301.7,420.9,1309.8,420.9,1318,420.9z M1237.6,410C1237.6,410,1237.6,410,1237.6,410c6,0,12,0.1,18,0c1.4,0,3.8,1.2,3.8-1.6
			c0.1-2.3-1.3-3.4-3.9-3.4c-12.2,0.1-24.3,0.1-36.5,0.1c-1.7,0-3.7,0-3.8,2.2c-0.2,2.6,1.9,2.7,3.8,2.7
			C1225.3,410,1231.4,410,1237.6,410z M1248.6,364c4.6,0,9.3,0.1,13.9,0c1.6,0,4.2,0.9,4.2-1.9c0-2.9-2.6-2-4.2-2
			c-13.3-0.1-26.5,0-39.8,0c-1.1,0-2.4,0-3.4,0.4c-1.1,0.4-3.1,0.2-3,2c0.2,2.3,2.2,1.5,3.5,1.5C1229.5,364,1239,364,1248.6,364z
			 M1297.9,386.8c7,0,14,0,21,0c1.6,0,3.7,0.2,3.6-2.2c-0.1-2.3-2.1-1.6-3.5-1.7c-13.8-0.3-27.6,0.6-41.4-0.5
			c-1.7-0.1-3.5,0.1-3.4,2.5c0,2.3,1.9,1.9,3.3,2C1284.3,386.8,1291.1,386.8,1297.9,386.8z M1352,443.2c9.3,0,18.6,0,28,0
			c1.5,0,3.9,0.8,3.9-1.7c0-2.5-2.5-1.7-3.9-1.7c-18.6-0.1-37.3-0.1-55.9,0c-1.4,0-3.9-0.8-3.6,1.9c0.2,2.2,2.3,1.5,3.6,1.5
			C1333.4,443.3,1342.7,443.2,1352,443.2z M1314.5,432.1c5.3,0,10.6,0,16,0c1.4,0,2.9-0.2,3.1-1.8c0.3-1.8-1.2-2.3-2.6-2.3
			c-10.6,0-21.3,0-31.9,0c-1.4,0-2.8,0.5-2.8,2.2c0,2.3,1.9,1.9,3.3,1.9C1304.5,432.1,1309.5,432.1,1314.5,432.1z M1314.9,360
			c-5.2,0-10.3,0-15.5,0c-1.2,0-3-0.4-3.1,1.6c-0.1,2.1,1.5,2.3,3.1,2.3c10.2,0,20.3,0,30.5,0c1.3,0,2.9,0.2,3.1-1.7
			c0.2-2.3-1.5-2.2-3.1-2.2C1324.9,360,1319.9,360,1314.9,360z M1232,386.8c4.2,0,8.3,0,12.5,0c1.4,0,3.3,0.5,3.4-1.8
			c0.1-2.3-1.7-2-3.2-2c-8.5,0-17,0-25.5,0c-1.5,0-3.3-0.3-3.1,2.1c0.1,2.3,2,1.8,3.4,1.8C1223.7,386.8,1227.8,386.8,1232,386.8z
			 M1368.8,416.9c-4.1,0-8.3,0-12.4,0c-1.3,0-3-0.3-3.1,1.6c-0.1,1.9,1.3,2.5,3,2.5c8.5,0,16.9,0,25.4,0c1.6,0,3.2-0.5,3.1-2.4
			c-0.1-2.2-2.1-1.7-3.5-1.7C1377.1,416.8,1373,416.9,1368.8,416.9z M1349,360c-3,0-5.9,0-8.9,0c-1.1,0-2.5-0.1-2.6,1.5
			c-0.1,1.6,0.9,2.3,2.5,2.3c5.8,0,11.6,0,17.3,0c1.3,0,2.3-0.5,2.4-1.9c0.1-2-1.4-1.9-2.7-1.9C1354.2,360,1351.6,360,1349,360z
			 M1271.4,420.8C1271.4,420.8,1271.4,420.9,1271.4,420.8c2.7,0,5.3,0,8,0c1.2,0,2.4-0.1,2.5-1.8c0.1-1.5-0.7-2.2-2.1-2.2
			c-5.8,0-11.6,0-17.5,0c-1.3,0-2.3,0.4-2.3,2c0,1.6,1.1,1.9,2.4,1.9C1265.4,420.9,1268.4,420.8,1271.4,420.8z M1227,420.8
			C1227,420.8,1227,420.8,1227,420.8c3,0,5.9,0,8.9,0c1.4,0,2.1-0.7,2-2.2c-0.1-1.3-0.9-1.7-2-1.7c-5.9,0-11.9,0-17.8,0
			c-1.1,0-2,0.4-2,1.6c-0.1,1.4,0.6,2.2,2,2.2C1221,420.8,1224,420.8,1227,420.8z M1259.5,386.8c1.8,0,3.6,0,5.5,0
			c1.5,0,2.7-0.6,2.6-2.3c-0.1-1.6-1.4-1.6-2.6-1.6c-3.6,0-7.3,0-10.9,0c-1.2,0-2.5,0-2.6,1.6c-0.1,1.7,1.1,2.3,2.6,2.3
			C1255.8,386.8,1257.6,386.8,1259.5,386.8z M1280.8,363.9c1.5,0,3,0.1,4.5,0c1.5-0.1,3.7,0.6,3.6-2.1c-0.1-2.3-2-1.8-3.4-1.8
			c-3-0.1-5.9-0.1-8.9,0c-1.4,0-3.3-0.4-3.3,1.8c-0.1,2.7,2.1,1.9,3.6,2C1278.1,364,1279.5,363.9,1280.8,363.9z M1378.8,405.2
			c-0.7,0-1.3-0.1-2,0c-1.5,0.1-3.6-0.6-3.6,2.1c0,2.4,2,2.3,3.6,2.3c1.7,0.1,3.3,0,5,0c1.4,0,2.8-0.2,2.9-2
			c0.2-2.1-1.2-2.5-2.9-2.5C1380.7,405.2,1379.7,405.2,1378.8,405.2z M1220.5,443.8c2.2-0.2,4,0.3,5.4-0.6c1.2-0.8,1.1-2,0.4-3
			c-0.9-1.4-8.9-1.4-9.8,0c-0.7,1-0.9,2.5,0.2,3C1218,443.8,1219.6,443.7,1220.5,443.8z M1343.4,427.8c-1.6,1.6-5.7-1.5-5.7,2.5
			c0.1,3.2,3.7,1.8,5.7,1.7c2.1-0.1,6,1.8,6-1.8C1349.6,426.3,1345.6,429.1,1343.4,427.8z M1270.7,405.2c-0.7,0-1.3-0.1-2,0
			c-1.5,0.2-3.7-0.6-3.6,2.1c0.1,2.3,2,1.7,3.4,1.8c1.8,0.1,3.6,0,5.4,0c1.4,0,2.8-0.1,2.6-2c-0.1-1.5-1.1-1.9-2.4-1.9
			C1273,405.2,1271.8,405.2,1270.7,405.2z M1249.5,416.9c-1,0-1.7,0-2.4,0c-1.6,0.1-3.7-0.4-3.6,2.2c0.2,2.1,2.1,1.6,3.5,1.7
			c0.7,0,1.4,0.2,2,0c2-0.5,5.6,1.5,5.6-2C1254.7,415.2,1251,417.8,1249.5,416.9z M1221.1,371.2c-1.4,0.7-4.8-1.5-4.9,1.7
			c-0.2,3.8,3.4,1.7,5.3,2.2c1.1,0.3,2.3,0.1,3.4,0c1.2-0.1,1.7-0.8,1.7-1.9c0-1.2-0.6-1.8-1.8-1.9
			C1223.8,371.1,1222.7,371.2,1221.1,371.2z M1306,443.3c1.6-0.6,4.7,1.1,4.8-1.7c0.1-3.1-3-1.4-4.7-1.8c-1.1-0.2-2.3,0-3.5,0
			c-0.9,0.1-1.5,0.6-1.6,1.5c0,1,0.5,1.6,1.4,1.7C1303.6,443.2,1304.7,443.2,1306,443.3z M1206.5,405.2c-1.3,0-2.3,0.3-2.4,1.9
			c-0.1,1.7,0.8,2.5,2.4,2.5c1.6,0,2.4-0.9,2.3-2.5C1208.8,405.5,1207.7,405.2,1206.5,405.2z M1206.4,443.7c1.5-0.1,2.5-0.7,2.4-2.4
			c-0.1-1.4-1.1-2-2.3-2c-1.6,0-2.4,0.9-2.3,2.5C1204.1,443.4,1205,443.8,1206.4,443.7z M1208.8,418.8c0-1.5-1-1.9-2.3-1.9
			c-1.6,0-2.5,0.5-2.4,2.3c0.1,1.6,1.3,1.6,2.5,1.6C1208,420.8,1208.8,420.3,1208.8,418.8z M1206.6,360c-1.2,0-2.4,0-2.5,1.6
			c-0.1,1.3,0.4,2.2,1.9,2.2c1.4,0,2.7,0,2.7-1.9C1208.8,360.5,1207.9,360,1206.6,360z M1206.4,375.1c1.2,0,2.3-0.2,2.4-1.8
			c0.1-1.9-1.1-2.1-2.5-2.1c-1.4,0-2.2,0.5-2.1,2C1204.2,374.7,1205.1,375.1,1206.4,375.1z M1208.8,430.2c0.1-1.5-0.8-2-2.1-2
			c-1.5,0-2.6,0.3-2.5,2.1c0.1,1.6,1.2,1.8,2.4,1.8C1207.8,432.1,1208.8,431.7,1208.8,430.2z M1208.8,395.3c0-1.1-1.2-1.2-2.4-1.2
			c-1.3,0-2.3,0.3-2.3,1.9c0,1.9,1.2,2,2.6,2C1208.2,397.9,1208.9,397.2,1208.8,395.3z M1204.1,385c0,1.6,1.1,1.8,2.3,1.8
			c1.3,0,2.3-0.3,2.3-1.8c0-1.8-1.1-2.1-2.6-2.1C1204.8,382.9,1204.1,383.6,1204.1,385z"/>
		<path class="st5" d="M1110.4,190.9c0.3-0.1,0.5-0.1,0.6,0.2c0.4,0.3,0.8,0.5,1.1,0.8c0,0-0.1-0.1-0.1-0.1c0.4,0.3,0.8,0.6,1.2,1
			c0,0-0.1-0.1-0.1-0.1c0.4,0.4,0.7,0.7,1.1,1.1c0,0-0.1-0.1-0.1-0.1c0.3,0.4,0.6,0.8,0.9,1.2c0,0,0,0,0,0c0.8,3.1,0.9,6.2,0.9,9.3
			c-0.1,20.8,0,41.5,0,62.3c0,4.1,0.2,8.3-1.1,12.3c0,0-0.1,0.1-0.1,0.1c-5.3,4.9-11.9,4.1-18.3,4.1c-36.2,0-72.5,0.1-108.7,0.1
			c0,0,0.1,0,0.1,0c-1.6-1.5-3.1-3.2-5.3-3.9c0,0,0.1,0.1,0.1,0.1c-0.2-1.3-0.6-2.6-1.9-3.3c0,0,0,0.1,0,0.1c0-21.6,0.1-43.3,0-64.9
			c0-5.9,0.9-11.5,2-17.2c0,0,0,0,0,0c8.6-4,17.7-2.9,26.7-2.9C1043.2,190.9,1076.8,190.9,1110.4,190.9z M1074.8,221.8
			c0.3-8.7-3.1-12.5-9.7-12.2c-1.3,0.1-3-0.2-2.9,1.7c0,1.7-1.1,4.5,1,4.9c5,0.9,3.6,4.3,3.4,7.2c-0.3,4.4-1.8,9,2.3,12.6
			c0.2,0.2,0.4,1.1,0.2,1.2c-5.1,4.6-2.3,10.2-2.2,15.5c0,2.1,0,4-2.8,4.3c-3.2,0.4-1.7,3.1-1.9,4.8c-0.2,2.3,1.6,2,3.1,2.1
			c5.9,0.2,9.6-3.1,9.6-8.9c0-3.1-0.5-6.3-0.7-9.4c-0.1-2,0-3.8,2.2-5.1c3.5-2.1,3.4-5.4-0.2-7.6c-2-1.2-2.2-2.8-2-4.7
			C1074.4,225.7,1074.7,223.1,1074.8,221.8z M1022.2,253.3c-0.1,7.2,3.7,11,9.8,10.7c1.3-0.1,3,0.1,3-1.8c0-1.7,1.1-4.4-1-4.8
			c-4.4-0.8-3.3-3.8-3.3-6.4c0-4.6,2.2-9.7-2.4-13.6c-0.3-0.2-0.6-0.8,0-1.3c5-4.1,2.1-9.6,2.3-14.5c0.1-1.9-0.9-4.4,2-4.8
			c3.8-0.6,2.6-3.4,2.4-5.4c-0.3-2.9-2.8-1.7-4.4-1.6c-5.5,0.4-8.5,3.7-8.3,9.2c0.1,2.8,0.6,5.6,0.9,8.4c0.2,2.6,0.3,4.8-2.9,6.1
			c-2.4,1-2.4,5.9,0,6.8c3.5,1.4,3.1,3.9,2.9,6.5C1022.8,249.3,1022.4,251.7,1022.2,253.3z"/>
		<path class="st6" d="M850.1,334.1c-33.3,0-66.6-0.1-99.9-0.1c-65.8,0-131.5,0-197.3,0c-0.3,0-0.7,0.1-1,0.1
			c-0.1-4.3-0.2-8.6-0.2-13c0-7.7,2.2-9.8,9.8-9.8c65.6,0,131.2,0,196.8,0c5.5,0,11,0.6,16.4-0.6c5.6,1,11.3,0.4,16.9,0.4
			c16.9,0.1,33.9,0,50.8,0c5.9,0,8.4,1.9,9,7.7c0.5,5.1,1,10.2-0.4,15.3C850.8,334,850.4,334,850.1,334.1z M593.4,319.7
			c-1.9,0.2-3.1,1.3-3.2,3.2c0,2.2,1.4,3.3,3.5,3.3c1.9,0,3.1-1.2,3.2-3.1C596.9,320.8,595.5,319.8,593.4,319.7z M579.3,319.7
			c-1.7,0.2-3,0.9-3.1,2.9c-0.2,2,0.9,3.2,2.8,3.4c2.2,0.2,3.5-1,3.6-3.1C582.6,321.1,581.4,320,579.3,319.7z M568.2,323.2
			c-0.1-1.9-1-3.2-2.9-3.4c-1.9-0.1-3.2,0.9-3.3,2.9c-0.1,1.9,0.9,3.2,2.9,3.3C566.8,326.2,567.9,325,568.2,323.2z"/>
		<path class="st0" d="M957.1,873.5c-0.7-0.2-1.4-0.4-2.1-0.6c0-3.8-0.1-7.7,0.1-11.5c0.2-3.3-1.3-4.5-4.4-4.3c-3.2,0.1-6.3,0-9.5,0
			c-40.9,0-81.9-0.1-122.8,0c-4.4,0-5.8-1-5.5-5.6c1.2-16.2,2.1-32.5,3.1-48.7c4.3,0,8.6,0,12.9,0c0.8,0,1.6,0,2.5,0.1
			c0.5,0.1,1,0.1,1.6,0.2c1.1,3.7,4.8,4.9,7.2,7.3c13.1,13.3,27.6,24.9,43.6,34.6c12.6,7.6,25.1,8.1,37.8-0.3
			c11.8-7.8,20.9-18.3,29.6-29.2c3-3.8,7-7.1,7.9-12.3c3-0.2,6-0.3,8.9-0.5c5.5-0.6,9.5-3.6,12.4-8.1c0.4-0.6,0.4-2.3,1.9-1.4
			c0.7,0.5,0.5,1.5,0.3,2.3c0.5,6.5,0.7,12.9,1.4,19.4c1.7,15,1.1,30.1,3.5,45c-2,4.8-7.1,7.7-8.3,13
			C971.7,873.2,964.4,873.4,957.1,873.5z"/>
		<path class="st7" d="M598.7,773.1c-7.3-1.1-12.2-5.6-16.1-11.4c-4.1-6.1-6.4-13.1-8.7-20.1c-5.2-15.7-11.3-30.9-18.9-45.6
			c-1.9-3.7-2.7-7-0.7-10.8c1.4-2.8,1.3-4.8-2.7-4.5c-2.8,0.2-4.5-1.1-5.6-3.9c-3.1-8-6.5-16-10.2-25c8.5,2.8,15.5,6.4,22.5,10
			c13.5,7,26.2,15.1,37.3,25.7c1.2,1.1,3.5,2,1.7,4.4c-2.6,3.5,0.1,3.9,2.5,4c3.9,0.1,5.3,2.2,6,5.8c2.2,11.3,4.6,22.5,7,33.7
			c2.7,12.7-0.8,24.8-10.1,34.8c-1.2-6.8-2.3-13.7-3.6-20.5c-4.4-24.4-13.5-46.8-29.4-66.2c-2.5-3.1-5.1-6.3-8.8-8.5
			c-0.9,2.2,0.6,3,1.5,4.1c2.6,3,5.4,5.9,7.8,9c16.6,21.6,24.6,46.5,28.4,73.1C599.2,765.2,600.3,769.2,598.7,773.1z"/>
		<path class="st2" d="M959,803.3c-0.9,5.2-4.9,8.6-7.9,12.3c-8.7,10.9-17.8,21.4-29.6,29.2c-12.7,8.3-25.1,7.9-37.8,0.3
			c-16-9.6-30.5-21.2-43.6-34.6c-2.4-2.4-6.1-3.6-7.2-7.3c37.5-0.1,75-0.1,112.6-0.2c2.8,0,5.6,0.1,8.4,0.2
			C955.6,803.3,957.3,803.3,959,803.3z"/>
		<path class="st1" d="M982.5,795.7c0.2-0.8,0.5-1.8-0.3-2.3c-1.5-0.9-1.5,0.8-1.9,1.4c-3,4.5-6.9,7.5-12.4,8.1
			c-2.4-2.2-6.2,0.6-8.4-2.2c0,0,0.1,0,0.1,0c0.7,0.1,1.1-0.2,1.2-0.9c0,0-0.1,0.1-0.1,0.1c0.4-0.3,0.8-0.7,1.2-1
			c0,0-0.1,0.1-0.1,0.1c0.4-0.4,0.9-0.8,1.3-1.2c5.2-6.2,6.2-13.1,4.5-21c-15.1-72.2-30-144.4-44.9-216.6
			c-1.7-8.5-5.7-14.8-14.5-17.3c15.6-3.1,25.6,2.2,28.3,16.5c4,21.9,9,43.5,13.6,65.3c2.3,11.3,4.6,22.7,6.9,34
			c4,19.1,8,38.3,12.1,57.4c2.4,14.1,5.5,28,8.7,41.9c0.6,4.8,1.2,9.5,3,14.1C982.3,779.8,983.3,787.7,982.5,795.7z"/>
		<path class="st6" d="M1399.9,350c-70,0-140,0.1-210,0.1c-0.3-0.1-0.6-0.1-1-0.1c-0.1-2.8-0.1-5.7-0.1-8.5c0-6.7,0.9-7.6,7.4-7.6
			c26.1,0,52.3,0,78.4,0c1.5,0,3-0.1,4.5-0.1c37.3,0,74.6,0,111.9,0.1c8.3,0,9.1,0.8,9.1,9.1C1400.1,345.3,1400,347.6,1399.9,350z
			 M1200.4,341.8c-0.3-1.3-1.1-2.3-2.6-2.1c-1.2,0.1-2.1,1-2.2,2.2c-0.1,1.5,0.9,2.5,2.3,2.5
			C1199.3,344.5,1200.2,343.5,1200.4,341.8z M1210.4,342c-0.3-1.5-1.2-2.4-2.7-2.3c-1.3,0.1-2.1,1-2.2,2.2c-0.1,1.5,0.9,2.5,2.4,2.5
			C1209.4,344.5,1210.2,343.5,1210.4,342z M1220.3,342.1c-0.1-1.1-0.7-2-2-2.1c-1.4-0.1-2.2,0.6-2.3,2c-0.1,1.3,0.6,2.3,1.9,2.4
			C1219.2,344.4,1220,343.6,1220.3,342.1z"/>
		<path class="st0" d="M689.3,803.1c9.7,0,19.3,0.2,28.9-0.1c4.1-0.1,5.1,1.3,4.9,5.1c-0.9,14.7-1.6,29.5-2.2,44.3
			c-0.2,3.5-1.6,4.9-5.3,4.8c-8.5-0.2-17-0.2-25.5,0c-2.8,0-4.6-0.8-6.2-3.2c-10-14.9-19.1-30.3-27.4-46.3c-2.5-4.9-0.4-4.7,3.2-4.7
			C669.7,803.2,679.5,803.1,689.3,803.1z"/>
		<path class="st0" d="M743,664.9c0-18.7,7.2-28.7,19.6-31.2c6.8-1.4,12.3,1.5,17.5,5.4c13.7,10.4,16,34.9,4.4,47
			c-8.3,8.7-20.4,9.2-29.5,1.4C746.9,680.5,743.1,671.6,743,664.9z"/>
		<path class="st7" d="M577.5,789.7c-8,3.1-15.4,0.5-22.7-2.2c-1.2-0.5-2.4-1.1-3.6-1.6c-3.9-1.6-7.1-3.4-3.2-8.1
			c0.3-0.4,0.2-1.2,0.3-1.8c-0.6-0.1-1-0.3-1.1-0.1c-4.6,5.2-8.4,3-12.8-0.6c-7.6-6.3-14.8-12.8-21.4-20.1c0.3-0.4,0.5-0.8,0.7-0.8
			c15.3-0.7,30.7-1.1,45.8,2c5.9,1.2,11.1,2.9,16.3,8.2c7.4,7.6,6,14.6,4.6,22.8c0,0-0.3,0.2-0.3,0.2c-8.2-11.3-35.6-30.2-41.9-25.6
			c0.4,0.3,0.8,0.7,1.2,0.8c14.7,4,26.3,12.8,36.7,23.6C576.9,787.2,577.6,788.3,577.5,789.7z"/>
		<path class="st0" d="M1254.8,873c6-2.5,12.6-2.6,18.8-3.5c21.8-3.1,43.3-7.4,64-15.1c0.5-0.2,1-0.2,1.5-0.3
			c-1.3,5.9-6.2,9.6-9.2,14.4c-1,1.5-2.3,2.8-2.9,4.6C1303,873.4,1278.9,873.5,1254.8,873z"/>
		<path class="st8" d="M955,873.3c-0.7,2.4-2.6,1.6-4.1,1.6c-84.3,0-168.6,0-252.9-0.1c0-0.5-0.1-0.9-0.1-1.4
			c1.3-0.1,2.6-0.4,3.9-0.4c83.4,0,166.8,0,250.2,0C953,873.1,954,873.2,955,873.3z"/>
		<path class="st3" d="M831.3,803c-0.8,0-1.6,0-2.5-0.1c-4.1-2-8.5-0.4-12.8-0.9c0.1-1.1,0.2-2.1,0.3-3.2c2.9-4.1,1.6-8.5,0.6-12.8
			c0.3-5,0.7-10.1,1-15.1c2.5-4,1.6-8.6,2.2-14.4c3.1,14.9,5.9,28.4,8.6,42c0.3,1.3,0.5,2.2,2,2.4
			C831.1,801.7,831.2,802.4,831.3,803z"/>
		<path class="st9" d="M598.7,773.1c1.6-3.9,0.5-7.9,0-11.8c-3.7-26.6-11.8-51.5-28.4-73.1c-2.4-3.2-5.2-6-7.8-9
			c-0.9-1.1-2.4-1.9-1.5-4.1c3.7,2.2,6.3,5.4,8.8,8.5c15.8,19.4,25,41.7,29.4,66.2c1.2,6.8,2.4,13.7,3.6,20.5
			c-0.2,0.9-0.5,1.8-0.7,2.7c-0.5,0.3-1,0.6-1.6,0.9C599.8,773.6,599.3,773.4,598.7,773.1z"/>
		<path class="st8" d="M1254.8,873c24.1,0.5,48.1,0.4,72.2,0.1c20.8,0.1,41.6,0.2,62.3,0.1c4,0,5.3,1.2,4.7,5
			c-0.7,4.5,1.3,9.3-1.1,13.7c0-4-0.3-8,0.1-12c0.4-4.1-1.3-5-5.1-5c-43.1,0.1-86.1,0.1-129.2,0c-1.9,0-4.5,1.4-5.6-1.5
			C1253.7,873.2,1254.3,873.1,1254.8,873z"/>
		<path class="st4" d="M622.9,873c-5.1,0-10.3,0-15.4,0c-1.1,0-2.6,0.5-3-1c-0.3-1.1,1-1.5,1.7-2.1c9-8.8,16.9-18.3,21.2-30.4
			c0.7-2,1.3-4.7,4.5-4.4c0,1.9-1.2,3.4-1.9,5c-1.2,0.7-0.9,1.9-1,3c0,0.3,0,0.7-0.1,1c-1.1,0.7-0.9,1.9-0.9,2.9l0,0
			c-1.3,1-1.3,2,0,3c-0.6,3-2.4,5.5-3.9,8.2c0.2,3,0.4,5.9-0.1,8.9c-1.2,1.5-3,2.8-1.1,4.9C622.9,872.3,622.9,872.7,622.9,873z"/>
		<path class="st7" d="M1110.4,190.9c-33.6,0-67.2,0.1-100.7,0.1c-9,0-18.1-1-26.7,2.9c2.3-3.6,5.9-4.6,9.9-4.7c37.3,0,74.6,0,112,0
			C1106.8,189.3,1108.8,189.4,1110.4,190.9z"/>
		<path class="st0" d="M781.8,233.9c4.7-0.1,9.1,4.1,9,8.6c0,4.4-4.1,8.2-8.9,8.4c-4.4,0.1-8.6-4-8.6-8.5
			C773.3,237.4,776.8,234,781.8,233.9z"/>
		<path class="st0" d="M1276,289.4c0.1,5-3.3,8.5-8.3,8.6c-5.1,0.1-8.5-3.1-8.7-8.1c-0.2-4.6,3.6-8.7,8.2-8.8
			C1271.8,280.9,1275.9,284.8,1276,289.4z"/>
		<path class="st0" d="M533.9,534.9c-0.1-5.2,3.1-8.8,7.9-8.9c4.7-0.1,9.1,4.1,9,8.7c-0.1,4.1-4.2,8.2-8.3,8.3
			C537.5,543.1,534,539.8,533.9,534.9z"/>
		<path class="st8" d="M600.4,773.9c0.5-0.3,1-0.6,1.6-0.9c1.1,12,0.8,24.1,0.2,36.1c-0.1,2.3-0.1,4.1,3,3.2c-3,3-6.4,0.4-9.6,0.8
			c-0.3-0.1-0.5-0.2-0.7-0.3c0.8-0.5,1.1-1.1,0.5-2c-4.8-7.5-9.6-15-16.2-21.1c0.3-0.8,0.6-1.6,0.9-2.4c0,0,0.3-0.2,0.3-0.2
			c6.4,8.2,12.9,16.4,19,25.2C601.4,799.5,600.9,786.7,600.4,773.9z"/>
		<path class="st7" d="M982.9,193.9c-1.1,5.7-2,11.4-2,17.2c0.1,21.6,0,43.3,0,64.9c-1.8-1.8-1.2-4-1.2-6.1
			c-0.1-12.4-0.2-24.8-0.3-37.2c0.1-9.8,0.2-19.5,0.4-29.3C979.9,200,979.8,196.4,982.9,193.9z"/>
		<path class="st7" d="M1114.9,278.8c1.3-4,1.1-8.2,1.1-12.3c0-20.8,0-41.5,0-62.3c0-3.2-0.1-6.3-0.9-9.3c2.7,2.4,2.4,5.7,2.4,8.8
			c0.1,12.3,0,24.6,0,36.8c0,1.8,0.3,3.6,0.4,5.4c-1,8.2-0.2,16.5-0.5,24.8C1117.5,273.7,1117.6,276.7,1114.9,278.8z"/>
		<path class="st10" d="M697.9,873.5c0,0.5,0.1,0.9,0.1,1.4c-23.6,0-47.2,0.1-70.7,0c-1.5,0-3.5,0.7-4.1-1.6
			C648,873.4,672.9,873.5,697.9,873.5z"/>
		<path class="st10" d="M552,334.1c0.3,0,0.7-0.1,1-0.1c0,46.7,0,93.5,0,140.2c0,1.9,0.7,4-0.8,5.8c-0.1-0.5-0.2-1-0.2-1.5
			C551.9,430.3,552,382.2,552,334.1z"/>
		<path class="st9" d="M580,787.4c-0.3,0.8-0.6,1.6-0.9,2.4c-0.5,0-1.1,0-1.6,0c0.1-1.4-0.6-2.5-1.5-3.5
			c-10.4-10.7-22-19.6-36.7-23.6c-0.4-0.1-0.8-0.5-1.2-0.8C544.4,757.1,571.8,776,580,787.4z"/>
		<path class="st10" d="M581,873.5c0.3,3.2-2.2,1.3-3,1.4c-10,0.2-20,0.1-30,0.1c-1.3,0-2.7,0-4,0c-0.7,0-1.3,0-2,0
			c-1.3,0-2.7,0-4,0c-4.5,0-9,0.1-13.5-0.1c-2.5-0.1-3.6,0.8-3.5,3.5c0.1,4.5,0,9,0,13.5c-2.5-2.2-0.8-5.1-1-7.6
			c-0.3-3.4,0.1-6.9,0.2-10.3c0.5-0.1,1-0.2,1.5-0.3C541.4,873.6,561.2,873.5,581,873.5z"/>
		<path class="st8" d="M830.9,801c-1.4-0.2-1.7-1.2-2-2.4c-2.7-13.5-5.6-27.1-8.6-42c-0.6,5.8,0.3,10.4-2.2,14.4
			c0.3-7.2,0.6-14.3,1-21.5c0.4,0,0.7-0.1,1.1-0.1C823.8,766.6,827.3,783.8,830.9,801z"/>
		<path class="st8" d="M607.3,813.2c-0.4-0.8-1.1-1.2-2-1.1c2.2-4.8,3.8-9.8,5.2-14.9c2.1-7.5,5.9-14.1,10-21c1.6,2.4-0.2,3.7-1,5.2
			c-4,7.9-8.3,15.7-11.3,24.2c-0.8,2.3-2.3,4.9,0,7.3C608,813,607.7,813.1,607.3,813.2z"/>
		<path class="st8" d="M629,844c0-0.3,0-0.7,0.1-1c1.1-0.7,0.9-1.9,1-3c0.7-1.7,1.9-3.1,1.9-5c1.7-6,3.4-11.9,5-17.9
			c0.3-1,0.5-1.9,1.7-2.1c-3.6,13.3-7.3,26.5-10.7,39.8c-0.6,2.3-2.3,2.5-3.8,3.3c1.4-2.6,3.3-5.1,3.9-8.2c0-1,0-2,0-3c0,0,0,0,0,0
			C629.2,846.3,629,845.1,629,844z"/>
		<path class="st10" d="M594.7,812.9c0.2,0.1,0.5,0.3,0.7,0.3c-7.8,1.8-15.8,0.4-23.6,0.8c-2.2,0.1-4.4-0.2-5.7,2c0,0,0-0.1,0-0.1
			c0-1,0-2-0.1-2.9C575.6,812.4,585.1,812.6,594.7,812.9z"/>
		<path class="st10" d="M607.3,813.2c0.3-0.1,0.6-0.2,0.9-0.3c9.9,0,19.8,0,29.7,0c0,0.4,0,0.8,0.1,1.2c-8.6,0-17.3,0-25.9-0.1
			C610.5,813.9,608.7,814.6,607.3,813.2z"/>
		<path class="st10" d="M1371.1,456.9c8.3-1.3,16.5-1.4,24.8,0c-7.9,0.1-15.8,0.2-23.7,0.3C1371.8,457.1,1371.5,457,1371.1,456.9z"
			/>
		<path class="st8" d="M959.5,800.6c2.2,2.9,6,0.1,8.4,2.2c-3,0.2-6,0.3-8.9,0.5c-1.7,0-3.4,0-5.1-0.1
			C955.8,802.4,957.6,801.5,959.5,800.6z"/>
		<path class="st10" d="M817.1,786.1c1,4.3,2.2,8.7-0.6,12.8C816.7,794.6,816.9,790.4,817.1,786.1z"/>
		<path class="st10" d="M816.1,802.1c4.2,0.5,8.6-1.1,12.8,0.9c-4.3,0-8.6,0-12.9,0C815.9,802.6,815.9,802.3,816.1,802.1z"/>
		<path class="st8" d="M622.9,872c-1.9-2.1-0.1-3.5,1.1-4.9C624.5,868.8,623.3,870.3,622.9,872z"/>
		<path class="st8" d="M638,814c0-0.4,0-0.8-0.1-1.2c1.4-0.5,1.4,0.1,1,1.2C638.6,814,638.3,814,638,814z"/>
		<path class="st8" d="M566,812.9c0,1,0,2,0.1,2.9C566,814.9,564,814,566,812.9z"/>
		<path class="st7" d="M1115.1,194.9c-0.3-0.4-0.6-0.8-0.9-1.2C1114.8,193.9,1115.1,194.3,1115.1,194.9z"/>
		<path class="st7" d="M1114.3,193.8c-0.4-0.4-0.7-0.7-1.1-1.1C1113.5,193.1,1113.9,193.5,1114.3,193.8z"/>
		<path class="st7" d="M1113.2,192.8c-0.4-0.3-0.8-0.6-1.2-1C1112.5,192.2,1112.8,192.5,1113.2,192.8z"/>
		<path class="st3" d="M521.6,873.6c-0.5,0.1-1,0.2-1.5,0.3C520.4,872.8,521,873.2,521.6,873.6z"/>
		<path class="st0" d="M1339,854.1c0.3-0.5,0.6-0.5,0.9,0c0,0-0.5,0-0.5,0L1339,854.1z"/>
		<path class="st7" d="M1112.1,191.9c-0.4-0.3-0.8-0.5-1.1-0.8C1111.4,191.4,1111.8,191.6,1112.1,191.9z"/>
		<path class="st8" d="M963.1,797.7c-0.4,0.4-0.9,0.8-1.3,1.2C962.2,798.5,962.6,798.1,963.1,797.7z"/>
		<path class="st8" d="M961.9,798.8c-0.4,0.3-0.8,0.7-1.2,1C961.1,799.4,961.5,799.1,961.9,798.8z"/>
		<path class="st8" d="M960.8,799.7c-0.1,0.7-0.5,1-1.2,0.9C960,800.3,960.4,800,960.8,799.7z"/>
		<path class="st5" d="M982.5,795.7c0.8-8-0.2-15.9-1.7-23.7c-0.1-4.4,0.1-8.9-1.1-13.2c-0.3-9.6-0.9-19.1-1.5-28.7
			c-0.9-13.4-1.3-26.8-2-40.2c-0.9-16.7-1.1-33.4-1-50.1c0-6.9,1.3-13.7,0.5-21.7c-0.7,1.7-1.2,2.6-1.4,3.5
			c-1.6,11.8-4,23.5-4.2,35.4c-0.3,14-0.1,28,0,41.9c0,5,1.4,9.9,0.9,14.9c-0.1,1.2,0.5,3-1.9,2.1c-4-19.1-8.1-38.3-12.1-57.4
			c-2.4-11.3-4.6-22.7-6.9-34c6.6-11.3,12.8-22.9,20.9-33.3c8-10.5,16.9-20,27.3-28.3c13.1-10.3,28.1-15.5,44.3-17.7
			c6.6-0.9,13.2-1.6,19.8-2.4c0.5-0.1,0.9-0.1,1.4-0.2c1.9-0.2,3.7-0.3,5.6-0.5c2.7,0.4,2.9,2.8,3.6,4.7c3.8,11.3,10.8,16.6,22.8,16
			c18.5-0.9,33.7-9.9,48.5-20c15.8,2.2,31.9,1.8,47.6,5c40.9,8.4,72.3,31,95.4,65.4c18.1,26.9,31.3,56.3,43.8,86.1
			c1,2.4,1.8,5,3,7.4c1,1.9,0.5,3.1-1,4.3c-19.7,8.4-39.3,16.9-59,25.3c-7.5,3.2-14.9,6.5-22.4,9.8c-1.4,0.6-3.4,0.7-3.8,2.8
			c-3.9,0.8-6.1-1-7.8-4.5c-6.1-12.1-13.1-23.8-18.7-36.2c-3.4-7.7-7.8-14.9-11.9-22.8c-0.7,2.5-0.4,4.1,0.4,6.1
			c2.5,5.9,4.8,11.9,6.9,17.9c5.2,14.6,10.2,29.3,15.3,44c3.2,9.2,6.8,18.3,9.4,27.8c2,7.1-2,18.6-8.2,22.5
			c-6,3.7-12.7,6.2-18.3,10.7c-16.1,4.9-32.5,8.4-48.7,12.6c-27.4,7.1-54.8,14.1-81.7,22.7c-6.4,2-12.7,2.2-19.1,0.5
			c-14.2-3.8-28.4-7-43.2-7.2c-12-0.2-21.7,4.1-29.9,12.5c-1.6,1.6-3.4,3.2-5.1,4.7c-2.3-14.9-1.8-30-3.5-45
			C983.2,808.7,982.9,802.2,982.5,795.7z"/>
		<path class="st2" d="M1144.2,542.9c-14.7,10.1-30,19.1-48.5,20c-11.9,0.6-19-4.7-22.8-16c-0.7-2-0.8-4.3-3.6-4.7
			c0.7-1.2,3-1.3,2.3-3.4c-0.7-2.1-2.6-1.8-4.2-1.7c-14.2,0.9-22.2-7.3-29.1-18.5c-9.6-15.4-13-32-12.4-49.8
			c0.3-8.7-0.5-17.3-1.1-25.9c-0.3-3.3-1.7-6.3-2.9-9.4c0.7-4.3-2.1-8.5-0.9-12.8l-0.1,0.1c8.5,5.9,18.2,6.1,29.3,6.5
			c-2.3-2-3.5-3.1-4.6-4.2c-1-1.1-1.9-2.3-3.7-4.6c9.8,4.9,18.7,6.2,29.3,5.5c-5.8-3.6-9.3-7.3-11.2-13.4
			c9.8,5.5,20.1,7.8,30.1,10.4c13.1,3.4,20,11.5,22.6,24.3c1.5,7.7,3.6,15.2,5.6,22.8c0.3,1.2,0.6,2.9,2.2,3
			c1.9,0.1,2.2-1.7,2.6-3.1c1.9-6,2.6-12.2,1.9-18.3c-0.6-5.3,2.1-7.6,5.7-9.9c7.4-4.7,12.5-2.1,13,6.8c0.3,6.6-1.8,12.6-5.2,18
			c-5.2,8.2-2.6,16.4-0.8,24.7c-0.6,1.7-1,3.5-0.8,5.3C1139.5,510.7,1141.8,526.8,1144.2,542.9z M1070.6,500.2
			c1.5-0.5,3.3-0.7,3.5-3.2c-9.6,0-19.2,0-28.7,0c-3,0-1.6,1.1-0.4,2C1050.7,508.7,1062.1,507,1070.6,500.2z M1089.7,457.4
			c-0.3-3.3-1-7.1-5.1-7.3c-4.2-0.2-5.3,3.5-5.4,7c-0.1,3.5,0.9,7.2,5,7.5C1088.6,464.8,1089.3,461.1,1089.7,457.4z M1032.6,455
			c0.3,2.9,0.7,6.7,4.7,6.8c4,0.1,4.6-3.8,4.6-7c0-3.3-0.5-7.4-4.9-7.3C1033.1,447.6,1032.9,451.5,1032.6,455z M1055.4,483.8
			c0.9-0.1,2.3,0.4,2.5-0.9c0.2-1.7-1.5-1.3-2.5-1.6c-6.5-1.5-7.1-3-3.4-8.7c2.5-3.9,4.9-7.9,7.3-11.9c0.6-0.9,1.7-2.1,0.1-2.9
			c-1.1-0.6-1.7,0.7-2.2,1.5c-2.7,4.4-5.5,8.7-8.1,13.1C1045.3,478.9,1047.9,483.6,1055.4,483.8z M1075.5,434
			c-0.9,0.2-2.6-0.9-2.8,0.8c-0.3,2.1,1.8,1.5,2.9,1.6c4.4,0.6,8.9,1.1,13.3,1.5c1,0.1,2.7,0.7,2.9-0.8c0.3-2.1-1.8-1.4-2.9-1.6
			C1084.5,435,1080.1,434.5,1075.5,434z M1043.7,434.3c-4.9-1.7-9.9-1.2-14.9-1.3c-0.3,0-0.8,0.6-0.8,1c-0.1,0.8,0.5,1.2,1.2,1.2
			C1034,435.2,1038.9,436,1043.7,434.3z"/>
		<path class="st8" d="M1021.2,420.7c-1.3,4.4,1.6,8.5,0.9,12.8c-11.5-12.6-16-26.9-10.5-43.6c2.7-8.4,5.7-16.6,8.6-24.9
			c3-8.5,8.8-14.2,17.5-17.1c6-2,12-3.9,18.4-3.9c5.6,1.5,11.2,1.3,16.8,0.1c22.1,2.6,43.3,8.1,62,20.8c14.6,9.9,21.9,24.4,24,41.4
			c3.7,29.8-4.1,56.9-19.9,82.1c-0.2,0.4-0.8,0.6-1.2,0.8c-1.8-8.3-4.4-16.5,0.8-24.7c3.4-5.4,5.5-11.4,5.2-18
			c-0.5-8.9-5.6-11.5-13-6.8c-3.6,2.3-6.3,4.6-5.7,9.9c0.7,6,0,12.3-1.9,18.3c-0.4,1.4-0.7,3.2-2.6,3.1c-1.6-0.1-1.9-1.8-2.2-3
			c-1.9-7.6-4-15.1-5.6-22.8c-2.6-12.8-9.5-20.9-22.6-24.3c-10-2.6-20.3-4.9-30.1-10.4c1.8,6.1,5.3,9.8,11.2,13.4
			c-10.6,0.6-19.5-0.6-29.3-5.5c1.8,2.3,2.7,3.6,3.7,4.6c1.1,1.2,2.4,2.2,4.6,4.2c-11.1-0.3-20.8-0.6-29.3-6.5c-0.1,0-0.3,0-0.4,0
			c0,0-0.1,0.1-0.1,0.1C1020.8,420.8,1021,420.8,1021.2,420.7z"/>
		<path class="st11" d="M977.9,456.9c-0.3,0.8-0.4,1.6-0.9,1.9c-4.6,3.5-2.4,7.3-0.9,11.3c1,2.6,2,4.1,5.2,4.1c3.2,0,5.1,2,4.8,5.6
			c-0.2,2.1-0.2,4.3,0,6.5c0.3,4.5-1.1,7.2-6.1,6.7c-1-0.1-2.1-0.1-2.6,1c-1.1,2.4-1.7,5.1-3.1,7.3c-2.2,3.4,0.8,4.7,2.2,6.7
			c0.9,1.4,1,2.9-0.2,4.2c-2.9,3-5.8,6-8.8,8.8c-1.8,1.6-3.5,1-5.3-0.5c-4.7-3.8-13.3-0.7-14,5.2c-0.4,3-1.6,4.6-4.8,4.3
			c-1.8-0.1-3.7-0.1-5.5,0c-5.1,0.4-9.7,0.3-8.8-6.9c0.1-1.1-0.5-1.9-1.7-2.1c-2.7-0.4-5-1.9-7.3-3.1c-1.6-0.8-2.8-0.8-3.9,0.6
			c-0.5,0.7-0.9,1.6-1.6,1.9c-6.2,2.1-8-4.1-11.6-6.6c-1.9-1.3-4.5-4.3-1-7c3.6-2.9,1.9-5.9,0.6-9c-1.2-2.9-1.7-6.8-6.5-5.8
			c-0.3,0.1-0.7,0.1-1-0.1c-6-3.4-1.7-8.9-2.8-13.4c-0.6-2.5,0.4-4.4,3.6-4.7c6.5-0.6,10.6-9.2,6.9-14.4c-2.1-2.9-2-5,0.7-7.3
			c1.6-1.4,3.1-3,4.6-4.6c2.8-3.1,5.7-4,8.8-0.5c1.5,1.7,2.9,1.7,4.8,0.7c1.7-0.9,3.6-1.8,5.5-2.3c2.3-0.6,3.2-1.8,3.1-4.3
			c-0.3-3.8,1.8-5.4,5.5-5.3c2.2,0.1,4.3,0.2,6.5,0c4.7-0.4,7.5,1.1,7,6.4c-0.2,1.9,0.6,3.1,2.6,3.6c1.7,0.4,3.5,1.1,5.1,1.9
			c2.2,1.2,4.1,1.3,5.7-0.8c2.2-2.8,4.6-2.3,6.8-0.2c2.4,2.2,4.8,4.6,7,7.1C977,454.8,977.4,456,977.9,456.9z M938.9,462
			c-12.5,0-21.8,9.1-21.9,21c0,12.2,10,22.1,22.3,22c11.8-0.1,21.8-10.2,21.7-22.1C960.9,471.1,951.2,461.9,938.9,462z"/>
		<path class="st11" d="M1261.7,482.1c0.2,0.1,1,0.2,1.3,0.6c4.6,6.4,9.2,0.3,13.8-0.2c1.9-0.2,1.1-2.5,1.3-3.9
			c0.5-3.2,1.6-5.3,5.4-4.8c2,0.3,4,0.2,6,0c4.7-0.4,8.5,0.1,7.6,6.4c-0.2,1.5,0.6,2.3,2.2,2.8c2.1,0.6,4.1,1.5,5.9,2.5
			c2.3,1.3,3.9,1.2,5.6-0.9c2-2.4,4.1-2,6.5-0.3c2.5,1.7,4.5,3.9,6.6,6.1c2.2,2.3,2.8,4.7,0,7.3c-4.5,4.1,0.8,7.5,1.1,11.3
			c0.3,3,2.7,3,4.9,2.9c3-0.1,4.3,1.3,4.2,4.2c-0.1,2.5-0.2,5,0,7.5c0.5,4.8-1.2,7.4-6.3,7.3c-3.5-0.1-2.8,3.1-3.9,4.8
			c-2.1,3.3-2.4,5.4,0.1,9.4c3.8,6.1-4.1,8.2-6.8,12c-1.8,2.6-4.6,2.6-6.9,0.4c-1.6-1.5-3.2-3.4-5.4-1.4c-2.8,2.6-9.6,0.5-8.8,7.4
			c0.1,0.6,0,1.5-0.4,1.9c-4.1,4.8-9.6,1.8-14.5,2.3c-2.9,0.3-3.6-2.4-4-4.8c-1-6.2-9.1-9.5-14-5.6c-1.2,1-2.5,2.2-3.9,1
			c-3.2-2.6-6.4-5.3-9.2-8.3c-2-2.2-1.2-4.7,1-6.6c1.6-1.4,2.9-3.2,1.2-5.1c-2.4-2.7-0.7-8.7-6.8-8.4c-3.9,0.2-5.4-1.8-5.3-5.5
			c0.1-2,0.1-4,0-6c-0.4-4.7,0.6-7.7,6.4-7.6c3.6,0.1,7.7-9.8,5.2-12.7c-3.2-3.9-2.5-6.6,1.2-9.5c1.8-1.4,3.3-3.3,5-4.9
			C1258.7,482.8,1259.7,481.9,1261.7,482.1z M1265.9,520.7c-0.5,12.4,8,21.4,20.4,21.8c13.2,0.4,22.7-9.2,22.6-22.5
			c-0.1-11.8-9.7-20.7-22-21.1C1277.5,498.6,1264.9,508,1265.9,520.7z"/>
		<path class="st2" d="M923,348.9c-9.5,0-19,0-28.5,0c-2.1,0-4.3,0.1-4.3-2.8c0-2.8,2.1-2.9,4.2-2.9c19,0,38,0,56.9,0
			c2,0,3.6,0.2,3.7,2.8c0,2.6-1.4,3-3.5,3C942,348.9,932.5,348.9,923,348.9C923,348.9,923,348.9,923,348.9z"/>
		<path class="st11" d="M951.3,380.1c-12.5,0-25,0-37.4-0.1c-1.7,0-4.6,1.2-4.8-1.9c-0.2-3.3,2.8-2.2,4.5-2.2
			c25.3-0.1,50.6-0.1,75.9,0c1.6,0,4.2-0.9,4.3,1.9c0.1,3.3-2.8,2.2-4.5,2.2C976.6,380.1,964,380.1,951.3,380.1z"/>
		<path class="st7" d="M987.9,283.1c36.2,0,72.5-0.1,108.7-0.1c6.4,0,13,0.8,18.3-4.1c-2.2,5-6.5,5.6-11.2,5.6
			c-36.4,0-72.8,0-109.2,0C992.2,284.5,989.8,285,987.9,283.1z"/>
		<path class="st11" d="M1358.8,628c5,0,8.1,2.9,8.2,7.9c0.1,5.5-2.8,9-7.7,9.1c-4.6,0.2-9.4-4.2-9.3-8.6
			C1350.1,632.2,1354.4,628,1358.8,628z"/>
		<path class="st11" d="M928.7,277.9c5.1,0,8.4,3.4,8.3,8.3c-0.1,4.5-4.1,8.3-8.8,8.4c-4.2,0.1-8.1-4.2-8.2-8.9
			C919.9,280.8,923.1,277.9,928.7,277.9z"/>
		<path class="st11" d="M770.3,525c-5.1-0.1-8.4-3.5-8.3-8.7c0.1-4.1,4.4-8.3,8.5-8.3c4.5,0,8.7,4.6,8.5,9.3
			C778.8,522,775.3,525.1,770.3,525z"/>
		<path class="st12" d="M966.5,359.9c8,0,16,0,24,0c1.6,0,3.6-0.2,3.4,2.3c-0.2,2.2-2,1.9-3.4,1.9c-16.3,0-32.6,0-48.9,0
			c-1.4,0-3.3,0.4-3.4-1.8c-0.2-2.6,1.8-2.4,3.4-2.4C949.9,359.9,958.2,359.9,966.5,359.9C966.5,359.9,966.5,359.9,966.5,359.9z"/>
		<path class="st12" d="M911,359.9c5.6,0,11.3,0,16.9,0c1.5,0,3.1,0,3,2.3c-0.1,1.9-1.5,2-2.8,2c-11.6,0-23.2,0-34.8,0
			c-1.5,0-3.2,0-3-2.2c0.1-2.2,1.9-2,3.3-2C899.4,359.9,905.2,359.9,911,359.9z"/>
		<path class="st10" d="M850.1,334.1c0.3-0.1,0.7-0.1,1,0c0,47.8,0,95.6,0,143.4c0,0.8-0.1,1.7-0.2,2.5c-1.3-1.2-0.8-2.8-0.8-4.2
			C850.1,428.4,850.1,381.3,850.1,334.1z"/>
		<path class="st11" d="M977.8,348.1c-4.3,0-8.6,0-12.9,0c-1.4,0-2.7-0.2-2.7-2.1c0-1.8,1.3-2.1,2.7-2.1c8.8,0,17.5,0,26.3,0
			c1.4,0,2.7,0.2,2.7,2.1c0,1.9-1.3,2.1-2.7,2.1C986.7,348.1,982.3,348.1,977.8,348.1z"/>
		<path class="st10" d="M1188.9,350c0.3,0,0.6,0,1,0.1c0,32.9,0,65.8,0,98.7c0,1.4,0.5,3-0.9,4.2c-0.1-24.5-0.2-49-0.2-73.4
			C1188.8,369.6,1188.9,359.8,1188.9,350z"/>
		<path class="st11" d="M896.2,380c-1.3,0-2.7,0-4,0c-1.7-0.1-2.1-1.2-2.1-2.7c0-1.4,0.7-2.2,2.1-2.2c2.2,0,4.3,0,6.5-0.1
			c1.8,0,3.4,0.1,3.4,2.5c0,2.4-1.6,2.5-3.4,2.5C897.8,380,897,380.1,896.2,380C896.2,380,896.2,380,896.2,380z"/>
		<path class="st13" d="M1072.9,344.2c-5.6,1.2-11.2,1.4-16.8-0.1C1061.7,343.7,1067.3,343.6,1072.9,344.2z"/>
		<path class="st7" d="M982.7,279.2c2.2,0.7,3.7,2.4,5.3,3.9C985.3,283.1,983.5,281.8,982.7,279.2z"/>
		<path class="st7" d="M980.9,276c1.3,0.7,1.7,1.9,1.9,3.3C981.3,278.7,980.9,277.5,980.9,276z"/>
		<path class="st2" d="M1063.8,542.7c-0.5,0.1-1,0.1-1.4,0.2C1062.7,542,1063.2,542,1063.8,542.7z"/>
		<path class="st7" d="M601.7,420.5c-1.2-15.9,5.4-28.2,17.9-37.2c16.7-12.2,33.6-9.4,50.4,0.5c10.5,6.2,20,13.7,29.8,20.8
			c4.9,5,9.7,10,15.7,13.7c4.5,4.9,9.8,8.6,15.5,11.8c4.2,3.3,8.7,6.3,13.8,8.1c2.8,1.9,5.9,3,9.3,3.1c12.1,0.3,20.3-7,23.2-20.9
			c6.6-7.1,13.1-6.5,19.7-0.1c0.1,0.1,0.3,0.2,0.4,0.2c-0.9,23.2-19.9,41.7-43,41.4c-10.4-0.1-18.8-5.9-27.4-10.8
			c-9.7-5.5-18.2-12.7-27.5-18.9c-5-5-10.4-9.5-16.5-13.2c-9.9-9.4-21.1-16.7-33.5-22c-5.9-2.5-11.8-1.1-17.2,2.1
			c-7.6,4.5-10.3,11.8-11.5,20c-6.6-6.2-12.8-5-18.7,1.1C602,420.4,601.8,420.4,601.7,420.5z"/>
		<path class="st12" d="M601.7,420.5c0.2-0.1,0.3-0.1,0.4-0.2c5.9-6.1,12.1-7.3,18.7-1.1c0.3,1,0.7,1.9,0.8,2.9
			c1.5,13.7,17.4,24.5,31.8,16.9c10.6-5.6,20.4-12.3,29.7-19.9c6.1,3.7,11.5,8.2,16.5,13.2c-9.9,8.1-20.1,15.7-31.3,22
			c-5.5,3.1-11.4,5.3-17.4,7.3c-4.9,0.8-9.8,0.6-14.7-0.1c-18.8-5-30.6-16.7-34.4-36C601.4,423.7,601,422.1,601.7,420.5z"/>
		<path class="st12" d="M797.4,420.5c-0.1-0.1-0.3-0.1-0.4-0.2c-6.6-6.5-13.2-7.1-19.7,0.1c0.7-17.2-16.1-31.3-35.3-20.3
			c-9.4,5.4-18.3,11.4-26.5,18.3c-6-3.7-10.8-8.7-15.7-13.7c13.1-10.7,26.8-20.4,42.4-27.2c1-0.2,2,0,2.6-1.1c0,0,0.1,0.3,0.1,0.3
			c1.3-0.4,2.9,0.1,3.8-1.3c0,0,0.1,0.3,0.1,0.3c5.8-0.8,11.4-0.2,17.1,1c4.8,1.8,9.4,3.9,13.8,6.6c4.8,3.8,8.7,8.4,12.2,13.3
			C795.4,404.1,798.4,411.8,797.4,420.5z"/>
		<path class="st3" d="M791.8,396.4c-3.5-4.9-7.4-9.5-12.2-13.3c3.5-0.2,6.2-1.4,7.9-4.8c0.4-0.9,1.7-1.5,2.8-1.9
			c2.1-0.7,5.4,0,4-4.1c-0.1-0.3,0.8-1.1,1.3-1.2c3.8-0.8,1.8-2.3,0.4-3.5c-1.2-1-2.7-1.9-1.2-3.5c1.8-2,2.9,0,3.9,1.2
			c1,1.3,2.2,2.4,4.1,3c0.1-0.7,0.3-1.3,0.3-1.9c0.1-1.4-0.3-3.6,1.5-3.7c2.3-0.2,1.4,2.2,1.4,3.4c0,3.5,2.4,2.9,4.5,3
			c0.8,0,1.8-0.1,2,1c0.1,0.5-0.6,1.5-0.8,1.5c-5.1-0.1-4.7,5.3-7.5,7.4c-0.3,0.2-0.4,1.3-0.5,1.3c-5.8-0.9-3.8,5-6.2,7
			c-0.3,0.2-0.7,0.6-0.6,0.7C800.2,393.7,793.6,393.7,791.8,396.4z"/>
		<path class="st7" d="M598,353.7c-8.8,0-17.7,0-26.5,0c-1.5,0-3.9,0.7-4-1.7c-0.1-2.5,2.3-1.9,3.8-1.9c17.8,0,35.6,0,53.5,0.1
			c1.5,0,4-0.7,3.8,1.8c-0.2,2.2-2.6,1.6-4.1,1.6C615.7,353.6,606.8,353.6,598,353.7C598,353.6,598,353.7,598,353.7z"/>
		<path class="st6" d="M598,361c9,0,18,0,27,0c1.3,0,3.6-0.7,3.6,1.5c0,2.2-2.2,1.5-3.5,1.5c-18,0-36,0-53.9,0
			c-1.3,0-3.6,0.7-3.6-1.5c0-2.2,2.2-1.5,3.5-1.5C580,360.9,589,361,598,361z"/>
		<path class="st10" d="M765.8,376.5c-5.6-1.2-11.3-1.8-17.1-1C754.6,373.2,760.3,372.8,765.8,376.5z"/>
		<path class="st10" d="M636.2,461.3c4.9,0.7,9.8,0.9,14.7,0.1C647.5,463.7,639.2,463.6,636.2,461.3z"/>
		<path class="st10" d="M748.7,375.1c-0.9,1.4-2.5,0.9-3.8,1.3C745.7,374.8,747.2,375.1,748.7,375.1z"/>
		<path class="st10" d="M744.7,376.2c-0.5,1.1-1.6,1-2.6,1.1C742.6,376.1,743.7,376.1,744.7,376.2z"/>
		<path class="st14" d="M1215.1,814.3c5.5-4.5,12.3-7,18.3-10.7c6.2-3.9,10.2-15.3,8.2-22.5c-2.6-9.4-6.1-18.6-9.4-27.8
			c-5.2-14.6-10.2-29.3-15.3-44c-2.1-6-4.5-12-6.9-17.9c-0.8-1.9-1.2-3.6-0.4-6.1c4.2,7.9,8.5,15.1,11.9,22.8
			c5.6,12.4,12.6,24.1,18.7,36.2c1.7,3.4,3.9,5.2,7.8,4.5c8.6,14.3,16.6,28.8,24.3,43.6c2.8,5.5,2.3,6.5-3.4,8
			C1251,805.5,1233.2,810.5,1215.1,814.3z"/>
		<path class="st8" d="M957.1,873.5c7.3-0.2,14.7-0.3,22-0.5c2.3,0.1,4.6,0.2,7,0.2c86.8,0,173.6,0,260.4,0c1.2,0,2.3,0.1,3.5,0.2
			c-1.3,2.9-3.8,1.5-5.7,1.5c-86.6,0.1-173.2,0.1-259.9,0.1c-7.7,0-15.3,0-23,0C959.8,874.9,957.9,875.8,957.1,873.5z"/>
		<path class="st4" d="M544,875c1.3,0,2.7,0,4,0c-0.1,1.3,0.4,3.5-0.9,3.6c-6.5,0.4-8.7,6-12.6,9.6c-1.9,1.8-4.6-0.7-7.1-0.3
			c-6.8,0.9-5.3-4.1-5.4-7.9c-0.1-4.9,3.4-3.8,6.3-4c3.2-0.3,6.6,1,9.7-0.9c1.3,0,2.7,0,4,0C542.7,876,543.3,876,544,875z"/>
		<path class="st15" d="M1340.5,375.1c-13.3,0-26.6,0-40,0c-1.6,0-4.2,1-4.2-2c0-3,2.7-1.9,4.2-1.9c26.5-0.1,53,0,79.4,0
			c0.7,0,1.3,0,2,0c1.6,0,2.7,0.6,2.6,2.3c-0.1,1.6-1.4,1.6-2.6,1.6c-6.8,0-13.7,0-20.5,0C1354.5,375.1,1347.5,375.1,1340.5,375.1
			C1340.5,375.1,1340.5,375.1,1340.5,375.1z"/>
		<path class="st15" d="M1257.7,398c-12.3,0-24.6,0.1-36.9-0.1c-1.7,0-4.6,1.3-4.6-2c0.1-2.9,2.7-1.8,4.3-1.8
			c25-0.1,49.9-0.1,74.9-0.1c0.5,0,1,0,1.5,0c1.4,0.1,3.3-0.3,3.1,2.1c-0.1,2.3-2,1.8-3.4,1.8C1283.7,398,1270.7,398,1257.7,398z"/>
		<path class="st3" d="M1326,409c-12.2,0-24.3,0-36.5,0c-1.6,0-4.2,1-4.3-1.9c0-2.9,2.6-2,4.2-2c13.8-0.1,27.8-1.1,41.5,0.3
			c11,1.2,21.8-2,32.7,0.6c1.2,0.3,3.1-0.4,3.1,1.5c0,1.9-1.9,1.5-3.2,1.5C1351,409,1338.5,409,1326,409z"/>
		<path class="st9" d="M1230.9,440c1.2-1.3,2.7-1,4.2-1c17,0,33.9,0,50.9,0c1,0,2,0,3,0.2c1,0.2,1.8,0.9,1.9,2.1
			c0.1,1.4-0.6,2.3-1.9,2.5c-1.3,0.2-2.6,0.2-4,0.2c-14.6,0-29.3,0.1-43.9,0.1c-2.1,0-4.2-0.2-6.3,0
			C1231.6,444.3,1230.6,442.8,1230.9,440z"/>
		<path class="st3" d="M1252,432c-10.7,0-21.3,0-32,0c-1.5,0-3.7,0.7-3.8-1.9c-0.1-2.6,2.1-2.1,3.7-2.1c21.5,0,42.9,0,64.4,0
			c1.7,0,4.3-0.5,4.2,2.1c-0.2,2.5-2.8,1.8-4.5,1.8C1273.3,432,1262.6,432,1252,432z"/>
		<path class="st15" d="M1336,394.1c9.1,0,18.3,0,27.4,0c1.4,0,3.3-0.6,3.5,1.7c0.2,2.7-2,2.2-3.5,2.2c-18.3,0-36.6,0-54.9,0
			c-1.4,0-3.3,0.5-3.5-1.7c-0.2-2.7,2-2.1,3.5-2.2C1317.7,394.1,1326.8,394.1,1336,394.1C1336,394.1,1336,394.1,1336,394.1z"/>
		<path class="st9" d="M1260.1,375.1c-8.5,0-16.9,0-25.4,0c-1.6,0-3.7,0.4-3.6-2.2c0.1-2.2,2-1.9,3.4-1.9c17.3,0,34.6,0,51.8,0
			c1.6,0,3.7-0.4,3.6,2.2c-0.2,2.5-2.4,1.9-3.9,1.9C1277.4,375.1,1268.7,375.1,1260.1,375.1z"/>
		<path class="st9" d="M1355.5,387c-8.1,0-16.3,0-24.4,0c-1.7,0-4.1,0.6-4-2.3c0.1-2.7,2-2,4-2c16.4,0.1,32.9,0.1,49.3-0.1
			c2,0,4.1-0.5,4.3,1.8c0.3,2.9-2.4,2.6-4.3,2.6C1372.1,387,1363.8,387,1355.5,387z"/>
		<path class="st15" d="M1318,420.9c-8.2,0-16.3,0-24.5,0c-1.6,0-3.7,0.5-3.5-2.2c0.2-2.2,2.1-1.7,3.5-1.7c16.3,0,32.6,0,49,0
			c1.4,0,3.3-0.6,3.5,1.7c0.2,2.6-1.9,2.2-3.5,2.2C1334.3,420.9,1326.2,420.9,1318,420.9z"/>
		<path class="st9" d="M1237.6,410c-6.2,0-12.3,0-18.5,0c-1.9,0-4-0.1-3.8-2.7c0.1-2.2,2.1-2.2,3.8-2.2c12.2,0,24.3,0,36.5-0.1
			c2.6,0,3.9,1.1,3.9,3.4c-0.1,2.8-2.5,1.6-3.8,1.6C1249.6,410.1,1243.6,410,1237.6,410C1237.6,410,1237.6,410,1237.6,410z"/>
		<path class="st3" d="M1248.6,364c-9.6,0-19.1,0-28.7,0c-1.3,0-3.4,0.7-3.5-1.5c-0.1-1.8,1.9-1.6,3-2c1-0.4,2.3-0.4,3.4-0.4
			c13.3,0,26.5,0,39.8,0c1.6,0,4.2-0.9,4.2,2c0,2.9-2.6,1.9-4.2,1.9C1257.9,364.1,1253.2,364,1248.6,364z"/>
		<path class="st15" d="M1297.9,386.8c-6.8,0-13.6,0-20.5,0c-1.4,0-3.2,0.4-3.3-2c0-2.4,1.7-2.6,3.4-2.5c13.8,1.1,27.6,0.2,41.4,0.5
			c1.4,0,3.4-0.6,3.5,1.7c0.1,2.5-2,2.2-3.6,2.2C1311.9,386.8,1304.9,386.8,1297.9,386.8z"/>
		<path class="st15" d="M1352,443.2c-9.3,0-18.6,0-28,0c-1.3,0-3.5,0.7-3.6-1.5c-0.2-2.7,2.2-1.9,3.6-1.9c18.6,0,37.3,0,55.9,0
			c1.5,0,3.9-0.8,3.9,1.7c0,2.5-2.5,1.7-3.9,1.7C1370.7,443.3,1361.3,443.2,1352,443.2z"/>
		<path class="st3" d="M1230.9,440c-0.2,2.8,0.7,4.3,3.8,4c2.1-0.2,4.2,0,6.3,0c0.2,2.8,2.2,2.9,4.3,2.9c1,0,2.2-0.1,2.2,1.3
			c0,0.9-0.9,1.5-1.7,1.5c-2.8-0.1-3.9,0.8-2.9,3.8c0.5,1.6-0.7,2.3-2.4,2.3c-5.4,0-10.8,0-16.4,0c2-3,4.8-0.3,7.3-1.2
			c-0.7-2-3.7-3.7-0.3-6.1c1.7-1.3-0.6-2.3-2.1-2.5l0,0C1229.2,443.9,1228.3,441.4,1230.9,440z"/>
		<path class="st9" d="M1314.5,432.1c-5,0-10,0-15,0c-1.4,0-3.3,0.4-3.3-1.9c0-1.6,1.4-2.2,2.8-2.2c10.6,0,21.3,0,31.9,0
			c1.4,0,2.8,0.5,2.6,2.3c-0.2,1.6-1.7,1.8-3.1,1.8C1325.1,432.1,1319.8,432.1,1314.5,432.1z"/>
		<path class="st15" d="M1314.9,360c5,0,10,0,15,0c1.5,0,3.2-0.1,3.1,2.2c-0.2,1.9-1.8,1.7-3.1,1.7c-10.2,0-20.3,0-30.5,0
			c-1.6,0-3.2-0.2-3.1-2.3c0.1-2,1.8-1.6,3.1-1.6C1304.6,360,1309.8,360,1314.9,360z"/>
		<path class="st15" d="M1232,386.8c-4.2,0-8.3,0-12.5,0c-1.4,0-3.3,0.5-3.4-1.8c-0.1-2.3,1.7-2.1,3.1-2.1c8.5,0,17,0,25.5,0
			c1.4,0,3.3-0.3,3.2,2c-0.1,2.3-2,1.8-3.4,1.8C1240.3,386.8,1236.2,386.8,1232,386.8z"/>
		<path class="st9" d="M1368.8,416.9c4.1,0,8.3-0.1,12.4,0c1.4,0,3.4-0.5,3.5,1.7c0.1,1.9-1.5,2.4-3.1,2.4c-8.5,0-16.9,0-25.4,0
			c-1.7,0-3.1-0.6-3-2.5c0.1-1.9,1.8-1.6,3.1-1.6C1360.5,416.9,1364.7,416.9,1368.8,416.9z"/>
		<path class="st15" d="M1349,360c2.6,0,5.3,0,7.9,0c1.3,0,2.8-0.1,2.7,1.9c-0.1,1.4-1.1,1.9-2.4,1.9c-5.8,0-11.6,0-17.3,0
			c-1.6,0-2.6-0.7-2.5-2.3c0.1-1.6,1.5-1.5,2.6-1.5C1343,360,1346,360,1349,360z"/>
		<path class="st15" d="M1271.4,420.8c-3,0-6,0-9,0c-1.3,0-2.3-0.3-2.4-1.9c0-1.6,1-2,2.3-2c5.8,0,11.6,0,17.5,0
			c1.4,0,2.2,0.7,2.1,2.2c-0.1,1.6-1.3,1.7-2.5,1.8C1276.7,420.9,1274,420.9,1271.4,420.8C1271.4,420.9,1271.4,420.8,1271.4,420.8z"
			/>
		<path class="st15" d="M1227,420.8c-3,0-5.9,0-8.9,0c-1.4,0-2.1-0.8-2-2.2c0.1-1.3,1-1.6,2-1.6c5.9,0,11.9,0,17.8,0
			c1.1,0,1.9,0.4,2,1.7c0.1,1.4-0.6,2.2-2,2.2C1232.9,420.9,1229.9,420.8,1227,420.8C1227,420.8,1227,420.8,1227,420.8z"/>
		<path class="st15" d="M1259.5,386.8c-1.8,0-3.6,0-5.5,0c-1.5,0-2.7-0.6-2.6-2.3c0.1-1.6,1.4-1.6,2.6-1.6c3.6,0,7.3,0,10.9,0
			c1.2,0,2.5,0,2.6,1.6c0.1,1.7-1.1,2.3-2.6,2.3C1263.1,386.8,1261.3,386.8,1259.5,386.8z"/>
		<path class="st6" d="M1280.8,363.9c-1.3,0-2.6,0.1-4,0c-1.5-0.1-3.7,0.7-3.6-2c0.1-2.3,2-1.8,3.3-1.8c3-0.1,5.9-0.1,8.9,0
			c1.4,0,3.3-0.5,3.4,1.8c0.1,2.7-2.1,2-3.6,2.1C1283.8,364,1282.3,363.9,1280.8,363.9z"/>
		<path class="st15" d="M1378.8,405.2c1,0,2,0,3,0c1.6,0,3,0.4,2.9,2.5c-0.1,1.8-1.5,2-2.9,2c-1.7,0-3.3,0-5,0
			c-1.6-0.1-3.6,0.1-3.6-2.3c0-2.7,2.1-1.9,3.6-2.1C1377.4,405.2,1378.1,405.2,1378.8,405.2z"/>
		<path class="st15" d="M1220.5,443.8c-0.8-0.1-2.4,0-3.7-0.6c-1.2-0.6-0.9-2-0.2-3c1-1.4,8.9-1.4,9.8,0c0.7,1.1,0.7,2.3-0.4,3
			C1224.4,444.2,1222.7,443.6,1220.5,443.8z"/>
		<path class="st15" d="M1343.4,427.8c2.2,1.3,6.2-1.5,6.1,2.4c-0.1,3.5-3.9,1.7-6,1.8c-2,0.1-5.6,1.5-5.7-1.7
			C1337.7,426.2,1341.8,429.3,1343.4,427.8z"/>
		<path class="st15" d="M1270.7,405.2c1.2,0,2.3,0,3.5,0c1.3,0,2.3,0.4,2.4,1.9c0.1,1.9-1.2,2-2.6,2c-1.8,0-3.6,0.1-5.4,0
			c-1.4-0.1-3.3,0.5-3.4-1.8c-0.1-2.7,2.1-1.9,3.6-2.1C1269.3,405.2,1270,405.2,1270.7,405.2z"/>
		<path class="st15" d="M1249.5,416.9c1.5,0.9,5.2-1.7,5.2,1.9c0,3.5-3.6,1.4-5.6,2c-0.6,0.2-1.3,0.1-2,0c-1.4-0.1-3.4,0.4-3.5-1.7
			c-0.2-2.6,2-2.1,3.6-2.2C1247.8,416.9,1248.5,416.9,1249.5,416.9z"/>
		<path class="st15" d="M1221.1,371.2c1.5,0,2.7-0.1,3.8,0c1.1,0.1,1.8,0.7,1.8,1.9c0,1.2-0.6,1.9-1.7,1.9c-1.2,0.1-2.4,0.3-3.4,0
			c-1.9-0.4-5.5,1.6-5.3-2.2C1216.4,369.7,1219.8,371.9,1221.1,371.2z"/>
		<path class="st15" d="M1306,443.3c-1.3-0.1-2.4-0.1-3.6-0.2c-1-0.1-1.5-0.7-1.4-1.7c0-1,0.7-1.5,1.6-1.5c1.2-0.1,2.4-0.3,3.5,0
			c1.7,0.4,4.8-1.3,4.7,1.8C1310.7,444.4,1307.6,442.7,1306,443.3z"/>
		<path class="st15" d="M1206.5,405.2c1.3,0,2.3,0.3,2.3,1.9c0,1.6-0.7,2.5-2.3,2.5c-1.6,0-2.4-0.8-2.4-2.5
			C1204.2,405.5,1205.2,405.2,1206.5,405.2z"/>
		<path class="st15" d="M1206.4,443.7c-1.3,0.1-2.2-0.4-2.3-1.9c0-1.6,0.8-2.5,2.3-2.5c1.3,0,2.2,0.5,2.3,2
			C1208.9,443,1207.9,443.6,1206.4,443.7z"/>
		<path class="st15" d="M1208.8,418.8c0.1,1.5-0.8,2-2.1,2c-1.2,0-2.4-0.1-2.5-1.6c-0.2-1.7,0.8-2.3,2.4-2.3
			C1207.8,417,1208.8,417.3,1208.8,418.8z"/>
		<path class="st15" d="M1206.6,360c1.3,0,2.2,0.4,2.2,1.9c0,1.9-1.4,1.9-2.7,1.9c-1.5,0-2-0.9-1.9-2.2
			C1204.2,360.1,1205.4,360.1,1206.6,360z"/>
		<path class="st15" d="M1206.4,375.1c-1.3,0-2.2-0.4-2.3-1.9c0-1.5,0.8-2,2.1-2c1.5,0,2.6,0.3,2.5,2.1
			C1208.7,374.9,1207.6,375.1,1206.4,375.1z"/>
		<path class="st15" d="M1208.8,430.2c0,1.5-1,1.9-2.3,1.9c-1.2,0-2.3-0.2-2.4-1.8c-0.1-1.8,1-2.2,2.5-2.1
			C1208,428.2,1208.9,428.7,1208.8,430.2z"/>
		<path class="st15" d="M1208.8,395.3c0.1,2-0.5,2.7-2,2.7c-1.4,0-2.7-0.1-2.6-2c0-1.6,1-1.9,2.3-1.9
			C1207.6,394.1,1208.7,394.2,1208.8,395.3z"/>
		<path class="st15" d="M1204.1,385c-0.1-1.4,0.6-2.1,2.1-2.1c1.5,0,2.6,0.2,2.6,2.1c0,1.5-1,1.9-2.3,1.8
			C1205.2,386.8,1204.1,386.6,1204.1,385z"/>
		<path class="st3" d="M1229,446c-0.3,2.1-1.2,3.5-3.6,2.6c-0.8-0.3-1.4-1.1-1-2C1225.6,444.2,1227.3,445.2,1229,446
			C1229,446,1229,446,1229,446z"/>
		<path class="st12" d="M1074.8,221.8c-0.1,1.2-0.4,3.9-0.7,6.5c-0.2,1.9,0,3.5,2,4.7c3.5,2.1,3.6,5.5,0.2,7.6
			c-2.2,1.3-2.3,3-2.2,5.1c0.2,3.1,0.7,6.3,0.7,9.4c0,5.8-3.7,9.1-9.6,8.9c-1.5-0.1-3.3,0.2-3.1-2.1c0.2-1.7-1.3-4.4,1.9-4.8
			c2.8-0.4,2.9-2.2,2.8-4.3c-0.1-5.3-3-10.9,2.2-15.5c0.2-0.2,0.1-1-0.2-1.2c-4.1-3.6-2.6-8.2-2.3-12.6c0.2-3,1.7-6.3-3.4-7.2
			c-2.1-0.4-1-3.2-1-4.9c0-2,1.6-1.7,2.9-1.7C1071.7,209.3,1075.1,213.2,1074.8,221.8z"/>
		<path class="st12" d="M1022.2,253.3c0.2-1.6,0.6-4.1,0.9-6.5c0.3-2.7,0.6-5.1-2.9-6.5c-2.4-1-2.4-5.8,0-6.8
			c3.2-1.3,3.1-3.5,2.9-6.1c-0.3-2.8-0.8-5.6-0.9-8.4c-0.1-5.5,2.9-8.8,8.3-9.2c1.6-0.1,4.1-1.3,4.4,1.6c0.2,2,1.4,4.8-2.4,5.4
			c-2.9,0.5-1.9,3-2,4.8c-0.3,4.9,2.6,10.3-2.3,14.5c-0.6,0.5-0.3,1,0,1.3c4.6,3.9,2.4,8.9,2.4,13.6c0,2.7-1.1,5.6,3.3,6.4
			c2.1,0.4,1.1,3.1,1,4.8c0,1.9-1.6,1.7-3,1.8C1025.9,264.4,1022.1,260.6,1022.2,253.3z"/>
		<path class="st11" d="M593.4,319.7c2.1,0.1,3.5,1.1,3.5,3.4c0,2-1.3,3.1-3.2,3.1c-2.1,0-3.5-1.1-3.5-3.3
			C590.2,321,591.4,319.9,593.4,319.7z"/>
		<path class="st12" d="M579.3,319.7c2.1,0.2,3.3,1.4,3.2,3.2c-0.1,2.1-1.4,3.3-3.6,3.1c-1.9-0.2-2.9-1.4-2.8-3.4
			C576.3,320.7,577.6,319.9,579.3,319.7z"/>
		<path class="st12" d="M568.2,323.2c-0.4,1.9-1.4,3-3.4,2.9c-2-0.1-3-1.4-2.9-3.3c0.1-2,1.4-3,3.3-2.9
			C567.3,319.9,568.2,321.2,568.2,323.2z"/>
		<path class="st14" d="M969.1,716c2.4,0.9,1.8-0.9,1.9-2.1c0.5-5-0.9-9.9-0.9-14.9c-0.1-14-0.3-28,0-41.9
			c0.3-11.9,2.6-23.6,4.2-35.4c0.1-0.9,0.7-1.8,1.4-3.5c0.7,7.9-0.5,14.8-0.5,21.7c-0.1,16.7,0.1,33.4,1,50.1
			c0.7,13.4,1.1,26.8,2,40.2c0.6,9.6,1.2,19.1,1.5,28.7c-0.6-0.3-1.2-0.6-1.8-0.9C974.5,744,971.4,730.1,969.1,716z"/>
		<path class="st2" d="M977.8,757.9c0.6,0.3,1.2,0.6,1.8,0.9c1.2,4.3,1.1,8.8,1.1,13.2C979,767.5,978.4,762.7,977.8,757.9z"/>
		<path class="st11" d="M1200.4,341.8c-0.2,1.7-1,2.7-2.5,2.6c-1.4,0-2.4-1-2.3-2.5c0.1-1.3,1-2.1,2.2-2.2
			C1199.2,339.6,1200,340.6,1200.4,341.8z"/>
		<path class="st11" d="M1210.4,342c-0.2,1.5-1,2.5-2.5,2.5c-1.4,0-2.4-1-2.4-2.5c0-1.3,0.9-2.2,2.2-2.2
			C1209.2,339.6,1210.1,340.5,1210.4,342z"/>
		<path class="st12" d="M1220.3,342.1c-0.3,1.5-1.1,2.3-2.4,2.2c-1.4-0.1-2-1-1.9-2.4c0.1-1.4,1-2.1,2.3-2
			C1219.6,340,1220.2,341,1220.3,342.1z"/>
		<path class="st3" d="M628,847c0,1,0,2,0,3C626.7,849,626.7,848,628,847z"/>
		<path class="st3" d="M630,840c0,1.1,0.2,2.3-1,3C629,841.9,628.8,840.8,630,840z"/>
		<path class="st3" d="M629,844c0,1.1,0.2,2.2-0.9,2.9C628,845.9,627.8,844.7,629,844z"/>
		<path class="st3" d="M544,875c-0.7,1-1.3,1-2,0C542.7,875,543.3,875,544,875z"/>
		<path class="st1" d="M1089.7,457.4c-0.4,3.7-1.1,7.4-5.5,7.2c-4.1-0.2-5.1-3.9-5-7.5c0.1-3.5,1.2-7.2,5.4-7
			C1088.7,450.3,1089.5,454.1,1089.7,457.4z"/>
		<path class="st1" d="M1032.6,455c0.2-3.5,0.5-7.4,4.4-7.5c4.4-0.1,4.9,4,4.9,7.3c0,3.2-0.6,7.1-4.6,7
			C1033.3,461.7,1032.9,457.9,1032.6,455z"/>
		<path class="st8" d="M1055.4,483.8c-7.5-0.2-10.1-4.9-6.3-11.3c2.6-4.4,5.4-8.7,8.1-13.1c0.5-0.8,1.1-2.1,2.2-1.5
			c1.6,0.8,0.5,2-0.1,2.9c-2.4,4-4.8,8-7.3,11.9c-3.6,5.7-3.1,7.2,3.4,8.7c1,0.2,2.7-0.2,2.5,1.6
			C1057.7,484.2,1056.4,483.7,1055.4,483.8z"/>
		<path class="st12" d="M1045.1,499c-1.2-0.9-2.6-2,0.4-2c9.5-0.1,19,0,28.7,0c-0.2,2.5-2,2.7-3.5,3.2
			C1062,501.5,1053.5,501.3,1045.1,499z"/>
		<path class="st1" d="M1045.1,499c8.4,2.3,16.9,2.5,25.5,1.2C1062.1,507,1050.7,508.7,1045.1,499z"/>
		<path class="st8" d="M1075.5,434c4.6,0.5,9,1,13.4,1.6c1.1,0.2,3.1-0.5,2.9,1.6c-0.2,1.5-1.9,0.9-2.9,0.8
			c-4.4-0.5-8.9-0.9-13.3-1.5c-1.1-0.2-3.2,0.5-2.9-1.6C1072.9,433.2,1074.6,434.2,1075.5,434z"/>
		<path class="st8" d="M1043.7,434.3c-4.9,1.8-9.8,0.9-14.6,0.9c-0.7,0-1.3-0.4-1.2-1.2c0.1-0.4,0.6-1,0.8-1
			C1033.8,433.1,1038.8,432.6,1043.7,434.3z"/>
		<path class="st2" d="M1021.2,420.7c-0.2,0.1-0.4,0.1-0.6,0.2c0,0,0.1-0.1,0.1-0.1c0.1,0,0.3,0,0.4,0
			C1021.1,420.8,1021.2,420.7,1021.2,420.7z"/>
		<path class="st0" d="M938.9,462c12.3,0,22,9.1,22.1,20.9c0.1,11.9-9.8,22.1-21.7,22.1c-12.3,0.1-22.3-9.8-22.3-22
			C917.1,471,926.4,462,938.9,462z"/>
		<path class="st0" d="M1265.9,520.7c-1.1-12.7,11.6-22.1,21.1-21.8c12.3,0.4,21.9,9.3,22,21.1c0.1,13.3-9.4,23-22.6,22.5
			C1273.9,542.2,1265.5,533.1,1265.9,520.7z"/>
		<path class="st1" d="M683,419c-9.3,7.5-19.1,14.2-29.7,19.9c-14.4,7.7-30.3-3.2-31.8-16.9c-0.1-1-0.5-1.9-0.8-2.9
			c1.2-8.2,3.9-15.5,11.5-20c5.4-3.2,11.3-4.6,17.2-2.1C662,402.3,673.2,409.6,683,419z"/>
		<path class="st1" d="M715.5,418.2c8.3-6.9,17.2-12.9,26.5-18.3c19.1-11,35.9,3.1,35.3,20.3c-3,13.9-11.2,21.3-23.2,20.9
			c-3.4-0.1-6.5-1.2-9.3-3.1c6.1-2,10.3-9,7.5-12.7c-2.8-3.7-5.9-7.1-9.1-12.2c1.1,8.5-4.2,5.8-7.8,6.1c-0.5,0-1,0.4-1.4,0.3
			c-3.7-1-3,1-2.2,3.2c0.9,2.5,1.9,5.1-0.9,7.2C725.3,426.8,719.9,423.1,715.5,418.2z M767,403.9c-0.2-0.7-0.1-1.8-0.6-2.2
			c-1-0.8-1.8,0.2-2.5,0.9c-1.7,1.6-3.3,3.3-4.9,4.9c-0.7,0.7-1.4,1.6-2.5,1.1c-1.4-0.7-1-1.5-0.4-2.8c1-1.9-0.7-2.1-1.6-1.3
			c-1.8,1.4-4.1,2.1-2.1,5.8c2.3,4.1,6.7,5.8,9,9.6c0.5,0.9,1.6,1.3,2.6,0.5c1.2-1,0.8-2-0.1-3c-1.3-1.3-2.6-2.6-3.8-3.9
			c-1.1-1.2-0.4-2,0.5-2.9c0.9-0.9,1.7-1.7,2.9-0.5c1,0.9,1.9,1.9,2.9,2.8c0.9,0.8,1.8,2.7,3.1,1.6c1.3-1.1,0.5-2.8-0.6-3.9
			C767,408.6,765,406.9,767,403.9z"/>
		<path class="st3" d="M731,430c2.8-2.1,1.8-4.7,0.9-7.2c-0.8-2.2-1.6-4.1,2.2-3.2c0.4,0.1,0.9-0.3,1.4-0.3c3.6-0.3,8.9,2.4,7.8-6.1
			c3.1,5.1,6.3,8.5,9.1,12.2c2.8,3.7-1.4,10.7-7.5,12.7C739.6,436.3,735.2,433.4,731,430z"/>
		<path class="st3" d="M767,403.9c-2,3,0,4.7,1.8,6.5c1.1,1.1,1.9,2.8,0.6,3.9c-1.4,1.1-2.2-0.8-3.1-1.6c-1-0.8-1.9-1.8-2.9-2.8
			c-1.2-1.1-2-0.3-2.9,0.5c-0.9,0.9-1.6,1.7-0.5,2.9c1.3,1.3,2.5,2.6,3.8,3.9c0.9,0.9,1.4,2,0.1,3c-1,0.8-2.1,0.4-2.6-0.5
			c-2.3-3.8-6.7-5.4-9-9.6c-2-3.6,0.3-4.4,2.1-5.8c1-0.8,2.6-0.6,1.6,1.3c-0.6,1.3-1.1,2.1,0.4,2.8c1.1,0.6,1.8-0.4,2.5-1.1
			c1.7-1.6,3.3-3.3,4.9-4.9c0.7-0.7,1.5-1.7,2.5-0.9C766.9,402.1,766.9,403.2,767,403.9z"/>
	</g>
</g>
</svg>
