<?xml version="1.0" encoding="utf-8"?>
<!-- Generator: Adobe Illustrator 21.0.0, SVG Export Plug-In . SVG Version: 6.00 Build 0)  -->
<svg version="1.1" id="Calque_1" xmlns="http://www.w3.org/2000/svg" xmlns:xlink="http://www.w3.org/1999/xlink" x="0px" y="0px"
	 viewBox="0 0 800 800" style="enable-background:new 0 0 800 800;" xml:space="preserve">
<style type="text/css">
	.st0{fill:#330000;}
	.st1{fill:#FD9900;}
</style>
<g>
	<path class="st0" d="M742.3,174.3c0,151.5,0,303,0,454.6c-2.3,2.9-1.8,6.6-2.6,10c-13.4,57.2-61.1,95-120.2,95
		c-145.6,0-291.3,0-436.9,0c-8.6,0-17-0.8-25.5-2.3c-54.6-9.9-97.2-60.7-97.2-116.1c0-143,0-285.9,0-428.9c0-5.9,0.5-11.8,1.5-17.5
		C72.1,109.6,121,68.4,181.5,68.3c146.3-0.2,292.7-0.2,439,0c58.5,0.1,105.9,38.2,119.1,95C740.6,166.9,740.2,170.9,742.3,174.3z
		 M337.1,238.5c-11.6,0-23.2,0.1-34.8,0c-3.5,0-5.3,1-5.2,4.9c0.2,10.3-2.3,20.1-5.7,29.7c-14.4,41.1-28.6,82.3-42.9,123.5
		c-15.3,44-30.6,88-45.8,132c-3.3,9.6-3,10.1,6.9,10.1c14.8,0,29.6,0,44.4,0c8.2,0,8.2,0,10.7-8c6.3-19.5,12.6-38.9,18.8-58.4
		c1.1-3.4,2.5-4.7,6.3-4.7c32.1,0.2,64.2,0.1,96.2,0c3.5,0,4.8,1.1,5.9,4.4c6.8,20.2,14,40.3,20.8,60.6c1.5,4.4,3.6,6.3,8.4,6.2
		c18-0.2,36-0.1,54-0.1c6.5,0,7.2-1.1,5-7.3c-7.4-21-14.9-41.9-22.3-62.9c-26.4-74.6-52.9-149.2-79.2-223.8
		c-1.6-4.6-3.9-6.4-8.8-6.2C358.8,238.7,347.9,238.5,337.1,238.5z M574.5,425.2c0-36-0.1-72,0.1-108c0-4.6-1.4-6.3-6.1-6.2
		c-17.1,0.2-34.2,0.2-51.3,0c-5.4-0.1-6.6,2.1-6.6,7c0.1,71.3,0.1,142.5,0.1,213.8c0,6.3,0.9,7.1,7.1,7.1c16.6,0,33.1,0,49.7,0
		c6.9,0,7.1-0.2,7.1-7.3C574.5,496.1,574.5,460.6,574.5,425.2z M578.6,251.3c0-21.6-13.9-35.6-35.3-35.5
		c-20.7,0.1-35.9,15.1-35.9,35.5c0,21.5,14.5,36.1,35.7,36.1C564.2,287.5,578.6,272.8,578.6,251.3z"/>
	<path class="st1" d="M337.1,238.5c10.9,0,21.8,0.3,32.6-0.1c5-0.2,7.2,1.6,8.8,6.2c26.3,74.6,52.8,149.2,79.2,223.8
		c7.4,21,14.9,41.9,22.3,62.9c2.2,6.3,1.5,7.3-5,7.3c-18,0-36-0.1-54,0.1c-4.8,0.1-6.9-1.8-8.4-6.2c-6.8-20.2-14-40.3-20.8-60.6
		c-1.1-3.3-2.5-4.4-5.9-4.4c-32.1,0.1-64.2,0.1-96.2,0c-3.8,0-5.2,1.3-6.3,4.7c-6.1,19.5-12.5,38.9-18.8,58.4c-2.6,8-2.6,8-10.7,8
		c-14.8,0-29.6,0-44.4,0c-9.9,0-10.2-0.5-6.9-10.1c15.3-44,30.6-88,45.8-132c14.3-41.2,28.6-82.3,42.9-123.5
		c3.4-9.6,5.9-19.4,5.7-29.7c-0.1-3.8,1.7-4.9,5.2-4.9C313.9,238.5,325.5,238.5,337.1,238.5z M337.1,293.5
		c-10.4,39.1-23.6,77.2-34.9,115.9c23.8,0,47.2,0,71.1,0C360.9,370.6,348.2,332.3,337.1,293.5z"/>
	<path class="st1" d="M574.5,425.2c0,35.5,0,70.9,0,106.4c0,7.1-0.2,7.3-7.1,7.3c-16.6,0-33.1,0-49.7,0c-6.2,0-7.1-0.9-7.1-7.1
		c0-71.3,0-142.5-0.1-213.8c0-4.9,1.2-7.1,6.6-7c17.1,0.3,34.2,0.2,51.3,0c4.7-0.1,6.1,1.6,6.1,6.2
		C574.5,353.2,574.5,389.2,574.5,425.2z"/>
	<path class="st1" d="M578.6,251.3c0,21.5-14.5,36.2-35.5,36.2c-21.1,0-35.6-14.7-35.7-36.1c0-20.4,15.2-35.5,35.9-35.5
		C564.8,215.8,578.7,229.7,578.6,251.3z"/>
	<path class="st0" d="M337.1,293.5c11.2,38.9,23.9,77.1,36.2,115.9c-23.9,0-47.3,0-71.1,0C313.4,370.6,326.7,332.5,337.1,293.5z"/>
</g>
</svg>
