<?xml version="1.0" encoding="utf-8"?>
<!-- Generator: Adobe Illustrator 21.0.0, SVG Export Plug-In . SVG Version: 6.00 Build 0)  -->
<svg version="1.1" id="Calque_1" xmlns="http://www.w3.org/2000/svg" xmlns:xlink="http://www.w3.org/1999/xlink" x="0px" y="0px"
	 viewBox="0 0 800 800" style="enable-background:new 0 0 800 800;" xml:space="preserve">
<style type="text/css">
	.st0{fill:#49021F;}
	.st1{fill:#FF3366;}
</style>
<g transform="matrix(1.00000012 0 0 1.00000012 151.999998 78.999995)">
	<path class="st0" d="M26.3-13.7h443.4c67.2,0,121.6,54.4,121.6,121.6v426.2c0,67.2-54.4,121.6-121.6,121.6H26.3
		c-67.2,0-121.6-54.4-121.6-121.6V107.9C-95.3,40.7-40.9-13.7,26.3-13.7z"/>
	<g>
		<path class="st1" d="M154.2,161.4v293.5c0,3.1-1.4,4.6-4,4.6H94.1c-2.6,0-3.7-1.4-3.7-4.6V161.4c0-2.6,1.4-3.7,4-3.7h55.8
			c1.7-0.3,3.4,0.9,3.7,2.9C154.2,160.8,154.2,161.1,154.2,161.4z"/>
		<path class="st1" d="M318.9,464c-21.2,0.3-42.3-4-61.5-12.9c-18-8.3-32.9-22-43.2-38.9c-10.6-17.4-15.7-39.2-15.7-65.2
			c-0.3-21.2,5.1-42.1,15.7-60.4c10.9-18.6,26.6-34,45.5-44.3c20-11.2,44.1-16.6,72.4-16.6c1.4,0,3.4,0,6,0.3
			c2.6,0.3,5.4,0.3,8.9,0.6v-90.4c0-2,0.9-3.1,2.9-3.1h58.1c1.4-0.3,2.6,0.9,2.9,2V408c0,5.1,0.3,10.9,0.6,17.2
			c0.6,6,0.9,11.7,1.1,16.6c0,2-0.9,3.7-2.9,4.6c-14.9,6.3-30.6,10.9-46.6,13.7C348.7,462.6,333.8,464,318.9,464L318.9,464z
			 M347,406.8V281c-2.6-0.6-5.1-1.1-7.7-1.4c-3.1-0.3-6.3-0.6-9.4-0.6c-11.2,0-22.3,2.3-32.3,7.4c-9.7,4.9-18,12-24.3,21.2
			c-6.3,9.2-9.4,21.5-9.4,36.3c-0.3,10,1.4,20,4.9,29.5c2.9,7.7,7.2,14.6,12.9,20.3c5.4,5.1,12,9.2,19.5,11.4
			c7.7,2.6,15.7,3.7,23.7,3.7c4.3,0,8.3-0.3,12-0.6C340.4,408.5,343.8,408,347,406.8L347,406.8z"/>
	</g>
</g>
</svg>
