<?xml version="1.0" encoding="utf-8"?>
<!-- Generator: Adobe Illustrator 21.0.0, SVG Export Plug-In . SVG Version: 6.00 Build 0)  -->
<svg version="1.1" id="Calque_1" xmlns="http://www.w3.org/2000/svg" xmlns:xlink="http://www.w3.org/1999/xlink" x="0px" y="0px"
	 viewBox="0 0 64 64" style="enable-background:new 0 0 64 64;" xml:space="preserve">
<style type="text/css">
	.st0{fill:#FFFFFF;}
</style>
<g>
	<path class="st0" d="M33.6,29c1.3-2,2.9-3.3,4.9-4c1.8-0.6,3.6-0.6,5.4-0.4c1.6,0.2,3.1,0.6,4.4,1.5c2,1.4,3,3.4,3.6,5.7
		c0.5,2,0.6,4,0.6,6.1c0,5,0,9.9,0,14.9c0,0.5-0.1,0.7-0.7,0.7c-2.5,0-5,0-7.5,0c-0.6,0-0.7-0.2-0.7-0.7c0-4.5,0-9,0-13.5
		c0-1.3-0.1-2.5-0.4-3.8c-0.5-2.1-1.8-3.1-3.9-3.1c-0.6,0-1.3,0-1.8,0.2c-2,0.5-2.9,2-3.2,3.9c-0.2,0.9-0.2,1.9-0.2,2.8
		c0,4.5,0,9,0,13.5c0,0.5-0.1,0.7-0.7,0.7c-2.5,0-5,0-7.5,0c-0.6,0-0.7-0.2-0.7-0.7c0-8.9,0-17.9,0-26.8c0-0.5,0.1-0.7,0.7-0.7
		c2.4,0,4.8,0,7.2,0c0.5,0,0.7,0.2,0.7,0.7C33.5,26.8,33.6,27.8,33.6,29z"/>
	<path class="st0" d="M19.7,39.2c0,4.4,0,8.9,0,13.3c0,0.8,0,0.8-0.8,0.8c-2.5,0-5,0-7.4,0c-0.5,0-0.7-0.1-0.7-0.7c0-9,0-18,0-27
		c0-0.5,0.2-0.6,0.7-0.6c2.5,0,5.1,0,7.6,0c0.5,0,0.6,0.2,0.6,0.7C19.7,30.3,19.7,34.7,19.7,39.2z"/>
	<path class="st0" d="M15.3,21.3c-2.8,0-5.1-2.2-5.1-5.1c0-2.9,2.2-5.1,5.1-5.1c2.8,0,5.1,2.3,5.1,5.1
		C20.4,19.1,18.1,21.3,15.3,21.3z"/>
</g>
</svg>
